<svg width="310" height="93" viewBox="0 0 310 93" fill="none" xmlns="http://www.w3.org/2000/svg">
<path fill-rule="evenodd" clip-rule="evenodd" d="M20 93C8.9543 93 0 84.0457 0 73V39C0 27.9543 8.9543 19 20 19H47.5L55.2574 14.7574L59.405 7.17375C60.6244 3.02719 64.4587 0 69 0H242C247.435 0 251.857 4.3354 251.997 9.7364L254.743 14.7574L262.5 19H290C301.046 19 310 27.9543 310 39V73C310 84.0457 301.046 93 290 93H20Z" fill="url(#paint0_linear_732_1181)"/>
<path d="M100.206 22C99.7962 22 99.4412 21.94 99.1412 21.82C98.8512 21.69 98.6112 21.52 98.4212 21.31C98.2412 21.1 98.1062 20.855 98.0162 20.575C97.9362 20.295 97.8962 20 97.8962 19.69V17.56H99.4262V19.3C99.4262 19.63 99.4962 19.89 99.6362 20.08C99.7862 20.26 100.091 20.35 100.551 20.35H105.261C105.621 20.35 105.876 20.27 106.026 20.11C106.186 19.94 106.266 19.695 106.266 19.375V17.605H107.796V19.735C107.796 20.115 107.731 20.45 107.601 20.74C107.471 21.02 107.296 21.255 107.076 21.445C106.866 21.625 106.621 21.765 106.341 21.865C106.071 21.955 105.791 22 105.501 22H100.206ZM104.691 16.39H103.131V14.92H104.691V16.39ZM102.546 16.39H100.986V14.92H102.546V16.39ZM111.436 21.76C111.436 22.3 111.341 22.805 111.151 23.275C110.971 23.745 110.716 24.155 110.386 24.505C110.066 24.855 109.681 25.13 109.231 25.33C108.791 25.53 108.316 25.63 107.806 25.63H106.861L106.786 23.995H107.416C107.866 23.995 108.251 23.93 108.571 23.8C108.881 23.68 109.136 23.515 109.336 23.305C109.536 23.095 109.681 22.855 109.771 22.585C109.861 22.315 109.906 22.04 109.906 21.76V17.605H111.436V21.76ZM115.264 22C114.984 22 114.714 21.965 114.454 21.895C114.204 21.815 113.984 21.685 113.794 21.505C113.604 21.325 113.454 21.09 113.344 20.8C113.234 20.5 113.179 20.13 113.179 19.69V12.7H114.709V19.315C114.709 19.635 114.779 19.89 114.919 20.08C115.069 20.26 115.289 20.35 115.579 20.35H115.924C116.144 20.35 116.254 20.615 116.254 21.145C116.254 21.715 116.144 22 115.924 22H115.264ZM119.645 20.35C119.915 20.35 120.1 20.295 120.2 20.185C120.31 20.075 120.365 19.94 120.365 19.78C120.365 19.63 120.335 19.485 120.275 19.345C120.225 19.195 120.11 19.035 119.93 18.865L117.095 16.03V14.32L122.06 12.445L122.405 13.975L118.58 15.385L120.785 17.62C121.035 17.87 121.24 18.1 121.4 18.31C121.56 18.51 121.685 18.705 121.775 18.895C121.865 19.075 121.925 19.26 121.955 19.45C121.995 19.63 122.015 19.82 122.015 20.02C122.015 20.37 121.955 20.67 121.835 20.92C121.725 21.17 121.57 21.375 121.37 21.535C121.18 21.695 120.95 21.815 120.68 21.895C120.42 21.965 120.135 22 119.825 22H115.925C115.795 22 115.71 21.935 115.67 21.805C115.62 21.665 115.595 21.465 115.595 21.205C115.595 20.915 115.62 20.7 115.67 20.56C115.71 20.42 115.795 20.35 115.925 20.35H119.645ZM133.844 21.625C133.844 22.195 133.754 22.72 133.574 23.2C133.404 23.69 133.154 24.115 132.824 24.475C132.504 24.835 132.109 25.115 131.639 25.315C131.179 25.525 130.664 25.63 130.094 25.63H129.149C128.029 25.63 127.159 25.285 126.539 24.595C125.919 23.905 125.609 22.96 125.609 21.76V19.075H127.124V21.7C127.124 22.05 127.164 22.365 127.244 22.645C127.324 22.925 127.449 23.165 127.619 23.365C127.799 23.565 128.029 23.72 128.309 23.83C128.599 23.94 128.949 23.995 129.359 23.995H130.019C130.439 23.995 130.794 23.93 131.084 23.8C131.384 23.68 131.624 23.51 131.804 23.29C131.994 23.08 132.129 22.83 132.209 22.54C132.289 22.26 132.329 21.96 132.329 21.64V12.7H133.844V21.625ZM136.967 23.995C137.347 23.995 137.672 23.94 137.942 23.83C138.222 23.73 138.452 23.59 138.632 23.41C138.812 23.23 138.952 23.015 139.052 22.765C139.152 22.525 139.212 22.27 139.232 22H138.212C137.692 22 137.267 21.945 136.937 21.835C136.607 21.725 136.347 21.565 136.157 21.355C135.967 21.135 135.832 20.87 135.752 20.56C135.682 20.25 135.647 19.9 135.647 19.51C135.647 19.12 135.702 18.755 135.812 18.415C135.922 18.065 136.082 17.76 136.292 17.5C136.512 17.24 136.782 17.035 137.102 16.885C137.422 16.725 137.792 16.645 138.212 16.645C138.552 16.645 138.872 16.7 139.172 16.81C139.482 16.92 139.752 17.095 139.982 17.335C140.212 17.575 140.392 17.885 140.522 18.265C140.662 18.645 140.732 19.11 140.732 19.66V21.76C140.732 22.27 140.647 22.76 140.477 23.23C140.307 23.7 140.062 24.11 139.742 24.46C139.432 24.82 139.047 25.105 138.587 25.315C138.127 25.525 137.612 25.63 137.042 25.63H135.527L135.437 23.995H136.967ZM137.117 19.405C137.117 19.755 137.192 20 137.342 20.14C137.502 20.28 137.812 20.35 138.272 20.35H139.262V19.645C139.262 19.125 139.162 18.76 138.962 18.55C138.772 18.34 138.502 18.235 138.152 18.235C137.822 18.235 137.567 18.335 137.387 18.535C137.207 18.735 137.117 19.025 137.117 19.405ZM142.476 12.7H144.006V22H142.476V12.7ZM153.112 22C152.412 22 151.847 21.82 151.417 21.46C150.987 21.09 150.772 20.555 150.772 19.855V19.09C150.772 18.81 150.797 18.575 150.847 18.385C150.897 18.195 150.992 18.04 151.132 17.92H150.787C150.307 17.92 149.952 18.02 149.722 18.22C149.492 18.42 149.377 18.71 149.377 19.09V25.63H147.847V19.03C147.847 18.68 147.907 18.345 148.027 18.025C148.157 17.695 148.342 17.405 148.582 17.155C148.822 16.905 149.122 16.705 149.482 16.555C149.842 16.405 150.262 16.33 150.742 16.33H153.457C153.877 16.33 154.227 16.39 154.507 16.51C154.797 16.62 155.032 16.775 155.212 16.975C155.392 17.165 155.517 17.39 155.587 17.65C155.667 17.91 155.707 18.185 155.707 18.475V19.795C155.707 20.185 155.637 20.52 155.497 20.8C155.367 21.07 155.182 21.295 154.942 21.475C154.712 21.655 154.437 21.79 154.117 21.88C153.807 21.96 153.472 22 153.112 22ZM153.232 20.35C153.582 20.35 153.837 20.275 153.997 20.125C154.167 19.975 154.252 19.77 154.252 19.51V18.865C154.252 18.605 154.182 18.395 154.042 18.235C153.912 18.065 153.692 17.98 153.382 17.98H153.067C152.777 17.98 152.562 18.065 152.422 18.235C152.292 18.405 152.227 18.62 152.227 18.88V19.48C152.227 19.75 152.302 19.965 152.452 20.125C152.612 20.275 152.872 20.35 153.232 20.35ZM157.461 12.7H158.991V22H157.461V12.7ZM162.733 21.76C162.733 22.3 162.643 22.805 162.463 23.275C162.283 23.745 162.033 24.155 161.713 24.505C161.403 24.855 161.028 25.13 160.588 25.33C160.158 25.53 159.688 25.63 159.178 25.63H158.233L158.158 23.995H158.788C159.238 23.995 159.623 23.93 159.943 23.8C160.253 23.68 160.508 23.515 160.708 23.305C160.908 23.095 161.053 22.855 161.143 22.585C161.233 22.315 161.278 22.04 161.278 21.76V17.605H162.808V19.39C162.808 19.71 162.903 19.95 163.093 20.11C163.293 20.27 163.543 20.35 163.843 20.35H164.008C164.228 20.35 164.338 20.615 164.338 21.145C164.338 21.715 164.228 22 164.008 22H163.843C163.643 22 163.443 21.97 163.243 21.91C163.043 21.84 162.873 21.705 162.733 21.505V21.76ZM165.096 12.01L169.611 10.3L169.851 11.38L165.171 13.18L165.096 12.01ZM167.721 20.35C167.991 20.35 168.176 20.295 168.276 20.185C168.386 20.075 168.441 19.94 168.441 19.78C168.441 19.63 168.411 19.485 168.351 19.345C168.301 19.195 168.186 19.035 168.006 18.865L165.171 16.03V14.32L170.136 12.445L170.481 13.975L166.656 15.385L168.861 17.62C169.311 18.07 169.696 18.45 170.016 18.76C170.346 19.07 170.631 19.325 170.871 19.525C171.121 19.725 171.336 19.885 171.516 20.005C171.706 20.115 171.881 20.195 172.041 20.245C172.201 20.295 172.356 20.325 172.506 20.335C172.666 20.345 172.846 20.35 173.046 20.35C173.176 20.35 173.261 20.42 173.301 20.56C173.351 20.69 173.376 20.885 173.376 21.145C173.376 21.435 173.351 21.65 173.301 21.79C173.261 21.93 173.176 22 173.046 22C172.746 22 172.471 21.985 172.221 21.955C171.981 21.925 171.746 21.865 171.516 21.775C171.286 21.675 171.041 21.53 170.781 21.34C170.521 21.14 170.226 20.875 169.896 20.545C169.826 21.065 169.601 21.44 169.221 21.67C168.851 21.89 168.411 22 167.901 22H164.001C163.871 22 163.786 21.935 163.746 21.805C163.696 21.665 163.671 21.465 163.671 21.205C163.671 20.915 163.696 20.7 163.746 20.56C163.786 20.42 163.871 20.35 164.001 20.35H167.721ZM173.384 20.35C174.064 20.35 174.404 20.025 174.404 19.375V12.7H175.934V19.375C175.934 19.725 176.039 19.975 176.249 20.125C176.469 20.275 176.729 20.35 177.029 20.35H177.269C177.489 20.35 177.599 20.615 177.599 21.145C177.599 21.715 177.489 22 177.269 22H176.969C176.599 22 176.254 21.94 175.934 21.82C175.614 21.69 175.339 21.435 175.109 21.055C174.879 21.435 174.614 21.69 174.314 21.82C174.024 21.94 173.714 22 173.384 22H173.039C172.909 22 172.824 21.935 172.784 21.805C172.734 21.665 172.709 21.465 172.709 21.205C172.709 20.915 172.734 20.7 172.784 20.56C172.824 20.42 172.909 20.35 173.039 20.35H173.384ZM178.652 20.35C179.322 20.35 179.657 20.025 179.657 19.375V17.605H181.187V19.48C181.187 20.31 180.977 20.94 180.557 21.37C180.137 21.79 179.547 22 178.787 22H177.272C177.142 22 177.057 21.935 177.017 21.805C176.967 21.665 176.942 21.465 176.942 21.205C176.942 20.915 176.967 20.7 177.017 20.56C177.057 20.42 177.142 20.35 177.272 20.35H178.652ZM181.232 15.85H179.672V14.38H181.232V15.85ZM179.087 15.85H177.527V14.38H179.087V15.85ZM193.024 21.625C193.024 22.195 192.934 22.72 192.754 23.2C192.584 23.69 192.334 24.115 192.004 24.475C191.684 24.835 191.289 25.115 190.819 25.315C190.359 25.525 189.844 25.63 189.274 25.63H188.329C187.209 25.63 186.339 25.285 185.719 24.595C185.099 23.905 184.789 22.96 184.789 21.76V19.075H186.304V21.7C186.304 22.05 186.344 22.365 186.424 22.645C186.504 22.925 186.629 23.165 186.799 23.365C186.979 23.565 187.209 23.72 187.489 23.83C187.779 23.94 188.129 23.995 188.539 23.995H189.199C189.619 23.995 189.974 23.93 190.264 23.8C190.564 23.68 190.804 23.51 190.984 23.29C191.174 23.08 191.309 22.83 191.389 22.54C191.469 22.26 191.509 21.96 191.509 21.64V12.7H193.024V21.625ZM197.031 22C196.751 22 196.481 21.965 196.221 21.895C195.971 21.815 195.751 21.685 195.561 21.505C195.371 21.325 195.221 21.09 195.111 20.8C195.001 20.5 194.946 20.13 194.946 19.69V12.7H196.476V19.315C196.476 19.635 196.546 19.89 196.686 20.08C196.836 20.26 197.056 20.35 197.346 20.35H197.691C197.911 20.35 198.021 20.615 198.021 21.145C198.021 21.715 197.911 22 197.691 22H197.031ZM199.072 20.35C199.742 20.35 200.077 20.025 200.077 19.375V17.605H201.607V19.48C201.607 20.31 201.397 20.94 200.977 21.37C200.557 21.79 199.967 22 199.207 22H197.692C197.562 22 197.477 21.935 197.437 21.805C197.387 21.665 197.362 21.465 197.362 21.205C197.362 20.915 197.387 20.7 197.437 20.56C197.477 20.42 197.562 20.35 197.692 20.35H199.072ZM201.142 15.85H199.447V14.32H201.142V15.85ZM205.454 22C205.174 22 204.904 21.965 204.644 21.895C204.394 21.815 204.174 21.685 203.984 21.505C203.794 21.325 203.644 21.09 203.534 20.8C203.424 20.5 203.369 20.13 203.369 19.69V12.7H204.899V19.315C204.899 19.635 204.969 19.89 205.109 20.08C205.259 20.26 205.479 20.35 205.769 20.35H206.114C206.334 20.35 206.444 20.615 206.444 21.145C206.444 21.715 206.334 22 206.114 22H205.454ZM209.835 20.35C210.105 20.35 210.29 20.295 210.39 20.185C210.5 20.075 210.555 19.94 210.555 19.78C210.555 19.63 210.525 19.485 210.465 19.345C210.415 19.195 210.3 19.035 210.12 18.865L207.285 16.03V14.32L212.25 12.445L212.595 13.975L208.77 15.385L210.975 17.62C211.225 17.87 211.43 18.1 211.59 18.31C211.75 18.51 211.875 18.705 211.965 18.895C212.055 19.075 212.115 19.26 212.145 19.45C212.185 19.63 212.205 19.82 212.205 20.02C212.205 20.37 212.145 20.67 212.025 20.92C211.915 21.17 211.76 21.375 211.56 21.535C211.37 21.695 211.14 21.815 210.87 21.895C210.61 21.965 210.325 22 210.015 22H206.115C205.985 22 205.9 21.935 205.86 21.805C205.81 21.665 205.785 21.465 205.785 21.205C205.785 20.915 205.81 20.7 205.86 20.56C205.9 20.42 205.985 20.35 206.115 20.35H209.835Z" fill="white"/>
<path opacity="0.12" d="M84.7162 73.52C85.4842 73.52 86.1802 73.816 86.8042 74.408L87.2122 73.688H89.8282L89.0602 78.056C88.8682 79.208 88.7722 80.088 88.7722 80.696C88.7722 81.288 88.8602 81.736 89.0362 82.04C89.2282 82.328 89.5962 82.472 90.1402 82.472C90.8602 82.472 91.5322 82.008 92.1562 81.08C92.7962 80.136 93.1162 78.88 93.1162 77.312C93.1162 74.976 92.4362 73.144 91.0762 71.816C89.7162 70.472 87.8202 69.8 85.3882 69.8C82.9722 69.8 80.9162 70.616 79.2202 72.248C77.5242 73.88 76.6762 76.072 76.6762 78.824C76.6762 80.232 76.9242 81.472 77.4202 82.544C77.9322 83.6 78.6122 84.432 79.4602 85.04C81.1402 86.224 83.1002 86.816 85.3402 86.816C87.5802 86.816 89.4842 86.152 91.0522 84.824L91.4362 85.256C90.7322 85.912 89.8282 86.432 88.7242 86.816C87.6362 87.2 86.5002 87.392 85.3162 87.392C84.1322 87.392 82.9802 87.224 81.8602 86.888C80.7562 86.552 79.7562 86.048 78.8602 85.376C77.9802 84.704 77.2842 83.816 76.7722 82.712C76.2602 81.608 76.0042 80.344 76.0042 78.92C76.0042 76.12 76.8842 73.816 78.6442 72.008C80.4202 70.184 82.7162 69.272 85.5322 69.272C87.9802 69.272 89.9562 69.968 91.4602 71.36C92.9802 72.736 93.7402 74.664 93.7402 77.144C93.7402 79.144 93.3162 80.648 92.4682 81.656C91.6362 82.664 90.4202 83.168 88.8202 83.168C87.2362 83.168 86.2202 82.592 85.7722 81.44C85.3562 82.56 84.5802 83.12 83.4442 83.12C82.3082 83.12 81.4362 82.768 80.8282 82.064C80.2202 81.36 79.9162 80.496 79.9162 79.472C79.9162 77.536 80.4122 76.064 81.4042 75.056C82.3962 74.032 83.5002 73.52 84.7162 73.52ZM85.8682 79.88L86.6842 74.744C86.2202 74.264 85.7242 74.024 85.1962 74.024C84.6682 74.024 84.2282 74.272 83.8762 74.768C83.5402 75.264 83.2922 75.896 83.1322 76.664C82.8442 78.04 82.7002 79.376 82.7002 80.672C82.7002 81.968 83.1082 82.616 83.9242 82.616C84.3882 82.616 84.7962 82.36 85.1482 81.848C85.5002 81.336 85.7402 80.68 85.8682 79.88ZM101.418 77.36H102.114V75.512C102.114 73.992 102.026 72.976 101.85 72.464C101.69 71.936 101.37 71.672 100.89 71.672C100.602 71.672 100.338 71.752 100.098 71.912C99.874 72.056 99.762 72.264 99.762 72.536C99.762 72.792 99.81 73.056 99.906 73.328H100.506C100.634 73.664 100.698 74.072 100.698 74.552C100.698 75.016 100.498 75.424 100.098 75.776C99.698 76.112 99.194 76.28 98.586 76.28C97.21 76.28 96.522 75.616 96.522 74.288C96.522 72.32 98.194 71.336 101.538 71.336C103.442 71.336 104.754 71.664 105.474 72.32C106.21 72.96 106.578 74.144 106.578 75.872V80.744C106.578 81.576 106.81 81.992 107.274 81.992C107.818 81.992 108.138 81.168 108.234 79.52L108.594 79.544C108.53 80.952 108.266 81.92 107.802 82.448C107.338 82.976 106.578 83.24 105.522 83.24C103.602 83.24 102.498 82.648 102.21 81.464C102.002 82.072 101.69 82.52 101.274 82.808C100.858 83.096 100.25 83.24 99.45 83.24C97.082 83.24 95.898 82.272 95.898 80.336C95.898 79.2 96.346 78.424 97.242 78.008C98.154 77.576 99.546 77.36 101.418 77.36ZM100.458 80.312C100.458 81.144 100.498 81.68 100.578 81.92C100.674 82.16 100.842 82.28 101.082 82.28C101.338 82.28 101.57 82.08 101.778 81.68C102.002 81.264 102.114 80.696 102.114 79.976V77.744H101.946C100.954 77.744 100.458 78.472 100.458 79.928V80.312ZM107.16 72.008V71.576H114.336V72.008H112.824L115.704 79.976L118.296 72.008H116.688V71.576H119.928V72.008H118.872L115.32 83H112.584L108.144 72.008H107.16ZM125.207 77.36H125.903V75.512C125.903 73.992 125.815 72.976 125.639 72.464C125.479 71.936 125.159 71.672 124.679 71.672C124.391 71.672 124.127 71.752 123.887 71.912C123.663 72.056 123.551 72.264 123.551 72.536C123.551 72.792 123.599 73.056 123.695 73.328H124.295C124.423 73.664 124.487 74.072 124.487 74.552C124.487 75.016 124.287 75.424 123.887 75.776C123.487 76.112 122.983 76.28 122.375 76.28C120.999 76.28 120.311 75.616 120.311 74.288C120.311 72.32 121.983 71.336 125.327 71.336C127.231 71.336 128.543 71.664 129.263 72.32C129.999 72.96 130.367 74.144 130.367 75.872V80.744C130.367 81.576 130.599 81.992 131.063 81.992C131.607 81.992 131.927 81.168 132.023 79.52L132.383 79.544C132.319 80.952 132.055 81.92 131.591 82.448C131.127 82.976 130.367 83.24 129.311 83.24C127.391 83.24 126.287 82.648 125.999 81.464C125.791 82.072 125.479 82.52 125.063 82.808C124.647 83.096 124.039 83.24 123.239 83.24C120.871 83.24 119.687 82.272 119.687 80.336C119.687 79.2 120.135 78.424 121.031 78.008C121.943 77.576 123.335 77.36 125.207 77.36ZM124.247 80.312C124.247 81.144 124.287 81.68 124.367 81.92C124.463 82.16 124.631 82.28 124.871 82.28C125.127 82.28 125.359 82.08 125.567 81.68C125.791 81.264 125.903 80.696 125.903 79.976V77.744H125.735C124.743 77.744 124.247 78.472 124.247 79.928V80.312ZM132.523 65H138.403V82.568H139.747V83H132.619V82.568H133.939V65.432H132.523V65ZM146.933 71.768C146.229 71.768 145.725 72.152 145.421 72.92C145.117 73.688 144.965 74.96 144.965 76.736V77.984C144.965 79.568 145.141 80.704 145.493 81.392C145.845 82.08 146.493 82.424 147.437 82.424C148.381 82.424 149.133 82.104 149.693 81.464C150.253 80.824 150.613 80.096 150.773 79.28L151.205 79.328C150.901 80.704 150.341 81.696 149.525 82.304C148.693 82.928 147.549 83.24 146.093 83.24C144.237 83.24 142.813 82.744 141.821 81.752C140.829 80.744 140.333 79.28 140.333 77.36C140.333 75.424 140.893 73.936 142.013 72.896C143.149 71.856 144.725 71.336 146.741 71.336C148.165 71.336 149.253 71.616 150.005 72.176C150.757 72.72 151.133 73.408 151.133 74.24C151.133 75.072 150.949 75.68 150.581 76.064C150.229 76.448 149.733 76.64 149.093 76.64C148.469 76.64 147.965 76.472 147.581 76.136C147.197 75.8 147.005 75.304 147.005 74.648C147.005 74.36 147.045 74.072 147.125 73.784H147.917C148.029 73.464 148.085 73.176 148.085 72.92C148.085 72.152 147.701 71.768 146.933 71.768ZM157.574 77.36H158.27V75.512C158.27 73.992 158.182 72.976 158.006 72.464C157.846 71.936 157.526 71.672 157.046 71.672C156.758 71.672 156.494 71.752 156.254 71.912C156.03 72.056 155.918 72.264 155.918 72.536C155.918 72.792 155.966 73.056 156.062 73.328H156.662C156.79 73.664 156.854 74.072 156.854 74.552C156.854 75.016 156.654 75.424 156.254 75.776C155.854 76.112 155.35 76.28 154.742 76.28C153.366 76.28 152.678 75.616 152.678 74.288C152.678 72.32 154.35 71.336 157.694 71.336C159.598 71.336 160.91 71.664 161.63 72.32C162.366 72.96 162.734 74.144 162.734 75.872V80.744C162.734 81.576 162.966 81.992 163.43 81.992C163.974 81.992 164.294 81.168 164.39 79.52L164.75 79.544C164.686 80.952 164.422 81.92 163.958 82.448C163.494 82.976 162.734 83.24 161.678 83.24C159.758 83.24 158.654 82.648 158.366 81.464C158.158 82.072 157.846 82.52 157.43 82.808C157.014 83.096 156.406 83.24 155.606 83.24C153.238 83.24 152.054 82.272 152.054 80.336C152.054 79.2 152.502 78.424 153.398 78.008C154.31 77.576 155.702 77.36 157.574 77.36ZM156.614 80.312C156.614 81.144 156.654 81.68 156.734 81.92C156.83 82.16 156.998 82.28 157.238 82.28C157.494 82.28 157.726 82.08 157.934 81.68C158.158 81.264 158.27 80.696 158.27 79.976V77.744H158.102C157.11 77.744 156.614 78.472 156.614 79.928V80.312ZM173.002 72.248C172.41 72.248 171.89 72.632 171.442 73.4C170.994 74.168 170.77 75.08 170.77 76.136V82.568H172.474V83H164.986V82.568H166.306V72.008H164.986V71.576H170.77V73.88C170.978 73.064 171.378 72.44 171.97 72.008C172.562 71.56 173.234 71.336 173.986 71.336C174.738 71.336 175.346 71.552 175.81 71.984C176.29 72.4 176.53 73 176.53 73.784C176.53 74.552 176.354 75.144 176.002 75.56C175.65 75.976 175.106 76.184 174.37 76.184C173.65 76.184 173.114 75.944 172.762 75.464C172.426 74.984 172.386 74.32 172.642 73.472H173.506C173.906 72.656 173.738 72.248 173.002 72.248ZM181.741 78.032C181.741 79.712 181.829 80.832 182.005 81.392C182.181 81.936 182.501 82.208 182.965 82.208C183.445 82.208 183.853 82 184.189 81.584C184.541 81.168 184.717 80.552 184.717 79.736V74.504C184.717 73.816 184.581 73.232 184.309 72.752C184.037 72.272 183.637 72.032 183.109 72.032C182.581 72.032 182.221 72.384 182.029 73.088C181.837 73.792 181.741 75.024 181.741 76.784V78.032ZM185.029 83L184.765 81.32C184.221 82.6 183.117 83.24 181.453 83.24C180.077 83.24 179.005 82.744 178.237 81.752C177.485 80.76 177.109 79.28 177.109 77.312C177.109 73.328 178.693 71.336 181.861 71.336C183.269 71.336 184.197 71.728 184.645 72.512V65.432H183.181V65H189.181V82.568H190.357V83H185.029ZM197.698 71.768C196.994 71.768 196.49 72.152 196.186 72.92C195.882 73.688 195.73 74.96 195.73 76.736V77.984C195.73 79.568 195.906 80.704 196.258 81.392C196.61 82.08 197.258 82.424 198.202 82.424C199.146 82.424 199.898 82.104 200.458 81.464C201.018 80.824 201.378 80.096 201.538 79.28L201.97 79.328C201.666 80.704 201.106 81.696 200.29 82.304C199.458 82.928 198.314 83.24 196.858 83.24C195.002 83.24 193.578 82.744 192.586 81.752C191.594 80.744 191.098 79.28 191.098 77.36C191.098 75.424 191.658 73.936 192.778 72.896C193.914 71.856 195.49 71.336 197.506 71.336C198.93 71.336 200.018 71.616 200.77 72.176C201.522 72.72 201.898 73.408 201.898 74.24C201.898 75.072 201.714 75.68 201.346 76.064C200.994 76.448 200.498 76.64 199.858 76.64C199.234 76.64 198.73 76.472 198.346 76.136C197.962 75.8 197.77 75.304 197.77 74.648C197.77 74.36 197.81 74.072 197.89 73.784H198.682C198.794 73.464 198.85 73.176 198.85 72.92C198.85 72.152 198.466 71.768 197.698 71.768ZM210.332 78.272V76.232C210.332 74.68 210.244 73.552 210.068 72.848C209.908 72.128 209.524 71.768 208.916 71.768C208.564 71.768 208.276 71.872 208.052 72.08C207.844 72.272 207.692 72.6 207.596 73.064C207.452 73.784 207.38 74.88 207.38 76.352V78.224C207.38 79.968 207.428 81.016 207.524 81.368C207.636 81.72 207.748 82.008 207.86 82.232C208.036 82.616 208.38 82.808 208.892 82.808C209.516 82.808 209.924 82.448 210.116 81.728C210.26 81.216 210.332 80.064 210.332 78.272ZM208.844 83.24C206.844 83.24 205.332 82.728 204.308 81.704C203.284 80.68 202.772 79.216 202.772 77.312C202.772 75.392 203.316 73.92 204.404 72.896C205.508 71.856 207.052 71.336 209.036 71.336C211.02 71.336 212.5 71.816 213.476 72.776C214.452 73.72 214.94 75.168 214.94 77.12C214.94 81.2 212.908 83.24 208.844 83.24ZM215.611 71.576H221.395V73.784C221.923 72.152 223.083 71.336 224.875 71.336C226.683 71.336 227.779 72.2 228.163 73.928C228.723 72.2 229.899 71.336 231.691 71.336C234.043 71.336 235.219 72.672 235.219 75.344V82.568H236.563V83H229.915V82.568H230.755V74.768C230.755 73.552 230.651 72.84 230.443 72.632C230.347 72.536 230.219 72.488 230.059 72.488C229.595 72.488 229.187 72.8 228.835 73.424C228.483 74.048 228.307 74.84 228.307 75.8V82.568H229.171V83H223.003V82.568H223.843V74.768C223.843 73.552 223.739 72.84 223.531 72.632C223.435 72.536 223.307 72.488 223.147 72.488C222.699 72.488 222.291 72.832 221.923 73.52C221.571 74.192 221.395 75 221.395 75.944V82.568H222.259V83H215.611V82.568H216.931V72.008H215.611V71.576Z" fill="white"/>
<g clip-path="url(#clip0_732_1181)">
<path d="M161.25 45.5L154.25 52.5L164.75 63L171.75 35L140.25 47.25L147.25 50.75L150.75 61.25L156 54.25" stroke="white" stroke-width="3.5" stroke-linecap="round" stroke-linejoin="round"/>
</g>
<defs>
<linearGradient id="paint0_linear_732_1181" x1="310" y1="93" x2="175.591" y2="-23.7126" gradientUnits="userSpaceOnUse">
<stop stop-color="#27ACED"/>
<stop offset="1" stop-color="#219DDA"/>
</linearGradient>
<clipPath id="clip0_732_1181">
<rect width="42" height="42" fill="white" transform="translate(135 28)"/>
</clipPath>
</defs>
</svg>
