<svg width="363" height="391" viewBox="0 0 363 391" fill="none" xmlns="http://www.w3.org/2000/svg">
<g style="mix-blend-mode:plus-lighter" opacity="0.15">
<path fill-rule="evenodd" clip-rule="evenodd" d="M267.795 308.76L267.795 390.538L186.017 390.538L186.017 381.776C186.017 341.45 218.707 308.76 259.033 308.76L267.795 308.76Z" fill="#A3A3A3" fill-opacity="0.2"/>
<path fill-rule="evenodd" clip-rule="evenodd" d="M267.795 300.781L267.795 219.003L186.017 219.003L186.017 227.765C186.017 268.091 218.707 300.781 259.033 300.781L267.795 300.781Z" fill="#A3A3A3" fill-opacity="0.2"/>
<path fill-rule="evenodd" clip-rule="evenodd" d="M186.017 207.035L186.017 126.254L267.795 126.254L267.795 134.909C267.795 174.743 235.104 207.035 194.779 207.035L186.017 207.035Z" fill="#A3A3A3" fill-opacity="0.2"/>
<path fill-rule="evenodd" clip-rule="evenodd" d="M186.017 34.5027L186.017 116.281L267.795 116.281L267.795 107.519C267.795 67.1933 235.104 34.5027 194.779 34.5027L186.017 34.5027Z" fill="#A3A3A3" fill-opacity="0.2"/>
<path fill-rule="evenodd" clip-rule="evenodd" d="M362.538 34.5027L362.538 116.281L280.76 116.281L280.76 107.519C280.76 67.1933 313.45 34.5027 353.776 34.5027L362.538 34.5027Z" fill="#A3A3A3" fill-opacity="0.2"/>
<path fill-rule="evenodd" clip-rule="evenodd" d="M280.76 206.038L280.76 124.259L362.538 124.26L362.538 133.021C362.538 173.347 329.848 206.038 289.522 206.038L280.76 206.038Z" fill="#A3A3A3" fill-opacity="0.2"/>
<path fill-rule="evenodd" clip-rule="evenodd" d="M280.76 298.786L280.76 218.005L362.538 218.005L362.538 226.661C362.538 266.495 329.848 298.787 289.522 298.786L280.76 298.786Z" fill="#A3A3A3" fill-opacity="0.2"/>
<path d="M295.664 309.014C294.311 308.902 292.948 308.826 291.575 308.788L291.506 311.287C290.847 311.269 290.185 311.26 289.522 311.26L287.331 311.26L287.331 308.76L283.26 308.76L283.26 310.804L282.95 310.804L282.95 311.26L280.76 311.26L280.76 314.893L283.26 314.893L283.26 318.982L280.76 318.982L280.76 323.071L283.26 323.071L283.26 327.16L280.76 327.16L280.76 331.249L283.26 331.249L283.26 335.338L280.76 335.338L280.76 339.426L283.26 339.426L283.26 343.515L280.76 343.515L280.76 347.604L283.26 347.604L283.26 351.693L280.76 351.693L280.76 355.782L283.26 355.782L283.26 359.871L280.76 359.871L280.76 363.96L283.26 363.96L283.26 368.049L280.76 368.049L280.76 372.138L283.26 372.138L283.26 376.227L280.76 376.227L280.76 380.316L283.26 380.316L283.26 384.405L280.76 384.405L280.76 388.038L282.804 388.038L282.804 388.493L283.26 388.493L283.26 390.538L286.893 390.538L286.893 388.038L290.982 388.038L290.982 390.538L295.071 390.538L295.071 388.038L299.16 388.038L299.16 390.538L303.249 390.538L303.249 388.038L307.338 388.038L307.338 390.538L311.427 390.538L311.427 388.038L315.516 388.038L315.516 390.538L319.604 390.538L319.604 388.038L323.693 388.038L323.693 390.538L327.782 390.538L327.782 388.038L331.871 388.038L331.871 390.538L335.96 390.538L335.96 388.038L340.049 388.038L340.049 390.538L344.138 390.538L344.138 388.038L348.227 388.038L348.227 390.538L352.316 390.538L352.316 388.038L356.405 388.038L356.405 390.538L360.038 390.538L360.038 388.347L360.494 388.347L360.494 388.038L362.538 388.038L362.538 383.966L360.038 383.966L360.038 381.776C360.038 381.112 360.029 380.451 360.011 379.792L362.51 379.723C362.472 378.35 362.396 376.986 362.283 375.634L359.792 375.841C359.682 374.52 359.536 373.209 359.354 371.91L361.83 371.564C361.64 370.205 361.412 368.859 361.148 367.526L358.696 368.011C358.439 366.713 358.147 365.427 357.82 364.156L360.241 363.533C359.899 362.206 359.521 360.893 359.108 359.595L356.726 360.354C356.325 359.094 355.889 357.849 355.42 356.621L357.755 355.729C357.267 354.45 356.743 353.188 356.186 351.945L353.905 352.967C353.364 351.761 352.791 350.574 352.186 349.405L354.406 348.256C353.778 347.041 353.116 345.846 352.422 344.673L350.27 345.945C349.598 344.808 348.895 343.692 348.162 342.598L350.24 341.207C349.479 340.071 348.688 338.958 347.867 337.868L345.87 339.373C345.076 338.319 344.252 337.288 343.401 336.281L345.311 334.667C344.429 333.624 343.518 332.606 342.58 331.614L340.764 333.332C339.857 332.373 338.924 331.44 337.966 330.534L339.684 328.718C338.692 327.78 337.674 326.869 336.63 325.987L335.017 327.896C334.01 327.045 332.979 326.222 331.925 325.428L333.429 323.431C332.34 322.61 331.227 321.818 330.091 321.058L328.7 323.135C327.605 322.403 326.489 321.7 325.353 321.028L326.625 318.876C325.451 318.182 324.257 317.52 323.042 316.891L321.893 319.112C320.724 318.507 319.536 317.933 318.331 317.393L319.353 315.112C318.11 314.554 316.848 314.031 315.569 313.542L314.677 315.878C313.449 315.409 312.204 314.973 310.944 314.572L311.702 312.189C310.405 311.776 309.092 311.398 307.765 311.057L307.142 313.478C305.87 313.151 304.585 312.859 303.287 312.602L303.772 310.149C302.439 309.886 301.092 309.658 299.734 309.468L299.388 311.944C298.088 311.762 296.778 311.616 295.457 311.506L295.664 309.014Z" stroke="#A3A3A3" stroke-opacity="0.3" stroke-width="5" stroke-dasharray="4 4"/>
<path d="M60.412 125.511C61.7649 125.399 63.1282 125.323 64.5011 125.285L64.5701 127.784C65.2292 127.766 65.8907 127.757 66.5544 127.757L68.7449 127.757L68.7449 125.257L72.8164 125.257L72.8164 127.301L73.1259 127.301L73.1259 127.757L75.3164 127.757L75.3164 131.39L72.8164 131.39L72.8164 135.479L75.3164 135.479L75.3164 139.568L72.8164 139.568L72.8164 143.657L75.3164 143.657L75.3164 147.746L72.8164 147.746L72.8164 151.835L75.3164 151.835L75.3164 155.924L72.8164 155.924L72.8164 160.013L75.3164 160.013L75.3164 164.101L72.8164 164.101L72.8164 168.19L75.3164 168.19L75.3164 172.279L72.8164 172.279L72.8164 176.368L75.3164 176.368L75.3164 180.457L72.8164 180.457L72.8164 184.546L75.3164 184.546L75.3164 188.635L72.8164 188.635L72.8164 192.724L75.3164 192.724L75.3164 196.813L72.8164 196.813L72.8164 200.902L75.3164 200.902L75.3164 204.535L73.272 204.535L73.272 204.991L72.8164 204.991L72.8164 207.035L69.183 207.035L69.183 204.535L65.0941 204.535L65.0941 207.035L61.0052 207.035L61.0052 204.535L56.9163 204.535L56.9163 207.035L52.8274 207.035L52.8274 204.535L48.7384 204.535L48.7384 207.035L44.6495 207.035L44.6495 204.535L40.5606 204.535L40.5606 207.035L36.4717 207.035L36.4717 204.535L32.3828 204.535L32.3828 207.035L28.2938 207.035L28.2938 204.535L24.2049 204.535L24.2049 207.035L20.116 207.035L20.116 204.535L16.0271 204.535L16.0271 207.035L11.9382 207.035L11.9382 204.535L7.84925 204.535L7.84925 207.035L3.76033 207.035L3.76033 204.535L-0.328594 204.535L-0.328594 207.035L-3.96197 207.035L-3.96197 204.845L-4.41751 204.845L-4.41751 204.535L-6.46197 204.535L-6.46197 200.464L-3.96197 200.464L-3.96197 198.273C-3.96197 197.609 -3.95281 196.948 -3.9346 196.289L-6.43366 196.22C-6.39575 194.847 -6.31995 193.484 -6.20726 192.131L-3.71589 192.338C-3.60585 191.017 -3.45941 189.707 -3.27761 188.407L-5.75347 188.061C-5.56339 186.703 -5.33592 185.356 -5.07218 184.023L-2.61971 184.508C-2.36286 183.21 -2.07039 181.925 -1.74335 180.653L-4.16454 180.03C-3.82307 178.703 -3.44522 177.39 -3.03208 176.093L-0.649966 176.851C-0.248621 175.591 0.1872 174.346 0.6564 173.118L-1.67903 172.226C-1.19053 170.947 -0.667109 169.685 -0.109926 168.442L2.17144 169.464C2.71178 168.259 3.28502 167.071 3.89004 165.902L1.66987 164.753C2.29863 163.538 2.96049 162.344 3.65426 161.17L5.80636 162.442C6.47825 161.306 7.18117 160.189 7.91394 159.095L5.83652 157.704C6.59692 156.568 7.38835 155.455 8.20959 154.365L10.206 155.87C11.0004 154.816 11.8238 153.785 12.6749 152.778L10.7656 151.164C11.6474 150.121 12.558 149.103 13.4961 148.111L15.3124 149.829C16.2188 148.871 17.1518 147.938 18.1102 147.031L16.3924 145.215C17.3843 144.277 18.4025 143.366 19.4457 142.484L21.0596 144.394C22.0665 143.543 23.0975 142.719 24.1515 141.925L22.6467 139.928C23.7363 139.107 24.8496 138.316 25.9854 137.555L27.3762 139.633C28.4707 138.9 29.5869 138.197 30.7235 137.525L29.4513 135.373C30.6249 134.679 31.8196 134.017 33.0342 133.389L34.1835 135.609C35.3522 135.004 36.54 134.43 37.7456 133.89L36.7232 131.609C37.9664 131.052 39.2281 130.528 40.507 130.04L41.3991 132.375C42.6274 131.906 43.8723 131.47 45.1325 131.069L44.3739 128.687C45.6711 128.274 46.9841 127.896 48.3116 127.554L48.9344 129.975C50.2059 129.648 51.4913 129.356 52.7896 129.099L52.3044 126.647C53.6376 126.383 54.9839 126.155 56.3422 125.965L56.6887 128.441C57.9878 128.259 59.2984 128.113 60.6195 128.003L60.412 125.511Z" stroke="#A3A3A3" stroke-opacity="0.3" stroke-width="5" stroke-dasharray="4 4"/>
<path fill-rule="evenodd" clip-rule="evenodd" d="M75.3164 117.278L75.3164 35.5L-6.46196 35.5L-6.46196 44.262C-6.46197 84.5879 26.2286 117.278 66.5544 117.278L75.3164 117.278Z" fill="#A3A3A3" fill-opacity="0.2"/>
<path fill-rule="evenodd" clip-rule="evenodd" d="M-6.46191 23.5324L-6.46191 -57.2486L75.3165 -57.2486L75.3165 -48.5935C75.3165 -8.75945 42.6259 23.5324 2.30005 23.5324L-6.46191 23.5324Z" fill="#A3A3A3" fill-opacity="0.2"/>
<path fill-rule="evenodd" clip-rule="evenodd" d="M88.2812 22.5352L88.2813 -59.2432L170.06 -59.2432L170.06 -50.4812C170.06 -10.1554 137.369 22.5352 97.0432 22.5352L88.2812 22.5352Z" fill="#A3A3A3" fill-opacity="0.2"/>
<path d="M8.4425 388.288C7.08962 388.401 5.72626 388.477 4.35343 388.515L4.28442 386.016C3.62525 386.034 2.96376 386.043 2.30005 386.043L0.109563 386.043L0.109562 388.543L-3.96191 388.543L-3.96191 386.499L-4.27142 386.499L-4.27142 386.043L-6.46191 386.043L-6.46191 382.41L-3.96191 382.41L-3.96191 378.321L-6.46191 378.321L-6.46191 374.232L-3.96191 374.232L-3.96191 370.143L-6.46191 370.143L-6.46191 366.054L-3.96191 366.054L-3.96191 361.965L-6.46191 361.965L-6.46191 357.876L-3.96191 357.876L-3.96191 353.787L-6.46191 353.787L-6.46191 349.698L-3.96191 349.698L-3.96191 345.61L-6.46191 345.61L-6.46191 341.521L-3.96191 341.521L-3.96191 337.432L-6.46191 337.432L-6.46191 333.343L-3.96191 333.343L-3.96191 329.254L-6.46191 329.254L-6.46191 325.165L-3.96191 325.165L-3.96191 321.076L-6.46191 321.076L-6.46191 316.987L-3.96191 316.987L-3.96191 312.898L-6.46191 312.898L-6.46191 309.265L-4.41747 309.265L-4.41747 308.809L-3.96191 308.809L-3.96191 306.765L-0.328548 306.765L-0.328548 309.265L3.76037 309.265L3.76037 306.765L7.84929 306.765L7.84929 309.265L11.9382 309.265L11.9382 306.765L16.0271 306.765L16.0271 309.265L20.1161 309.265L20.1161 306.765L24.205 306.765L24.205 309.265L28.2939 309.265L28.2939 306.765L32.3828 306.765L32.3828 309.265L36.4717 309.265L36.4717 306.765L40.5607 306.765L40.5607 309.265L44.6496 309.265L44.6496 306.765L48.7385 306.765L48.7385 309.265L52.8274 309.265L52.8274 306.765L56.9163 306.765L56.9163 309.265L61.0052 309.265L61.0052 306.765L65.0942 306.765L65.0942 309.265L69.1831 309.265L69.1831 306.765L72.8165 306.765L72.8165 308.955L73.272 308.955L73.272 309.265L75.3165 309.265L75.3165 313.336L72.8165 313.336L72.8165 315.527C72.8165 316.19 72.8073 316.852 72.7891 317.511L75.2882 317.58C75.2502 318.953 75.1744 320.316 75.0618 321.669L72.5704 321.462C72.4603 322.783 72.3139 324.093 72.1321 325.393L74.608 325.739C74.4179 327.097 74.1904 328.444 73.9267 329.777L71.4742 329.292C71.2174 330.59 70.9249 331.875 70.5978 333.147L73.019 333.77C72.6776 335.097 72.2997 336.41 71.8866 337.707L69.5045 336.949C69.1031 338.209 68.6673 339.454 68.1981 340.682L70.5335 341.574C70.045 342.853 69.5216 344.115 68.9644 345.358L66.6831 344.336C66.1427 345.541 65.5695 346.729 64.9645 347.898L67.1846 349.047C66.5559 350.262 65.894 351.456 65.2002 352.63L63.0481 351.358C62.3762 352.494 61.6733 353.61 60.9406 354.705L63.018 356.096C62.2576 357.232 61.4661 358.345 60.6449 359.434L58.6485 357.93C57.854 358.984 57.0307 360.015 56.1796 361.022L58.0889 362.635C57.2071 363.679 56.2965 364.697 55.3584 365.689L53.5421 363.971C52.6357 364.929 51.7027 365.862 50.7443 366.769L52.4621 368.585C51.4702 369.523 50.452 370.434 49.4088 371.316L47.7949 369.406C46.788 370.257 45.757 371.081 44.703 371.875L46.2078 373.872C45.1182 374.693 44.0049 375.484 42.8691 376.245L41.4783 374.167C40.3838 374.9 39.2676 375.603 38.131 376.275L39.4032 378.427C38.2296 379.121 37.0349 379.783 35.8203 380.411L34.671 378.191C33.5023 378.796 32.3145 379.369 31.1089 379.91L32.1313 382.191C30.8881 382.748 29.6264 383.272 28.3475 383.76L27.4554 381.425C26.2271 381.894 24.9822 382.33 23.722 382.731L24.4806 385.113C23.1834 385.526 21.8704 385.904 20.5429 386.246L19.9201 383.825C18.6486 384.152 17.3632 384.444 16.0649 384.701L16.5501 387.153C15.2169 387.417 13.8706 387.645 12.5123 387.835L12.1658 385.359C10.8667 385.541 9.55611 385.687 8.23499 385.797L8.4425 388.288Z" stroke="#A3A3A3" stroke-opacity="0.3" stroke-width="5" stroke-dasharray="4 4"/>
<path fill-rule="evenodd" clip-rule="evenodd" d="M-6.46191 216.011L-6.46192 296.792L75.3165 296.792L75.3165 288.137C75.3165 248.303 42.6259 216.011 2.30005 216.011L-6.46191 216.011Z" fill="#A3A3A3" fill-opacity="0.2"/>
<path fill-rule="evenodd" clip-rule="evenodd" d="M170.06 216.011L170.06 296.792L88.2812 296.792L88.2812 288.137C88.2812 248.303 120.972 216.011 161.298 216.011L170.06 216.011Z" fill="#A3A3A3" fill-opacity="0.2"/>
<path fill-rule="evenodd" clip-rule="evenodd" d="M88.2812 386.549L88.2813 305.768L170.06 305.768L170.06 314.423C170.06 354.257 137.369 386.549 97.0432 386.549L88.2812 386.549Z" fill="#A3A3A3" fill-opacity="0.2"/>
<path d="M103.149 115.035C101.804 115.145 100.449 115.219 99.0841 115.256L99.0164 112.757C98.3609 112.775 97.7032 112.784 97.0432 112.784L94.8527 112.784L94.8527 115.284L90.7812 115.284L90.7813 113.264L90.4717 113.264L90.4717 112.784L88.2813 112.784L88.2813 109.225L90.7813 109.225L90.7813 105.186L88.2813 105.186L88.2813 101.147L90.7813 101.147L90.7813 97.1081L88.2813 97.1081L88.2813 93.069L90.7813 93.069L90.7813 89.03L88.2813 89.03L88.2813 84.9909L90.7813 84.9909L90.7813 80.9519L88.2813 80.9519L88.2813 76.9128L90.7813 76.9128L90.7813 72.8737L88.2813 72.8737L88.2813 68.8347L90.7813 68.8347L90.7813 64.7956L88.2813 64.7956L88.2813 60.7566L90.7813 60.7566L90.7813 56.7175L88.2813 56.7175L88.2813 52.6785L90.7813 52.6785L90.7813 48.6394L88.2813 48.6394L88.2813 44.6004L90.7813 44.6004L90.7813 40.5613L88.2813 40.5613L88.2813 37.0027L90.3257 37.0027L90.3257 36.5223L90.7813 36.5223L90.7813 34.5027L94.4146 34.5027L94.4146 37.0027L98.5035 37.0027L98.5035 34.5027L102.592 34.5027L102.592 37.0027L106.681 37.0027L106.681 34.5027L110.77 34.5027L110.77 37.0027L114.859 37.0027L114.859 34.5027L118.948 34.5027L118.948 37.0027L123.037 37.0027L123.037 34.5027L127.126 34.5027L127.126 37.0027L131.215 37.0027L131.215 34.5027L135.304 34.5027L135.304 37.0027L139.393 37.0027L139.393 34.5027L143.482 34.5027L143.482 37.0027L147.571 37.0027L147.571 34.5027L151.659 34.5027L151.659 37.0027L155.748 37.0027L155.748 34.5027L159.837 34.5027L159.837 37.0027L163.926 37.0027L163.926 34.5027L167.56 34.5027L167.56 36.6665L168.015 36.6665L168.015 37.0027L170.06 37.0027L170.06 40.9941L167.56 40.9941L167.56 43.1578C167.56 43.8169 167.55 44.4738 167.532 45.1284L170.031 45.1987C169.993 46.5631 169.916 47.9181 169.802 49.2625L167.311 49.0512C167.199 50.3629 167.051 51.664 166.867 52.9537L169.342 53.3066C169.15 54.6559 168.92 55.9933 168.653 57.3175L166.202 56.8237C165.943 58.1121 165.647 59.3876 165.316 60.6493L167.735 61.2829C167.39 62.6006 167.008 63.9036 166.59 65.1909L164.212 64.4195C163.807 65.6686 163.367 66.9023 162.893 68.1197L165.223 69.0262C164.73 70.2939 164.201 71.5444 163.639 72.7765L161.365 71.7383C160.82 72.9317 160.242 74.1074 159.632 75.264L161.843 76.4301C161.209 77.6322 160.542 78.8144 159.843 79.9756L157.701 78.686C157.025 79.8093 156.318 80.9123 155.58 81.9938L157.646 83.4022C156.88 84.5243 156.084 85.624 155.258 86.7L153.275 85.1776C152.477 86.2174 151.65 87.2344 150.795 88.2274L152.689 89.8585C151.804 90.887 150.89 91.8907 149.948 92.8683L148.147 91.1339C147.238 92.0776 146.303 92.9962 145.342 93.8885L147.043 95.7205C146.049 96.6435 145.029 97.5393 143.983 98.4066L142.387 96.4828C141.379 97.3193 140.347 98.1285 139.292 98.9091L140.779 100.919C139.69 101.725 138.576 102.502 137.441 103.248L136.068 101.159C134.974 101.878 133.859 102.568 132.723 103.227L133.978 105.389C132.807 106.069 131.614 106.717 130.402 107.333L129.269 105.105C128.103 105.697 126.919 106.259 125.716 106.788L126.723 109.076C125.484 109.621 124.226 110.134 122.952 110.611L122.074 108.271C120.85 108.73 119.61 109.156 118.355 109.548L119.101 111.934C117.81 112.338 116.503 112.707 115.182 113.041L114.57 110.617C113.305 110.936 112.025 111.222 110.733 111.473L111.21 113.927C109.884 114.185 108.545 114.407 107.195 114.592L106.854 112.116C105.562 112.293 104.259 112.436 102.945 112.544L103.149 115.035Z" stroke="#A3A3A3" stroke-opacity="0.3" stroke-width="5" stroke-dasharray="4 4"/>
<path fill-rule="evenodd" clip-rule="evenodd" d="M88.2812 125.257L88.2812 207.035L170.06 207.035L170.06 198.273C170.06 157.947 137.369 125.257 97.0432 125.257L88.2812 125.257Z" fill="#A3A3A3" fill-opacity="0.2"/>
</g>
</svg>
