<svg width="349" height="369" viewBox="0 0 349 369" fill="none" xmlns="http://www.w3.org/2000/svg">
<g style="mix-blend-mode:plus-lighter" opacity="0.15">
<path fill-rule="evenodd" clip-rule="evenodd" d="M266.76 94.7433L348.538 94.7433V176.522H339.776C299.45 176.522 266.76 143.831 266.76 103.505V94.7433Z" fill="#A3A3A3" fill-opacity="0.2"/>
<path fill-rule="evenodd" clip-rule="evenodd" d="M258.781 94.7433L177.003 94.7433V176.522H185.765C226.091 176.522 258.781 143.831 258.781 103.505V94.7433Z" fill="#A3A3A3" fill-opacity="0.2"/>
<path fill-rule="evenodd" clip-rule="evenodd" d="M165.035 176.522H84.2541L84.2541 94.7433H92.9092C132.743 94.7433 165.035 127.434 165.035 167.76V176.522Z" fill="#A3A3A3" fill-opacity="0.2"/>
<path fill-rule="evenodd" clip-rule="evenodd" d="M-7.49707 176.522H74.2813L74.2813 94.7433H65.5193C25.1935 94.7433 -7.49707 127.434 -7.49707 167.76L-7.49707 176.522Z" fill="#A3A3A3" fill-opacity="0.2"/>
<path fill-rule="evenodd" clip-rule="evenodd" d="M-7.49707 3.05176e-05L74.2813 3.05176e-05L74.2813 81.7784H65.5193C25.1935 81.7784 -7.49707 49.0878 -7.49707 8.762L-7.49707 3.05176e-05Z" fill="#A3A3A3" fill-opacity="0.2"/>
<path fill-rule="evenodd" clip-rule="evenodd" d="M164.038 81.7784L82.2597 81.7784L82.2597 7.62939e-06H91.0217C131.348 7.62939e-06 164.038 32.6906 164.038 73.0164V81.7784Z" fill="#A3A3A3" fill-opacity="0.2"/>
<path fill-rule="evenodd" clip-rule="evenodd" d="M256.787 81.7784L176.006 81.7784V7.62939e-06H184.661C224.495 7.62939e-06 256.787 32.6906 256.787 73.0164V81.7784Z" fill="#A3A3A3" fill-opacity="0.2"/>
<path d="M267.014 66.874C266.902 68.2268 266.826 69.5902 266.788 70.963L269.287 71.032C269.269 71.6912 269.26 72.3527 269.26 73.0164V75.2069H266.76V79.2784H268.804V79.5879H269.26V81.7784H272.893V79.2784H276.982V81.7784H281.071V79.2784H285.16V81.7784H289.249V79.2784H293.338V81.7784H297.427V79.2784H301.516V81.7784H305.604V79.2784H309.693V81.7784H313.782V79.2784H317.871V81.7784H321.96V79.2784H326.049V81.7784H330.138V79.2784H334.227V81.7784H338.316V79.2784H342.405V81.7784H346.038V79.7339H346.494V79.2784H348.538V75.645H346.038V71.5561H348.538V67.4672H346.038V63.3783H348.538V59.2893H346.038V55.2004H348.538V51.1115H346.038V47.0226H348.538V42.9337H346.038V38.8447H348.538V34.7558H346.038V30.6669H348.538V26.578H346.038V22.4891H348.538V18.4001H346.038V14.3112H348.538V10.2223H346.038V6.13338H348.538V2.50001H346.348V2.04446H346.038V7.62939e-06H341.967V2.50001H339.776C339.112 2.50001 338.451 2.50917 337.792 2.52737L337.723 0.0283203C336.35 0.0662308 334.987 0.142029 333.634 0.254715L333.841 2.74609C332.52 2.85612 331.21 3.00256 329.91 3.18438L329.564 0.708504C328.206 0.89859 326.859 1.12605 325.526 1.3898L326.011 3.84227C324.713 4.09911 323.428 4.39159 322.156 4.71863L321.533 2.29744C320.206 2.6389 318.893 3.01676 317.596 3.42989L318.354 5.81201C317.094 6.21336 315.849 6.64918 314.621 7.11838L313.729 4.78295C312.45 5.27145 311.188 5.79488 309.945 6.35206L310.967 8.63342C309.762 9.17376 308.574 9.74701 307.405 10.352L306.256 8.13185C305.041 8.7606 303.847 9.42247 302.673 10.1162L303.945 12.2683C302.809 12.9402 301.692 13.6431 300.598 14.3759L299.207 12.2985C298.071 13.0589 296.958 13.8503 295.868 14.6716L297.373 16.668C296.319 17.4624 295.288 18.2858 294.281 19.1369L292.667 17.2276C291.624 18.1094 290.606 19.02 289.614 19.958L291.332 21.7744C290.374 22.6808 289.441 23.6138 288.534 24.5722L286.718 22.8544C285.78 23.8463 284.869 24.8644 283.987 25.9077L285.897 27.5216C285.046 28.5284 284.222 29.5595 283.428 30.6135L281.431 29.1087C280.61 30.1983 279.819 31.3115 279.058 32.4474L281.136 33.8382C280.403 34.9327 279.7 36.0488 279.028 37.1854L276.876 35.9132C276.182 37.0868 275.52 38.2815 274.892 39.4961L277.112 40.6454C276.507 41.8142 275.934 43.0019 275.393 44.2076L273.112 43.1852C272.555 44.4284 272.031 45.6901 271.543 46.969L273.878 47.861C273.409 49.0894 272.973 50.3343 272.572 51.5945L270.19 50.8358C269.777 52.1331 269.399 53.446 269.057 54.7736L271.478 55.3963C271.151 56.6678 270.859 57.9533 270.602 59.2516L268.15 58.7664C267.886 60.0996 267.658 61.4459 267.468 62.8041L269.944 63.1506C269.762 64.4497 269.616 65.7604 269.506 67.0815L267.014 66.874Z" stroke="#A3A3A3" stroke-opacity="0.3" stroke-width="5" stroke-dasharray="4 4"/>
<path d="M83.5115 302.126C83.3989 300.773 83.3231 299.41 83.2852 298.037L85.7842 297.968C85.766 297.309 85.7568 296.647 85.7568 295.984V293.793H83.2568V289.722H85.3013V289.412H85.7568V287.222H89.3902V289.722H93.4791V287.222H97.568V289.722H101.657V287.222H105.746V289.722H109.835V287.222H113.924V289.722H118.013V287.222H122.102V289.722H126.19V287.222H130.279V289.722H134.368V287.222H138.457V289.722H142.546V287.222H146.635V289.722H150.724V287.222H154.813V289.722H158.902V287.222H162.535V289.266H162.991V289.722H165.035V293.355H162.535V297.444H165.035V301.533H162.535V305.622H165.035V309.711H162.535V313.8H165.035V317.888H162.535V321.977H165.035V326.066H162.535V330.155H165.035V334.244H162.535V338.333H165.035V342.422H162.535V346.511H165.035V350.6H162.535V354.689H165.035V358.778H162.535V362.867H165.035V366.5H162.845V366.955H162.535V369H158.464V366.5H156.273C155.61 366.5 154.948 366.491 154.289 366.473L154.22 368.972C152.847 368.934 151.484 368.858 150.131 368.745L150.338 366.254C149.017 366.144 147.707 365.997 146.407 365.816L146.061 368.291C144.703 368.101 143.356 367.874 142.023 367.61L142.508 365.158C141.21 364.901 139.925 364.608 138.653 364.281L138.03 366.702C136.703 366.361 135.39 365.983 134.093 365.57L134.851 363.188C133.591 362.787 132.346 362.351 131.118 361.882L130.226 364.217C128.947 363.728 127.685 363.205 126.442 362.648L127.464 360.367C126.259 359.826 125.071 359.253 123.902 358.648L122.753 360.868C121.538 360.239 120.344 359.577 119.17 358.884L120.442 356.732C119.306 356.06 118.19 355.357 117.095 354.624L115.704 356.701C114.568 355.941 113.455 355.15 112.366 354.328L113.87 352.332C112.816 351.538 111.785 350.714 110.778 349.863L109.165 351.772C108.121 350.891 107.103 349.98 106.111 349.042L107.829 347.226C106.871 346.319 105.938 345.386 105.031 344.428L103.215 346.146C102.277 345.154 101.366 344.135 100.484 343.092L102.394 341.478C101.543 340.471 100.719 339.44 99.9248 338.386L97.9284 339.891C97.1072 338.802 96.3157 337.688 95.5553 336.553L97.6327 335.162C96.9 334.067 96.1971 332.951 95.5252 331.815L93.3731 333.087C92.6793 331.913 92.0174 330.718 91.3887 329.504L93.6088 328.355C93.0038 327.186 92.4306 325.998 91.8902 324.792L89.6089 325.815C89.0517 324.572 88.5283 323.31 88.0398 322.031L90.3752 321.139C89.906 319.911 89.4702 318.666 89.0688 317.405L86.6867 318.164C86.2736 316.867 85.8957 315.554 85.5543 314.226L87.9755 313.604C87.6484 312.332 87.3559 311.047 87.0991 309.748L84.6466 310.234C84.3829 308.9 84.1554 307.554 83.9653 306.196L86.4412 305.849C86.2594 304.55 86.113 303.24 86.0029 301.918L83.5115 302.126Z" stroke="#A3A3A3" stroke-opacity="0.3" stroke-width="5" stroke-dasharray="4 4"/>
<path fill-rule="evenodd" clip-rule="evenodd" d="M75.2783 287.222H-6.50005L-6.50005 369H2.26192C42.5878 369 75.2783 336.309 75.2783 295.984V287.222Z" fill="#A3A3A3" fill-opacity="0.2"/>
<path d="M346.288 354.096C346.401 355.448 346.477 356.812 346.515 358.185L344.016 358.254C344.034 358.913 344.043 359.574 344.043 360.238V362.429H346.543V366.5H344.499V366.81H344.043V369H340.41V366.5H336.321V369H332.232V366.5H328.143V369H324.054V366.5H319.965V369H315.876V366.5H311.787V369H307.698V366.5H303.609V369H299.52V366.5H295.431V369H291.343V366.5H287.254V369H283.165V366.5H279.076V369H274.987V366.5H270.898V369H267.265V366.956H266.809V366.5H264.765V362.867H267.265V358.778H264.765V354.689H267.265V350.6H264.765V346.511H267.265V342.422H264.765V338.333H267.265V334.244H264.765V330.155H267.265V326.066H264.765V321.977H267.265V317.889H264.765V313.8H267.265V309.711H264.765V305.622H267.265V301.533H264.765V297.444H267.265V293.355H264.765V289.722H266.955V289.266H267.265V287.222H271.336V289.722H273.527C274.19 289.722 274.852 289.731 275.511 289.749L275.58 287.25C276.953 287.288 278.316 287.364 279.669 287.476L279.461 289.968C280.783 290.078 282.093 290.224 283.392 290.406L283.739 287.93C285.097 288.12 286.443 288.348 287.777 288.611L287.291 291.064C288.59 291.321 289.875 291.613 291.147 291.94L291.769 289.519C293.097 289.861 294.41 290.238 295.707 290.652L294.948 293.034C296.209 293.435 297.454 293.871 298.682 294.34L299.574 292.005C300.853 292.493 302.115 293.016 303.358 293.574L302.335 295.855C303.541 296.395 304.729 296.969 305.898 297.574L307.047 295.353C308.261 295.982 309.456 296.644 310.63 297.338L309.358 299.49C310.494 300.162 311.61 300.865 312.705 301.598L314.096 299.52C315.231 300.281 316.345 301.072 317.434 301.893L315.929 303.89C316.983 304.684 318.015 305.507 319.021 306.359L320.635 304.449C321.679 305.331 322.697 306.242 323.689 307.18L321.971 308.996C322.929 309.902 323.862 310.835 324.769 311.794L326.585 310.076C327.523 311.068 328.434 312.086 329.315 313.129L327.406 314.743C328.257 315.75 329.081 316.781 329.875 317.835L331.871 316.33C332.693 317.42 333.484 318.533 334.244 319.669L332.167 321.06C332.9 322.154 333.603 323.27 334.275 324.407L336.427 323.135C337.121 324.308 337.782 325.503 338.411 326.718L336.191 327.867C336.796 329.036 337.369 330.224 337.91 331.429L340.191 330.407C340.748 331.65 341.272 332.912 341.76 334.191L339.425 335.083C339.894 336.311 340.33 337.556 340.731 338.816L343.113 338.057C343.526 339.355 343.904 340.668 344.246 341.995L341.824 342.618C342.151 343.889 342.444 345.175 342.701 346.473L345.153 345.988C345.417 347.321 345.644 348.667 345.834 350.026L343.359 350.372C343.54 351.671 343.687 352.982 343.797 354.303L346.288 354.096Z" stroke="#A3A3A3" stroke-opacity="0.3" stroke-width="5" stroke-dasharray="4 4"/>
<path fill-rule="evenodd" clip-rule="evenodd" d="M174.011 369H254.792V287.222H246.137C206.303 287.222 174.011 319.912 174.011 360.238V369Z" fill="#A3A3A3" fill-opacity="0.2"/>
<path fill-rule="evenodd" clip-rule="evenodd" d="M174.011 192.478H254.792V274.257H246.137C206.303 274.257 174.011 241.566 174.011 201.24V192.478Z" fill="#A3A3A3" fill-opacity="0.2"/>
<path fill-rule="evenodd" clip-rule="evenodd" d="M344.549 274.257H263.768V192.478H272.423C312.257 192.478 344.549 225.169 344.549 265.495V274.257Z" fill="#A3A3A3" fill-opacity="0.2"/>
<path d="M73.0351 259.389C73.1451 260.734 73.2191 262.089 73.2561 263.454L70.757 263.522C70.7747 264.177 70.7837 264.835 70.7837 265.495V267.685H73.2837V271.757H71.2642V272.066H70.7837V274.257H67.2251V271.757H63.1861V274.257H59.147V271.757H55.108V274.257H51.0689V271.757H47.0298V274.257H42.9908V271.757H38.9517V274.257H34.9127V271.757H30.8736V274.257H26.8346V271.757H22.7955V274.257H18.7565V271.757H14.7174V274.257H10.6784V271.757H6.6393V274.257H2.60024V271.757H-1.43881V274.257H-4.99739V272.212H-5.47787V271.757H-7.49739V268.123H-4.99739V264.034H-7.49739V259.946H-4.99739V255.857H-7.49739V251.768H-4.99739V247.679H-7.49739V243.59H-4.99739V239.501H-7.49739V235.412H-4.99739V231.323H-7.49739V227.234H-4.99739V223.145H-7.49739V219.056H-4.99739L-4.99739 214.967H-7.49739V210.878H-4.99739V206.79H-7.49739V202.701H-4.99739V198.612H-7.49739V194.978H-5.33361V194.523H-4.99739V192.478H-1.00606V194.978H1.15772C1.81682 194.978 2.4737 194.988 3.12826 195.006L3.19855 192.507C4.56298 192.545 5.91794 192.622 7.26241 192.736L7.05106 195.227C8.36274 195.339 9.66392 195.487 10.9536 195.67L11.3064 193.196C12.6558 193.388 13.9931 193.618 15.3174 193.885L14.8235 196.336C16.1119 196.595 17.3875 196.891 18.6491 197.221L19.2828 194.803C20.6004 195.148 21.9035 195.53 23.1908 195.948L22.4193 198.326C23.6684 198.731 24.9022 199.171 26.1196 199.645L27.0261 197.315C28.2938 197.808 29.5443 198.337 30.7764 198.899L29.7382 201.173C30.9316 201.718 32.1072 202.296 33.2639 202.906L34.4299 200.695C35.632 201.329 36.8143 201.996 37.9754 202.695L36.6859 204.837C37.8092 205.513 38.9121 206.22 39.9936 206.958L41.4021 204.892C42.5242 205.658 43.6239 206.454 44.6999 207.28L43.1775 209.263C44.2173 210.061 45.2342 210.888 46.2273 211.743L47.8584 209.849C48.8869 210.734 49.8906 211.648 50.8682 212.59L49.1338 214.391C50.0775 215.3 50.9961 216.235 51.8883 217.196L53.7204 215.495C54.6433 216.489 55.5391 217.509 56.4065 218.555L54.4827 220.151C55.3192 221.159 56.1283 222.191 56.909 223.246L58.9186 221.759C59.7249 222.848 60.5018 223.962 61.2482 225.097L59.1591 226.47C59.878 227.564 60.5675 228.679 61.2264 229.815L63.3887 228.56C64.0686 229.731 64.7173 230.924 65.3333 232.136L63.1047 233.269C63.6972 234.435 64.2586 235.619 64.7878 236.822L67.0761 235.815C67.6213 237.054 68.1334 238.312 68.6113 239.586L66.2705 240.464C66.7294 241.688 67.1556 242.928 67.5481 244.183L69.9342 243.437C70.3379 244.728 70.707 246.035 71.0406 247.356L68.6167 247.968C68.9362 249.233 69.222 250.513 69.4729 251.805L71.9271 251.328C72.1846 252.654 72.4066 253.993 72.5922 255.343L70.1155 255.684C70.293 256.976 70.436 258.279 70.5434 259.593L73.0351 259.389Z" stroke="#A3A3A3" stroke-opacity="0.3" stroke-width="5" stroke-dasharray="4 4"/>
<path fill-rule="evenodd" clip-rule="evenodd" d="M83.2568 274.257H165.035V192.478H156.273C115.947 192.478 83.2568 225.169 83.2568 265.495V274.257Z" fill="#A3A3A3" fill-opacity="0.2"/>
</g>
</svg>
