<svg width="232" height="206" viewBox="0 0 232 206" fill="none" xmlns="http://www.w3.org/2000/svg">
<g clip-path="url(#clip0_472_1315)">
<path d="M0 47.2368C0 40.6094 5.37258 35.2368 12 35.2368H62.9247C67.0209 35.2368 70.8342 33.1474 73.0387 29.695L88.4613 5.54186C90.6658 2.08944 94.4791 0 98.5753 0H220C226.627 0 232 5.37258 232 12V194C232 200.627 226.627 206 220 206H12C5.37258 206 0 200.627 0 194V47.2368Z" fill="#5A73FF"/>
<path d="M0.5 47.2368C0.5 40.8856 5.64873 35.7368 12 35.7368H62.9247C67.1916 35.7368 71.1637 33.5603 73.4601 29.9641L88.8827 5.81095C90.9954 2.50238 94.6497 0.5 98.5753 0.5H220C226.351 0.5 231.5 5.64873 231.5 12V194C231.5 200.351 226.351 205.5 220 205.5H12C5.64873 205.5 0.5 200.351 0.5 194V47.2368Z" stroke="#DEDFEA" stroke-opacity="0.5"/>
<g style="mix-blend-mode:plus-lighter" opacity="0.28">
<path fill-rule="evenodd" clip-rule="evenodd" d="M172.433 233.947L172.433 182.531L121.016 182.531L121.016 188.04C121.016 213.394 141.57 233.947 166.924 233.947L172.433 233.947Z" fill="#A3A3A3" fill-opacity="0.2"/>
<path fill-rule="evenodd" clip-rule="evenodd" d="M121.016 175.007L121.016 124.218L172.432 124.218L172.432 129.659C172.432 154.704 151.879 175.007 126.525 175.007L121.016 175.007Z" fill="#A3A3A3" fill-opacity="0.2"/>
<path fill-rule="evenodd" clip-rule="evenodd" d="M121.016 66.5312L121.016 117.947L172.432 117.947L172.432 112.439C172.432 87.0846 151.879 66.5313 126.525 66.5313L121.016 66.5312Z" fill="#A3A3A3" fill-opacity="0.2"/>
<path fill-rule="evenodd" clip-rule="evenodd" d="M232 66.5312L232 117.947L180.584 117.947L180.584 112.439C180.584 87.0846 201.137 66.5312 226.491 66.5312L232 66.5312Z" fill="#A3A3A3" fill-opacity="0.2"/>
<path fill-rule="evenodd" clip-rule="evenodd" d="M180.583 174.38L180.583 122.964L232 122.964L232 128.472C232 153.826 211.446 174.38 186.092 174.38L180.583 174.38Z" fill="#A3A3A3" fill-opacity="0.2"/>
<path fill-rule="evenodd" clip-rule="evenodd" d="M180.583 232.694L180.583 181.905L232 181.905L232 187.346C232 212.391 211.446 232.694 186.092 232.694L180.583 232.694Z" fill="#A3A3A3" fill-opacity="0.2"/>
<path d="M42.0452 123.751C42.8958 123.68 43.753 123.633 44.6161 123.609L44.6595 125.18C45.074 125.169 45.4899 125.163 45.9071 125.163L47.2844 125.163L47.2844 123.591L49.8442 123.591L49.8442 124.877L50.0388 124.877L50.0388 125.163L51.416 125.163L51.416 127.447L49.8442 127.447L49.8442 130.018L51.416 130.018L51.416 132.589L49.8442 132.589L49.8442 135.16L51.416 135.16L51.416 137.731L49.8442 137.731L49.8442 140.301L51.416 140.301L51.416 142.872L49.8442 142.872L49.8442 145.443L51.416 145.443L51.416 148.014L49.8442 148.014L49.8442 150.585L51.416 150.585L51.416 153.155L49.8442 153.155L49.8442 155.726L51.416 155.726L51.416 158.297L49.8442 158.297L49.8442 160.868L51.416 160.868L51.416 163.439L49.8442 163.439L49.8442 166.01L51.416 166.01L51.416 168.58L49.8442 168.58L49.8442 171.151L51.416 171.151L51.416 173.436L50.1306 173.436L50.1306 173.722L49.8442 173.722L49.8442 175.007L47.5598 175.007L47.5598 173.436L44.989 173.436L44.989 175.007L42.4182 175.007L42.4182 173.436L39.8474 173.436L39.8474 175.007L37.2766 175.007L37.2766 173.436L34.7058 173.436L34.7058 175.007L32.135 175.007L32.135 173.436L29.5641 173.436L29.5641 175.007L26.9933 175.007L26.9933 173.436L24.4225 173.436L24.4225 175.007L21.8517 175.007L21.8517 173.436L19.2809 173.436L19.2809 175.007L16.7101 175.007L16.7101 173.436L14.1393 173.436L14.1393 175.007L11.5685 175.007L11.5685 173.436L8.9977 173.436L8.9977 175.007L6.42689 175.007L6.42689 173.436L3.85608 173.436L3.85608 175.007L1.57168 175.007L1.57168 173.63L1.28528 173.63L1.28528 173.436L-0.000128064 173.436L-0.000127952 170.876L1.57168 170.876L1.57168 169.498C1.57168 169.081 1.57745 168.665 1.58889 168.251L0.0176754 168.207C0.0415096 167.344 0.0891667 166.487 0.160013 165.637L1.7264 165.767C1.79559 164.936 1.88766 164.112 2.00197 163.296L0.445326 163.078C0.564841 162.224 0.707846 161.377 0.873675 160.539L2.41561 160.844C2.57709 160.028 2.76098 159.22 2.9666 158.42L1.44433 158.029C1.65902 157.194 1.89659 156.369 2.15634 155.553L3.65403 156.03C3.90637 155.238 4.18038 154.455 4.47538 153.683L3.00703 153.122C3.31417 152.318 3.64326 151.524 3.99357 150.743L5.42792 151.386C5.76765 150.628 6.12806 149.881 6.50845 149.146L5.11257 148.423C5.50789 147.66 5.92402 146.909 6.36021 146.171L7.71329 146.971C8.13572 146.256 8.57766 145.554 9.03837 144.866L7.73225 143.992C8.21033 143.278 8.70793 142.578 9.22426 141.893L10.4795 142.839C10.9789 142.176 11.4966 141.528 12.0317 140.895L10.8313 139.88C11.3857 139.224 11.9582 138.584 12.548 137.96L13.69 139.04C14.2599 138.438 14.8465 137.851 15.449 137.281L14.369 136.139C14.9926 135.55 15.6328 134.977 16.2887 134.423L17.3034 135.623C17.9364 135.088 18.5847 134.57 19.2473 134.071L18.3013 132.816C18.9863 132.299 19.6862 131.802 20.4003 131.324L21.2748 132.63C21.9629 132.169 22.6647 131.727 23.3793 131.305L22.5794 129.952C23.3173 129.515 24.0684 129.099 24.8321 128.704L25.5547 130.1C26.2895 129.719 27.0363 129.359 27.7943 129.019L27.1515 127.585C27.9331 127.235 28.7264 126.905 29.5305 126.598L30.0913 128.067C30.8636 127.772 31.6463 127.498 32.4386 127.245L31.9616 125.748C32.7772 125.488 33.6027 125.25 34.4374 125.036L34.829 126.558C35.6284 126.352 36.4366 126.168 37.2528 126.007L36.9478 124.465C37.786 124.299 38.6325 124.156 39.4864 124.037L39.7043 125.593C40.5211 125.479 41.3451 125.387 42.1757 125.318L42.0452 123.751Z" stroke="#A3A3A3" stroke-opacity="0.3" stroke-width="3.14363" stroke-dasharray="2.51 2.51"/>
<path fill-rule="evenodd" clip-rule="evenodd" d="M51.416 118.575L51.416 67.1586L-0.000123638 67.1586L-0.000123878 72.6674C-0.000124987 98.0213 20.5533 118.575 45.9071 118.575L51.416 118.575Z" fill="#A3A3A3" fill-opacity="0.2"/>
<path fill-rule="evenodd" clip-rule="evenodd" d="M-0.000488281 59.6344L-0.000486061 8.84528L51.4157 8.84529L51.4157 14.287C51.4157 39.3317 30.8623 59.6344 5.50838 59.6344L-0.000488281 59.6344Z" fill="#A3A3A3" fill-opacity="0.2"/>
<path fill-rule="evenodd" clip-rule="evenodd" d="M-0.000488281 -48.8411L-0.000490529 2.57508L51.4157 2.57508L51.4157 -2.9338C51.4157 -28.2877 30.8623 -48.8411 5.50838 -48.8411L-0.000488281 -48.8411Z" fill="#A3A3A3" fill-opacity="0.2"/>
<path d="M101.613 -48.6808C102.463 -48.7516 103.32 -48.7993 104.184 -48.8231L104.201 -48.1947C104.624 -48.2063 105.049 -48.2122 105.475 -48.2122L106.852 -48.2122L106.852 -48.8409L109.606 -48.8409L109.606 -48.2122L110.355 -48.2122L110.355 -47.5555L110.983 -47.5555L110.983 -44.9847L110.355 -44.9847L110.355 -42.4139L110.983 -42.4139L110.983 -39.8431L110.355 -39.8431L110.355 -37.2723L110.983 -37.2723L110.983 -34.7015L110.355 -34.7015L110.355 -32.1307L110.983 -32.1307L110.983 -29.5599L110.355 -29.5599L110.355 -26.9891L110.983 -26.9891L110.983 -24.4183L110.355 -24.4183L110.355 -21.8475L110.983 -21.8475L110.983 -19.2767L110.355 -19.2767L110.355 -16.7059L110.983 -16.7059L110.983 -14.135L110.355 -14.135L110.355 -11.5642L110.983 -11.5642L110.983 -8.99343L110.355 -8.99343L110.355 -6.42263L110.983 -6.42263L110.983 -3.85182L110.355 -3.85182L110.355 -1.28101L110.983 -1.28101L110.983 1.28979L110.355 1.28979L110.355 1.94647L109.698 1.94647L109.698 2.5752L107.127 2.5752L107.127 1.94647L104.556 1.94647L104.556 2.5752L101.986 2.5752L101.986 1.94647L99.4148 1.94647L99.4148 2.5752L96.844 2.5752L96.844 1.94647L94.2731 1.94647L94.2731 2.5752L91.7023 2.5752L91.7023 1.94647L89.1315 1.94647L89.1315 2.5752L86.5607 2.5752L86.5607 1.94647L83.9899 1.94647L83.9899 2.5752L81.4191 2.5752L81.4191 1.94647L78.8483 1.94647L78.8483 2.5752L76.2775 2.5752L76.2775 1.94647L73.7067 1.94647L73.7067 2.5752L71.1359 2.5752L71.1359 1.94647L68.5651 1.94647L68.5651 2.5752L65.9943 2.5752L65.9943 1.94647L63.4235 1.94647L63.4235 2.5752L60.8527 2.5752L60.8527 1.94647L60.196 1.94647L60.196 1.19798L59.5673 1.19798L59.5673 -1.55646L60.196 -1.55646L60.196 -2.93368C60.196 -3.35965 60.2019 -3.78423 60.2135 -4.20734L59.5851 -4.22469C59.6089 -5.08782 59.6565 -5.94501 59.7274 -6.7956L60.354 -6.74341C60.4246 -7.59159 60.5186 -8.43309 60.6354 -9.26727L60.0127 -9.35441C60.1322 -10.2084 60.2752 -11.0548 60.4411 -11.893L61.0578 -11.771C61.2228 -12.6048 61.4106 -13.4302 61.6206 -14.2468L61.0117 -14.4034C61.2264 -15.2381 61.464 -16.0636 61.7237 -16.8792L62.3228 -16.6884C62.5805 -17.4977 62.8604 -18.2972 63.1618 -19.086L62.5744 -19.3104C62.8815 -20.1145 63.2106 -20.9077 63.561 -21.6894L64.1347 -21.4322C64.4817 -22.2065 64.8498 -22.9692 65.2383 -23.7197L64.68 -24.0087C65.0753 -24.7724 65.4914 -25.5235 65.9276 -26.2614L66.4688 -25.9414C66.9003 -26.6713 67.3516 -27.3879 67.8221 -28.0907L67.2996 -28.4405C67.7777 -29.1546 68.2753 -29.8545 68.7916 -30.5396L69.2937 -30.1611C69.8038 -30.8378 70.3324 -31.4998 70.8788 -32.1463L70.3987 -32.5521C70.9531 -33.208 71.5256 -33.8482 72.1154 -34.4718L72.5722 -34.0398C73.1541 -34.6551 73.7531 -35.2541 74.3684 -35.836L73.9364 -36.2928C74.56 -36.8826 75.2002 -37.4551 75.8561 -38.0095L76.2619 -37.5294C76.9084 -38.0758 77.5704 -38.6044 78.2471 -39.1145L77.8686 -39.6166C78.5537 -40.1329 79.2536 -40.6305 79.9677 -41.1086L80.3175 -40.5861C81.0203 -41.0566 81.7369 -41.5079 82.4668 -41.9394L82.1468 -42.4806C82.8847 -42.9168 83.6358 -43.3329 84.3995 -43.7282L84.6885 -43.1699C85.439 -43.5584 86.2017 -43.9265 86.976 -44.2735L86.7189 -44.8472C87.5005 -45.1976 88.2937 -45.5267 89.0978 -45.8338L89.3222 -45.2464C90.111 -45.5478 90.9105 -45.8277 91.7198 -46.0854L91.529 -46.6845C92.3446 -46.9442 93.1701 -47.1818 94.0048 -47.3965L94.1614 -46.7876C94.978 -46.9976 95.8035 -47.1854 96.6372 -47.3504L96.5152 -47.9671C97.3534 -48.133 98.1998 -48.276 99.0538 -48.3955L99.1409 -47.7728C99.9751 -47.8896 100.817 -47.9836 101.665 -48.0542L101.613 -48.6808Z" stroke="#A3A3A3" stroke-opacity="0.3" stroke-width="1.25745" stroke-dasharray="2.51 2.51"/>
<path fill-rule="evenodd" clip-rule="evenodd" d="M59.5669 59.0073L59.5669 7.59118L110.983 7.59118L110.983 13.1001C110.983 38.4539 90.4297 59.0073 65.0758 59.0073L59.5669 59.0073Z" fill="#A3A3A3" fill-opacity="0.2"/>
<path fill-rule="evenodd" clip-rule="evenodd" d="M-0.000488281 180.65L-0.000490501 231.439L51.4157 231.439L51.4157 225.998C51.4157 200.953 30.8623 180.65 5.50838 180.65L-0.000488281 180.65Z" fill="#A3A3A3" fill-opacity="0.2"/>
<path fill-rule="evenodd" clip-rule="evenodd" d="M110.983 180.65L110.983 231.439L59.5673 231.439L59.5673 225.998C59.5673 200.953 80.1206 180.65 105.475 180.65L110.983 180.65Z" fill="#A3A3A3" fill-opacity="0.2"/>
<path d="M68.9144 117.165C68.0689 117.234 67.2169 117.281 66.359 117.304L66.3164 115.733C65.9042 115.744 65.4907 115.75 65.0758 115.75L63.6985 115.75L63.6985 117.322L61.1387 117.322L61.1387 116.052L60.9441 116.052L60.9441 115.75L59.5669 115.75L59.5669 113.512L61.1387 113.512L61.1387 110.973L59.5669 110.973L59.5669 108.433L61.1387 108.433L61.1387 105.894L59.5669 105.894L59.5669 103.355L61.1387 103.355L61.1387 100.815L59.5669 100.815L59.5669 98.2756L61.1387 98.2756L61.1387 95.7362L59.5669 95.7362L59.5669 93.1967L61.1387 93.1967L61.1387 90.6572L59.5669 90.6572L59.5669 88.1178L61.1387 88.1178L61.1387 85.5783L59.5669 85.5783L59.5669 83.0389L61.1387 83.0389L61.1387 80.4994L59.5669 80.4994L59.5669 77.96L61.1387 77.96L61.1387 75.4205L59.5669 75.4205L59.5669 72.8811L61.1387 72.8811L61.1387 70.3416L59.5669 70.3416L59.5669 68.1042L60.8523 68.1042L60.8523 67.8021L61.1387 67.8021L61.1387 66.5324L63.4231 66.5324L63.4231 68.1042L65.9939 68.1042L65.9939 66.5324L68.5647 66.5324L68.5647 68.1042L71.1355 68.1042L71.1355 66.5324L73.7063 66.5324L73.7063 68.1042L76.2771 68.1042L76.2771 66.5324L78.848 66.5324L78.848 68.1042L81.4188 68.1042L81.4188 66.5324L83.9896 66.5324L83.9896 68.1042L86.5604 68.1042L86.5604 66.5324L89.1312 66.5324L89.1312 68.1042L91.702 68.1042L91.702 66.5324L94.2728 66.5324L94.2728 68.1042L96.8436 68.1042L96.8436 66.5324L99.4144 66.5324L99.4144 68.1042L101.985 68.1042L101.985 66.5324L104.556 66.5324L104.556 68.1042L107.127 68.1042L107.127 66.5324L109.411 66.5324L109.411 67.8928L109.698 67.8928L109.698 68.1042L110.983 68.1042L110.983 70.6137L109.411 70.6137L109.411 71.9741C109.411 72.3885 109.405 72.8015 109.394 73.213L110.965 73.2572C110.941 74.1151 110.893 74.967 110.821 75.8123L109.255 75.6794C109.185 76.5041 109.092 77.3222 108.976 78.133L110.532 78.3549C110.411 79.2032 110.266 80.0441 110.099 80.8767L108.558 80.5662C108.395 81.3762 108.209 82.1782 108.001 82.9714L109.521 83.3698C109.304 84.1982 109.064 85.0175 108.802 85.8269L107.306 85.3418C107.052 86.1272 106.775 86.9029 106.477 87.6683L107.942 88.2382C107.632 89.0353 107.3 89.8215 106.946 90.5961L105.516 89.9434C105.174 90.6937 104.81 91.4328 104.427 92.1601L105.817 92.8932C105.419 93.649 104.999 94.3923 104.56 95.1223L103.213 94.3115C102.788 95.0178 102.343 95.7113 101.879 96.3912L103.178 97.2768C102.697 97.9822 102.196 98.6736 101.677 99.3502L100.43 98.393C99.9282 99.0467 99.4082 99.6861 98.8706 100.31L100.062 101.336C99.5051 101.983 98.9303 102.614 98.3382 103.228L97.2062 102.138C96.6347 102.731 96.0464 103.309 95.4423 103.87L96.5118 105.022C95.8868 105.602 95.2454 106.165 94.5883 106.71L93.5845 105.501C92.9507 106.027 92.3019 106.536 91.6387 107.026L92.5737 108.29C91.8886 108.797 91.1887 109.285 90.4748 109.755L89.6114 108.441C88.9238 108.893 88.2227 109.327 87.5088 109.741L88.2978 111.1C87.5612 111.528 86.8114 111.936 86.0493 112.323L85.3371 110.922C84.6041 111.294 83.8591 111.647 83.103 111.98L83.7361 113.419C82.957 113.761 82.1664 114.083 81.3652 114.384L80.8133 112.912C80.0438 113.201 79.2641 113.469 78.4748 113.715L78.9439 115.216C78.1321 115.469 77.3107 115.702 76.4801 115.911L76.0953 114.387C75.2997 114.588 74.4954 114.768 73.6831 114.926L73.9828 116.469C73.1491 116.63 72.3074 116.77 71.4583 116.887L71.2443 115.33C70.4319 115.441 69.6124 115.531 68.7863 115.599L68.9144 117.165Z" stroke="#A3A3A3" stroke-opacity="0.3" stroke-width="3.14363" stroke-dasharray="2.51 2.51"/>
<path fill-rule="evenodd" clip-rule="evenodd" d="M59.5669 123.591L59.5669 175.007L110.983 175.007L110.983 169.498C110.983 144.145 90.4297 123.591 65.0758 123.591L59.5669 123.591Z" fill="#A3A3A3" fill-opacity="0.2"/>
</g>
<g clip-path="url(#clip1_472_1315)">
<path d="M70 91C56.7452 91 46 101.745 46 115C46 128.256 56.7454 139 70 139C83.2557 139 94 128.256 94 115C94 101.746 83.2557 91.0013 69.9996 91.0013L69.9998 91.0002L70 91ZM81.0061 125.615C80.5761 126.32 79.6533 126.544 78.9482 126.111C73.3133 122.669 66.2198 121.889 57.8658 123.798C57.4789 123.886 57.0729 123.817 56.7371 123.606C56.4012 123.394 56.163 123.059 56.0747 122.672C56.0308 122.48 56.025 122.282 56.0578 122.088C56.0905 121.895 56.1612 121.709 56.2657 121.543C56.3702 121.376 56.5065 121.232 56.6668 121.119C56.827 121.005 57.0082 120.924 57.1997 120.881C66.3422 118.792 74.1841 119.691 80.5103 123.557C81.2153 123.99 81.4388 124.91 81.0061 125.615ZM83.9436 119.08C83.4017 119.961 82.2497 120.239 81.37 119.697C74.9189 115.732 65.0851 114.583 57.4548 116.899C56.4651 117.198 55.42 116.641 55.1196 115.653C54.8215 114.663 55.3795 113.62 56.3674 113.319C65.0834 110.674 75.919 111.955 83.3275 116.508C84.2072 117.05 84.4853 118.202 83.9436 119.08ZM84.1958 112.275C76.4607 107.681 63.6989 107.258 56.3138 109.5C55.1279 109.86 53.8737 109.19 53.5144 108.004C53.155 106.818 53.8238 105.564 55.0107 105.204C63.4881 102.63 77.5814 103.128 86.4867 108.414C87.5558 109.047 87.9053 110.425 87.2719 111.49C86.6416 112.557 85.2601 112.909 84.1969 112.275H84.1958Z" fill="white"/>
</g>
<path d="M119.104 119.66C118.16 120.38 116.776 120.74 114.952 120.74C113.176 120.74 111.696 120.476 110.512 119.948V117.716C111.952 118.324 113.352 118.628 114.712 118.628C116.808 118.628 117.856 117.924 117.856 116.516C117.856 115.876 117.584 115.38 117.04 115.028C116.496 114.676 115.568 114.324 114.256 113.972C113.232 113.668 112.432 113.34 111.856 112.988C111.28 112.62 110.864 112.188 110.608 111.692C110.352 111.18 110.224 110.54 110.224 109.772C110.224 108.428 110.672 107.396 111.568 106.676C112.48 105.956 113.848 105.596 115.672 105.596C116.36 105.596 117.096 105.66 117.88 105.788C118.664 105.9 119.28 106.036 119.728 106.196V108.428C118.608 107.948 117.416 107.708 116.152 107.708C113.992 107.708 112.912 108.388 112.912 109.748C112.912 110.148 113.008 110.476 113.2 110.732C113.408 110.988 113.744 111.22 114.208 111.428C114.672 111.62 115.336 111.82 116.2 112.028C117.32 112.3 118.192 112.644 118.816 113.06C119.456 113.46 119.904 113.94 120.16 114.5C120.416 115.044 120.544 115.716 120.544 116.516C120.544 117.876 120.064 118.924 119.104 119.66ZM129.141 120.74C128.005 120.74 126.989 120.452 126.093 119.876V125.252H123.453V109.7H125.709L125.877 110.732C126.325 110.3 126.821 109.98 127.365 109.772C127.925 109.564 128.573 109.46 129.309 109.46C132.445 109.46 134.013 111.3 134.013 114.98C134.013 116.804 133.605 118.22 132.789 119.228C131.973 120.236 130.757 120.74 129.141 120.74ZM127.173 118.388C127.541 118.532 127.973 118.604 128.469 118.604C130.389 118.604 131.349 117.412 131.349 115.028C131.349 113.828 131.125 112.956 130.677 112.412C130.245 111.868 129.541 111.596 128.565 111.596C127.573 111.596 126.749 111.932 126.093 112.604V117.74C126.461 118.028 126.821 118.244 127.173 118.388ZM145.817 119.348C144.921 120.276 143.537 120.74 141.665 120.74C139.793 120.74 138.409 120.276 137.513 119.348C136.633 118.404 136.193 116.988 136.193 115.1C136.193 113.212 136.633 111.804 137.513 110.876C138.409 109.932 139.793 109.46 141.665 109.46C143.537 109.46 144.921 109.932 145.817 110.876C146.713 111.82 147.161 113.228 147.161 115.1C147.161 116.988 146.713 118.404 145.817 119.348ZM139.529 117.764C139.961 118.324 140.673 118.604 141.665 118.604C142.673 118.604 143.401 118.324 143.849 117.764C144.297 117.204 144.521 116.316 144.521 115.1C144.521 113.884 144.297 112.996 143.849 112.436C143.401 111.876 142.673 111.596 141.665 111.596C140.673 111.596 139.961 111.876 139.529 112.436C139.097 112.996 138.881 113.884 138.881 115.1C138.881 116.316 139.097 117.204 139.529 117.764ZM156.294 120.332C155.606 120.604 154.878 120.74 154.11 120.74C153.022 120.74 152.182 120.436 151.59 119.828C151.014 119.204 150.726 118.316 150.726 117.164V111.836H149.262V109.7H150.726V107.084L153.366 106.46V109.7H156.054L155.982 111.836H153.366V117.02C153.366 118.108 153.934 118.652 155.07 118.652C155.502 118.652 155.91 118.572 156.294 118.412V120.332ZM162.285 105.332V107.612H159.405V105.332H162.285ZM162.285 109.7V120.5H159.645V111.836H158.085L158.253 109.7H162.285ZM171.498 111.836H168.954V120.5H166.338V111.836H164.898V109.7H166.338V108.404C166.338 107.284 166.634 106.396 167.226 105.74C167.834 105.084 168.706 104.756 169.842 104.756C170.754 104.756 171.49 104.892 172.05 105.164V107.084C171.634 106.924 171.202 106.844 170.754 106.844C170.13 106.844 169.674 106.972 169.386 107.228C169.098 107.484 168.954 107.884 168.954 108.428V109.7H171.642L171.498 111.836ZM178.538 123.308C177.818 124.108 176.89 124.508 175.754 124.508C174.906 124.508 174.21 124.388 173.666 124.148V122.204C174.066 122.364 174.506 122.444 174.986 122.444C175.562 122.444 176.018 122.276 176.354 121.94C176.69 121.604 177.042 121.06 177.41 120.308L172.826 109.7H175.61L178.73 117.596L181.946 109.7H184.658L180.53 119.78C179.922 121.348 179.258 122.524 178.538 123.308Z" fill="white"/>
</g>
<defs>
<clipPath id="clip0_472_1315">
<rect width="232" height="206" rx="16" fill="white"/>
</clipPath>
<clipPath id="clip1_472_1315">
<rect width="48" height="48" fill="white" transform="translate(46 91)"/>
</clipPath>
</defs>
</svg>
