<svg width="150" height="49" viewBox="0 0 177 51" fill="none" xmlns="http://www.w3.org/2000/svg">
<path d="M24.4322 18.072C24.4322 17.82 24.3482 17.634 24.1802 17.514C24.0242 17.382 23.8022 17.316 23.5142 17.316H20.0762V13.788C20.0762 12.72 20.3942 11.856 21.0302 11.196C21.6782 10.536 22.5362 10.206 23.6042 10.206H26.0522L26.1962 12.528H23.6222C23.2502 12.528 22.9502 12.642 22.7222 12.87C22.4942 13.086 22.3802 13.38 22.3802 13.752V14.922H23.8922C24.8762 14.922 25.5902 15.18 26.0342 15.696C26.4902 16.212 26.7182 16.956 26.7182 17.928C26.7182 18.72 26.4962 19.446 26.0522 20.106C25.6202 20.778 25.0142 21.312 24.2342 21.708C23.4662 22.104 22.6082 22.302 21.6602 22.302H20.3102C18.7502 22.302 17.5442 21.852 16.6922 20.952C15.8522 20.064 15.4322 18.816 15.4322 17.208V13.608H17.7182V17.154C17.7182 18.066 17.9282 18.75 18.3482 19.206C18.7682 19.674 19.4222 19.908 20.3102 19.908H21.6782C22.5662 19.908 23.2442 19.74 23.7122 19.404C24.1922 19.08 24.4322 18.636 24.4322 18.072ZM33.1035 15.606C33.1635 15.606 33.2055 15.684 33.2295 15.84C33.2655 15.996 33.2835 16.332 33.2835 16.848C33.2835 17.328 33.2655 17.64 33.2295 17.784C33.2055 17.928 33.1635 18 33.1035 18H32.4555C31.4475 18 30.6795 17.712 30.1515 17.136C29.6355 16.548 29.3775 15.714 29.3775 14.634V6.408H31.6815V14.472C31.6815 14.856 31.7535 15.144 31.8975 15.336C32.0535 15.516 32.2935 15.606 32.6175 15.606H33.1035ZM38.2552 14.796C38.2552 15.792 37.9552 16.578 37.3552 17.154C36.7672 17.718 35.9692 18 34.9612 18H33.1972C33.0772 18 33.0172 17.616 33.0172 16.848C33.0172 16.02 33.0772 15.606 33.1972 15.606H34.9612C35.2612 15.606 35.5012 15.528 35.6812 15.372C35.8732 15.204 35.9692 14.976 35.9692 14.688V11.808H38.2552V14.796ZM33.4132 21.924V19.872H35.8612V21.924H33.4132ZM57.4497 15.606C57.5697 15.606 57.6297 16.02 57.6297 16.848C57.6297 17.616 57.5697 18 57.4497 18H55.8657C55.9497 18.096 55.9917 18.282 55.9917 18.558C55.9917 19.29 55.7817 19.938 55.3617 20.502C54.9417 21.066 54.3597 21.504 53.6157 21.816C52.8717 22.14 52.0137 22.302 51.0417 22.302H49.6917C48.1317 22.302 46.9257 21.852 46.0737 20.952C45.2337 20.064 44.8137 18.816 44.8137 17.208V13.608H47.0997V17.154C47.0997 18.066 47.3097 18.75 47.7297 19.206C48.1497 19.674 48.8037 19.908 49.6917 19.908H51.0777C52.8297 19.908 53.7057 19.458 53.7057 18.558C53.7057 18.306 53.6397 18.126 53.5077 18.018C53.3757 17.922 53.1597 17.874 52.8597 17.874H49.7097L49.9257 15.606H57.4497ZM59.6196 15.606C59.9196 15.606 60.1596 15.528 60.3396 15.372C60.5316 15.204 60.6276 14.976 60.6276 14.688V11.808H62.9136V14.616C62.9136 15.276 63.2496 15.606 63.9216 15.606H64.6056C64.7256 15.606 64.7856 16.008 64.7856 16.812C64.7856 17.604 64.7256 18 64.6056 18H63.8136C62.8056 18 62.1216 17.712 61.7616 17.136C61.5456 17.436 61.2576 17.658 60.8976 17.802C60.5496 17.934 60.1236 18 59.6196 18H57.5316C57.4116 18 57.3516 17.616 57.3516 16.848C57.3516 16.02 57.4116 15.606 57.5316 15.606H59.6196ZM63.0036 7.884V9.936H57.9276V7.884H63.0036ZM66.65 15.606C66.446 15.39 66.284 15.108 66.164 14.76C66.056 14.412 66.002 14.064 66.002 13.716C66.002 13.056 66.158 12.45 66.47 11.898C66.794 11.346 67.232 10.908 67.784 10.584C68.336 10.26 68.948 10.098 69.62 10.098C70.34 10.098 70.97 10.248 71.51 10.548C72.062 10.836 72.488 11.25 72.788 11.79C73.1 12.33 73.256 12.942 73.256 13.626C73.256 14.418 73.004 15.078 72.5 15.606H74.57C74.69 15.606 74.75 16.02 74.75 16.848C74.75 17.616 74.69 18 74.57 18H72.122C71.438 18 70.904 17.976 70.52 17.928C70.136 17.868 69.836 17.772 69.62 17.64C69.404 17.772 69.092 17.868 68.684 17.928C68.288 17.976 67.772 18 67.136 18H64.688C64.568 18 64.508 17.616 64.508 16.848C64.508 16.02 64.568 15.606 64.688 15.606H66.65ZM69.62 12.384C69.212 12.384 68.882 12.516 68.63 12.78C68.39 13.032 68.27 13.35 68.27 13.734C68.27 14.106 68.39 14.46 68.63 14.796C68.87 15.12 69.2 15.39 69.62 15.606C70.064 15.402 70.4 15.132 70.628 14.796C70.856 14.448 70.97 14.094 70.97 13.734C70.97 13.314 70.85 12.984 70.61 12.744C70.37 12.504 70.04 12.384 69.62 12.384ZM68.396 8.298V6.246H70.844V8.298H68.396ZM77.357 15.606C77.477 15.606 77.537 16.02 77.537 16.848C77.537 17.34 77.519 17.658 77.483 17.802C77.447 17.934 77.405 18 77.357 18H74.657C74.537 18 74.477 17.616 74.477 16.848C74.477 16.02 74.537 15.606 74.657 15.606H77.357ZM80.154 15.606C80.274 15.606 80.334 16.02 80.334 16.848C80.334 17.34 80.316 17.658 80.28 17.802C80.244 17.934 80.202 18 80.154 18H77.454C77.334 18 77.274 17.616 77.274 16.848C77.274 16.02 77.334 15.606 77.454 15.606H80.154ZM82.951 15.606C83.071 15.606 83.131 16.02 83.131 16.848C83.131 17.34 83.113 17.658 83.077 17.802C83.041 17.934 82.999 18 82.951 18H80.251C80.131 18 80.071 17.616 80.071 16.848C80.071 16.02 80.131 15.606 80.251 15.606H82.951ZM85.7481 15.606C85.8681 15.606 85.9281 16.02 85.9281 16.848C85.9281 17.34 85.9101 17.658 85.8741 17.802C85.8381 17.934 85.7961 18 85.7481 18H83.048C82.928 18 82.868 17.616 82.868 16.848C82.868 16.02 82.928 15.606 83.048 15.606H85.7481ZM88.5451 15.606C88.6651 15.606 88.7251 16.02 88.7251 16.848C88.7251 17.34 88.7071 17.658 88.6711 17.802C88.6351 17.934 88.5931 18 88.5451 18H85.8451C85.7251 18 85.6651 17.616 85.6651 16.848C85.6651 16.02 85.7251 15.606 85.8451 15.606H88.5451ZM91.3421 15.606C91.4621 15.606 91.5221 16.02 91.5221 16.848C91.5221 17.34 91.5041 17.658 91.4681 17.802C91.4321 17.934 91.3901 18 91.3421 18H88.6421C88.5221 18 88.4621 17.616 88.4621 16.848C88.4621 16.02 88.5221 15.606 88.6421 15.606H91.3421ZM94.1391 15.606C94.2591 15.606 94.3191 16.02 94.3191 16.848C94.3191 17.34 94.3011 17.658 94.2651 17.802C94.2291 17.934 94.1871 18 94.1391 18H91.4391C91.3191 18 91.2591 17.616 91.2591 16.848C91.2591 16.02 91.3191 15.606 91.4391 15.606H94.1391ZM96.3242 15.606C96.6242 15.606 96.8642 15.528 97.0442 15.372C97.2362 15.204 97.3322 14.976 97.3322 14.688V11.808H99.6182V14.616C99.6182 15.276 99.9542 15.606 100.626 15.606H101.31C101.43 15.606 101.49 16.008 101.49 16.812C101.49 17.604 101.43 18 101.31 18H100.518C99.5102 18 98.8262 17.712 98.4662 17.136C98.2502 17.436 97.9622 17.658 97.6022 17.802C97.2542 17.934 96.8282 18 96.3242 18H94.2362C94.1162 18 94.0562 17.616 94.0562 16.848C94.0562 16.02 94.1162 15.606 94.2362 15.606H96.3242ZM98.0162 19.872V21.924H92.9402V19.872H98.0162ZM108.917 3.024L109.313 4.428L102.833 7.038V5.508L108.917 3.024ZM106.163 15.606C106.535 15.606 106.817 15.546 107.009 15.426C107.213 15.306 107.315 15.138 107.315 14.922C107.315 14.718 107.267 14.538 107.171 14.382C107.087 14.226 106.943 14.046 106.739 13.842L102.833 10.026V8.154L109.655 5.526L110.303 7.758L105.659 9.504L108.467 12.294C108.887 12.726 109.193 13.17 109.385 13.626C109.589 14.07 109.691 14.55 109.691 15.066C109.691 15.942 109.385 16.65 108.773 17.19C108.173 17.73 107.327 18 106.235 18H101.393C101.273 18 101.213 17.616 101.213 16.848C101.213 16.02 101.273 15.606 101.393 15.606H106.163Z" fill="black"/>
<path d="M4.28079 42.704C4.32079 42.704 4.34879 42.748 4.36479 42.836C4.38879 42.924 4.40079 43.104 4.40079 43.376C4.40079 43.632 4.38879 43.8 4.36479 43.88C4.34879 43.96 4.32079 44 4.28079 44H3.92079C3.28079 44 2.79679 43.812 2.46879 43.436C2.14079 43.06 1.97679 42.528 1.97679 41.84V36.248H3.21279V41.756C3.21279 42.084 3.27279 42.324 3.39279 42.476C3.52079 42.628 3.72079 42.704 3.99279 42.704H4.28079ZM5.78492 42.704C6.04092 42.704 6.24492 42.64 6.39692 42.512C6.55692 42.376 6.63692 42.188 6.63692 41.948V40.016H7.88492V41.9C7.88492 42.436 8.16092 42.704 8.71292 42.704H9.12092C9.20092 42.704 9.24092 42.924 9.24092 43.364C9.24092 43.788 9.20092 44 9.12092 44H8.66492C7.95292 44 7.48092 43.784 7.24892 43.352C6.96892 43.784 6.48092 44 5.78492 44H4.34492C4.26492 44 4.22492 43.792 4.22492 43.376C4.22492 42.928 4.26492 42.704 4.34492 42.704H5.78492ZM6.84092 45.404V46.556H3.57692V45.404H6.84092ZM12.4862 41.984C12.4862 42.616 12.2982 43.112 11.9222 43.472C11.5462 43.824 11.0422 44 10.4102 44H9.18617C9.10617 44 9.06617 43.792 9.06617 43.376C9.06617 42.928 9.10617 42.704 9.18617 42.704H10.4102C10.6582 42.704 10.8582 42.64 11.0102 42.512C11.1622 42.376 11.2382 42.188 11.2382 41.948V40.016H12.4862V41.984ZM10.5302 38.648V37.472H11.9702V38.648H10.5302ZM18.8538 40.424C19.1258 40.744 19.3178 41.04 19.4298 41.312C19.5498 41.576 19.6098 41.852 19.6098 42.14C19.6098 42.692 19.4138 43.14 19.0218 43.484C18.6378 43.828 18.0978 44 17.4018 44H14.0898L13.9698 42.704H17.4018C17.7058 42.704 17.9418 42.652 18.1098 42.548C18.2778 42.436 18.3618 42.288 18.3618 42.104C18.3618 41.976 18.3258 41.852 18.2538 41.732C18.1898 41.604 18.0738 41.44 17.9058 41.24L15.7458 38.732L16.6218 37.844L18.8538 40.424ZM28.9727 41.672C28.9727 42.04 29.0367 42.304 29.1647 42.464C29.2927 42.624 29.4807 42.704 29.7287 42.704H30.0647C30.1047 42.704 30.1327 42.748 30.1487 42.836C30.1727 42.924 30.1847 43.104 30.1847 43.376C30.1847 43.632 30.1727 43.8 30.1487 43.88C30.1327 43.96 30.1047 44 30.0647 44H29.7287C29.2887 44 28.9287 43.92 28.6487 43.76C28.3767 43.592 28.1887 43.324 28.0847 42.956C27.9167 43.116 27.6887 43.236 27.4007 43.316C27.1127 43.396 26.8087 43.436 26.4887 43.436C25.7847 43.436 25.2487 43.248 24.8807 42.872C24.5127 42.488 24.3287 41.924 24.3287 41.18C24.3287 40.732 24.4287 40.32 24.6287 39.944C24.8287 39.56 25.1087 39.256 25.4687 39.032C25.8367 38.8 26.2567 38.684 26.7287 38.684H27.7367V37.88H28.9727V41.672ZM25.5647 41.168C25.5647 41.816 25.8927 42.14 26.5487 42.14C26.9247 42.14 27.2167 42.076 27.4247 41.948C27.6327 41.812 27.7367 41.628 27.7367 41.396V39.932H26.7287C26.3607 39.932 26.0727 40.04 25.8647 40.256C25.6647 40.464 25.5647 40.768 25.5647 41.168ZM30.4095 42.704C30.6735 42.704 30.8615 42.652 30.9735 42.548C31.0935 42.436 31.1535 42.264 31.1535 42.032V41.612C31.1535 40.844 31.3655 40.236 31.7895 39.788C32.2215 39.34 32.8055 39.116 33.5415 39.116C34.2775 39.116 34.8415 39.332 35.2335 39.764C35.6255 40.188 35.8215 40.8 35.8215 41.6V41.876C35.8215 42.172 35.8815 42.384 36.0015 42.512C36.1295 42.64 36.3175 42.704 36.5655 42.704H36.8655C36.9455 42.704 36.9855 42.928 36.9855 43.376C36.9855 43.792 36.9455 44 36.8655 44H36.5655C35.8695 44 35.4135 43.776 35.1975 43.328C35.0295 43.552 34.7935 43.72 34.4895 43.832C34.1855 43.944 33.8535 44 33.4935 44C33.0855 44 32.7415 43.944 32.4615 43.832C32.1815 43.712 31.9775 43.548 31.8495 43.34C31.7055 43.572 31.5175 43.74 31.2855 43.844C31.0615 43.948 30.7695 44 30.4095 44H30.1215C30.0415 44 30.0015 43.792 30.0015 43.376C30.0015 42.928 30.0415 42.704 30.1215 42.704H30.4095ZM34.5855 41.6C34.5855 41.184 34.4935 40.876 34.3095 40.676C34.1335 40.468 33.8615 40.364 33.4935 40.364C33.1255 40.364 32.8495 40.468 32.6655 40.676C32.4895 40.876 32.4015 41.188 32.4015 41.612C32.4015 41.964 32.4935 42.236 32.6775 42.428C32.8615 42.612 33.1335 42.704 33.4935 42.704C33.8615 42.704 34.1335 42.616 34.3095 42.44C34.4935 42.256 34.5855 41.976 34.5855 41.6ZM38.4918 42.704C38.3078 42.536 38.1598 42.324 38.0478 42.068C37.9358 41.812 37.8798 41.552 37.8798 41.288C37.8798 40.84 37.9838 40.44 38.1918 40.088C38.3998 39.728 38.6838 39.448 39.0438 39.248C39.4038 39.04 39.8078 38.936 40.2558 38.936C40.6798 38.936 41.0598 39.036 41.3958 39.236C41.7398 39.436 42.0078 39.708 42.1998 40.052C42.3998 40.388 42.4998 40.764 42.4998 41.18C42.4998 41.484 42.4278 41.772 42.2838 42.044C42.1478 42.316 41.9598 42.536 41.7198 42.704H43.1838C43.4798 42.704 43.7038 42.652 43.8558 42.548C44.0078 42.444 44.0838 42.296 44.0838 42.104C44.0838 41.96 44.0478 41.824 43.9758 41.696C43.9118 41.56 43.7798 41.392 43.5798 41.192L41.2038 38.684L42.0918 37.76L44.5278 40.376C44.8078 40.672 45.0118 40.964 45.1398 41.252C45.2678 41.54 45.3318 41.836 45.3318 42.14C45.3318 42.7 45.1398 43.152 44.7558 43.496C44.3718 43.832 43.8478 44 43.1838 44H41.8398C41.3198 44 40.9438 43.988 40.7118 43.964C40.4878 43.932 40.3038 43.872 40.1598 43.784C40.0158 43.864 39.8118 43.92 39.5478 43.952C39.2918 43.984 38.9238 44 38.4438 44H36.9198C36.8398 44 36.7998 43.792 36.7998 43.376C36.7998 42.928 36.8398 42.704 36.9198 42.704H38.4918ZM40.1358 42.692C40.5118 42.532 40.7998 42.332 40.9998 42.092C41.1998 41.852 41.2998 41.584 41.2998 41.288C41.2998 40.96 41.1998 40.696 40.9998 40.496C40.7998 40.288 40.5318 40.184 40.1958 40.184C39.8598 40.184 39.5878 40.288 39.3798 40.496C39.1798 40.696 39.0798 40.96 39.0798 41.288C39.0798 41.896 39.4318 42.364 40.1358 42.692ZM52.481 42.704C52.521 42.704 52.549 42.748 52.565 42.836C52.589 42.924 52.601 43.104 52.601 43.376C52.601 43.632 52.589 43.8 52.565 43.88C52.549 43.96 52.521 44 52.481 44H52.121C51.481 44 50.997 43.812 50.669 43.436C50.341 43.06 50.177 42.528 50.177 41.84V36.248H51.413V41.756C51.413 42.084 51.473 42.324 51.593 42.476C51.721 42.628 51.921 42.704 52.193 42.704H52.481ZM55.8451 41.984C55.8451 42.616 55.6571 43.112 55.2811 43.472C54.9051 43.824 54.4011 44 53.7691 44H52.5451C52.4651 44 52.4251 43.792 52.4251 43.376C52.4251 42.928 52.4651 42.704 52.5451 42.704H53.7691C54.0171 42.704 54.2171 42.64 54.3691 42.512C54.5211 42.376 54.5971 42.188 54.5971 41.948V40.016H55.8451V41.984ZM52.7851 46.58V45.404H54.2251V46.58H52.7851ZM62.4092 40.748C63.2332 39.564 64.1172 38.972 65.0612 38.972C65.5012 38.972 65.8972 39.08 66.2492 39.296C66.6012 39.504 66.8732 39.8 67.0652 40.184C67.2652 40.56 67.3652 40.992 67.3652 41.48C67.3652 42.24 67.1292 42.852 66.6572 43.316C66.1932 43.772 65.5652 44 64.7732 44H60.3212L60.2012 42.704H61.1612V36.248H62.4092V40.748ZM64.7732 42.704C65.1972 42.704 65.5252 42.596 65.7572 42.38C65.9972 42.164 66.1172 41.864 66.1172 41.48C66.1172 41.104 66.0092 40.8 65.7932 40.568C65.5772 40.336 65.2972 40.22 64.9532 40.22C64.5612 40.22 64.1572 40.42 63.7412 40.82C63.3252 41.22 62.8492 41.848 62.3132 42.704H64.7732ZM71.635 42.704C71.675 42.704 71.703 42.748 71.719 42.836C71.743 42.924 71.755 43.104 71.755 43.376C71.755 43.632 71.743 43.8 71.719 43.88C71.703 43.96 71.675 44 71.635 44H71.275C70.635 44 70.151 43.812 69.823 43.436C69.495 43.06 69.331 42.528 69.331 41.84V36.248H70.567V41.756C70.567 42.084 70.627 42.324 70.747 42.476C70.875 42.628 71.075 42.704 71.347 42.704H71.635ZM73.1391 42.704C73.3951 42.704 73.5991 42.64 73.7511 42.512C73.9111 42.376 73.9911 42.188 73.9911 41.948V40.016H75.2391V41.9C75.2391 42.436 75.5151 42.704 76.0671 42.704H76.4751C76.5551 42.704 76.5951 42.924 76.5951 43.364C76.5951 43.788 76.5551 44 76.4751 44H76.0191C75.3071 44 74.8351 43.784 74.6031 43.352C74.3231 43.784 73.8351 44 73.1391 44H71.6991C71.6191 44 71.5791 43.792 71.5791 43.376C71.5791 42.928 71.6191 42.704 71.6991 42.704H73.1391ZM72.2031 46.58V45.404H73.6431V46.58H72.2031ZM79.8404 41.984C79.8404 42.616 79.6524 43.112 79.2764 43.472C78.9004 43.824 78.3964 44 77.7644 44H76.5404C76.4604 44 76.4204 43.792 76.4204 43.376C76.4204 42.928 76.4604 42.704 76.5404 42.704H77.7644C78.0124 42.704 78.2124 42.64 78.3644 42.512C78.5164 42.376 78.5924 42.188 78.5924 41.948V40.016H79.8404V41.984ZM80.1644 37.496V38.648H76.9004V37.496H80.1644ZM83.5857 43.616C83.5857 44.28 83.4537 44.86 83.1897 45.356C82.9257 45.852 82.5497 46.232 82.0617 46.496C81.5817 46.768 81.0217 46.904 80.3817 46.904H79.4817L79.3737 45.608H80.3697C80.9857 45.608 81.4657 45.432 81.8097 45.08C82.1617 44.736 82.3377 44.248 82.3377 43.616V40.016H83.5857V43.616ZM85.5554 36.248H86.7914V44H85.5554V36.248ZM97.9611 42.704C98.2091 42.704 98.4091 42.64 98.5611 42.512C98.7131 42.376 98.7891 42.192 98.7891 41.96V40.016H100.037V42.008C100.037 42.624 99.8491 43.112 99.4731 43.472C99.0971 43.824 98.5931 44 97.9611 44H93.8211C93.1091 44 92.5691 43.816 92.2011 43.448C91.8331 43.072 91.6491 42.544 91.6491 41.864V40.016H92.8851V41.696C92.8851 42.032 92.9651 42.284 93.1251 42.452C93.2851 42.62 93.5371 42.704 93.8811 42.704H97.9611ZM97.4691 37.952V39.104H94.2051V37.952H97.4691ZM104.377 42.704C104.625 42.704 104.821 42.656 104.965 42.56C105.117 42.456 105.193 42.32 105.193 42.152C105.193 42 105.125 41.728 104.989 41.336C104.853 40.944 104.489 39.968 103.897 38.408L105.049 37.868L106.441 41.792C106.561 42.128 106.689 42.364 106.825 42.5C106.969 42.636 107.169 42.704 107.425 42.704H107.701C107.781 42.704 107.821 42.928 107.821 43.376C107.821 43.648 107.809 43.82 107.785 43.892C107.769 43.964 107.741 44 107.701 44H107.377C107.009 44 106.705 43.944 106.465 43.832C106.225 43.72 106.033 43.54 105.889 43.292C105.745 43.54 105.549 43.72 105.301 43.832C105.053 43.944 104.745 44 104.377 44H101.641L101.521 42.704H104.377ZM103.741 36.656V35.48H105.181V36.656H103.741ZM108.152 42.704C108.4 42.704 108.6 42.64 108.752 42.512C108.904 42.376 108.98 42.188 108.98 41.948V36.248H110.228V41.984C110.228 42.616 110.04 43.112 109.664 43.472C109.296 43.824 108.792 44 108.152 44H107.756C107.676 44 107.636 43.792 107.636 43.376C107.636 42.928 107.676 42.704 107.756 42.704H108.152Z" fill="black" fill-opacity="0.5"/>
<path d="M142.572 7.24343C145.11 5.77831 146.921 4.73481 148.439 4.04704C149.927 3.37288 151.027 3.09279 152.118 3.09279C153.21 3.09279 154.309 3.37288 155.798 4.04704C157.316 4.73481 159.127 5.77831 161.664 7.24343L162.621 7.79563C165.158 9.26075 166.967 10.3071 168.322 11.2781C169.65 12.2299 170.442 13.0421 170.988 13.9874C171.534 14.9327 171.841 16.0249 172.002 17.6509C172.165 19.3096 172.167 21.3995 172.167 24.3298V25.4342C172.167 28.3644 172.165 30.4543 172.002 32.1131C171.841 33.739 171.534 34.8312 170.988 35.7765C170.442 36.7218 169.65 37.534 168.322 38.4858C166.967 39.4568 165.158 40.5032 162.621 41.9683L161.664 42.5205C159.127 43.9856 157.316 45.0291 155.798 45.7169C154.309 46.391 153.21 46.6711 152.118 46.6711C151.027 46.6711 149.927 46.391 148.439 45.7169C146.921 45.0291 145.11 43.9856 142.572 42.5205L141.616 41.9683C139.078 40.5032 137.269 39.4568 135.914 38.4858C134.586 37.534 133.794 36.7218 133.248 35.7765C132.703 34.8312 132.395 33.739 132.235 32.1131C132.072 30.4543 132.07 28.3644 132.07 25.4342V24.3298C132.07 21.3995 132.072 19.3096 132.235 17.6509C132.395 16.0249 132.703 14.9327 133.248 13.9874C133.794 13.0421 134.586 12.2299 135.914 11.2781C137.269 10.3071 139.078 9.26075 141.616 7.79563L142.572 7.24343Z" fill="#F0F4FF" stroke="#3664FF" stroke-width="3"/>
<path d="M145.541 32.6035C147.733 34.8915 153.549 38.0947 159.269 32.6035" stroke="#3664FF" stroke-width="2.86" stroke-linecap="round"/>
</svg>
