<svg width="342" height="341" viewBox="0 0 342 341" fill="none" xmlns="http://www.w3.org/2000/svg">
<rect width="342" height="341" fill="#F6F9FF"/>
<rect x="260.5" y="72.5" width="49" height="30" rx="3.5" stroke="#191919"/>
<path d="M273.487 86.424C273.759 86.744 273.951 87.04 274.062 87.312C274.183 87.576 274.243 87.852 274.243 88.14C274.243 88.692 274.047 89.14 273.655 89.484C273.271 89.828 272.731 90 272.035 90H268.723L268.603 88.704H272.035C272.339 88.704 272.575 88.652 272.743 88.548C272.911 88.436 272.995 88.288 272.995 88.104C272.995 87.976 272.959 87.852 272.887 87.732C272.823 87.604 272.707 87.44 272.539 87.24L270.379 84.732L271.255 83.844L273.487 86.424ZM281.729 88.704C281.809 88.704 281.849 88.928 281.849 89.376C281.849 89.792 281.809 90 281.729 90H280.661C280.581 90.912 280.265 91.624 279.713 92.136C279.169 92.648 278.453 92.904 277.565 92.904H276.017L275.909 91.608H277.601C278.169 91.608 278.617 91.464 278.945 91.176C279.273 90.888 279.441 90.496 279.449 90H278.417C277.569 90 276.961 89.828 276.593 89.484C276.225 89.132 276.041 88.584 276.041 87.84C276.041 87.328 276.137 86.876 276.329 86.484C276.529 86.092 276.805 85.788 277.157 85.572C277.517 85.348 277.929 85.236 278.393 85.236C279.105 85.236 279.665 85.476 280.073 85.956C280.481 86.428 280.685 87.076 280.685 87.9V88.704H281.729ZM277.289 87.78C277.289 88.116 277.377 88.356 277.553 88.5C277.729 88.636 278.037 88.704 278.477 88.704H279.449V87.924C279.449 87.452 279.353 87.096 279.161 86.856C278.969 86.608 278.693 86.484 278.333 86.484C278.005 86.484 277.749 86.604 277.565 86.844C277.381 87.076 277.289 87.388 277.289 87.78ZM282.591 88.704C283.199 88.704 283.699 88.66 284.091 88.572C284.491 88.484 284.899 88.32 285.315 88.08L286.827 87.216C286.723 86.84 286.575 86.584 286.383 86.448C286.191 86.304 285.903 86.232 285.519 86.232H282.747L282.903 84.936H285.735C286.231 84.936 286.635 85.02 286.947 85.188C287.259 85.348 287.519 85.62 287.727 86.004C287.935 86.388 288.119 86.928 288.279 87.624L285.891 89.124C285.355 89.46 284.839 89.692 284.343 89.82C283.855 89.94 283.251 90 282.531 90H281.727C281.647 90 281.607 89.792 281.607 89.376C281.607 88.928 281.647 88.704 281.727 88.704H282.591ZM283.815 92.58V91.404H285.255V92.58H283.815ZM295.405 88.704C295.485 88.704 295.525 88.928 295.525 89.376C295.525 89.792 295.485 90 295.405 90H294.337C294.257 90.912 293.941 91.624 293.389 92.136C292.845 92.648 292.129 92.904 291.241 92.904H289.693L289.585 91.608H291.277C291.845 91.608 292.293 91.464 292.621 91.176C292.949 90.888 293.117 90.496 293.125 90H292.093C291.245 90 290.637 89.828 290.269 89.484C289.901 89.132 289.717 88.584 289.717 87.84C289.717 87.328 289.813 86.876 290.005 86.484C290.205 86.092 290.481 85.788 290.833 85.572C291.193 85.348 291.605 85.236 292.069 85.236C292.781 85.236 293.341 85.476 293.749 85.956C294.157 86.428 294.361 87.076 294.361 87.9V88.704H295.405ZM290.965 87.78C290.965 88.116 291.053 88.356 291.229 88.5C291.405 88.636 291.713 88.704 292.153 88.704H293.125V87.924C293.125 87.452 293.029 87.096 292.837 86.856C292.645 86.608 292.369 86.484 292.009 86.484C291.681 86.484 291.425 86.604 291.241 86.844C291.057 87.076 290.965 87.388 290.965 87.78ZM295.69 88.704C295.954 88.704 296.142 88.652 296.254 88.548C296.374 88.436 296.434 88.264 296.434 88.032V87.612C296.434 86.844 296.646 86.236 297.07 85.788C297.502 85.34 298.086 85.116 298.822 85.116C299.558 85.116 300.122 85.332 300.514 85.764C300.906 86.188 301.102 86.8 301.102 87.6C301.102 88.36 300.894 88.952 300.478 89.376C300.07 89.792 299.502 90 298.774 90C298.366 90 298.022 89.944 297.742 89.832C297.462 89.712 297.258 89.548 297.13 89.34C296.986 89.572 296.798 89.74 296.566 89.844C296.342 89.948 296.05 90 295.69 90H295.402C295.322 90 295.282 89.792 295.282 89.376C295.282 88.928 295.322 88.704 295.402 88.704H295.69ZM299.866 87.6C299.866 87.184 299.774 86.876 299.59 86.676C299.414 86.468 299.142 86.364 298.774 86.364C298.406 86.364 298.13 86.468 297.946 86.676C297.77 86.876 297.682 87.188 297.682 87.612C297.682 87.964 297.774 88.236 297.958 88.428C298.142 88.612 298.414 88.704 298.774 88.704C299.142 88.704 299.414 88.616 299.59 88.44C299.774 88.256 299.866 87.976 299.866 87.6Z" fill="#191919"/>
<rect x="188.5" y="32.5" width="81" height="30" rx="3.5" stroke="#191919" stroke-opacity="0.5"/>
<path d="M203.282 48.704C203.53 48.704 203.73 48.64 203.882 48.512C204.034 48.376 204.11 48.192 204.11 47.96V46.016H205.358V48.008C205.358 48.624 205.17 49.112 204.794 49.472C204.418 49.824 203.914 50 203.282 50H199.142C198.43 50 197.89 49.816 197.522 49.448C197.154 49.072 196.97 48.544 196.97 47.864V46.016H198.206V47.696C198.206 48.032 198.286 48.284 198.446 48.452C198.606 48.62 198.858 48.704 199.202 48.704H203.282ZM202.79 43.952V45.104H199.526V43.952H202.79ZM209.044 49.616C209.044 50.28 208.912 50.86 208.648 51.356C208.384 51.852 208.008 52.232 207.52 52.496C207.04 52.768 206.48 52.904 205.84 52.904H204.94L204.832 51.608H205.828C206.444 51.608 206.924 51.432 207.268 51.08C207.62 50.736 207.796 50.248 207.796 49.616V46.016H209.044V49.616ZM213.258 48.704C213.298 48.704 213.326 48.748 213.342 48.836C213.366 48.924 213.378 49.104 213.378 49.376C213.378 49.632 213.366 49.8 213.342 49.88C213.326 49.96 213.298 50 213.258 50H212.898C212.258 50 211.774 49.812 211.446 49.436C211.118 49.06 210.954 48.528 210.954 47.84V42.248H212.19V47.756C212.19 48.084 212.25 48.324 212.37 48.476C212.498 48.628 212.698 48.704 212.97 48.704H213.258ZM216.538 48.704C216.842 48.704 217.078 48.652 217.246 48.548C217.414 48.436 217.498 48.288 217.498 48.104C217.498 47.952 217.462 47.812 217.39 47.684C217.318 47.556 217.202 47.408 217.042 47.24L214.33 44.564V43.52L218.77 41.78L219.142 42.968L215.818 44.24L217.978 46.424C218.482 46.92 218.734 47.492 218.734 48.14C218.734 48.692 218.542 49.14 218.158 49.484C217.774 49.828 217.234 50 216.538 50H213.262C213.182 50 213.142 49.792 213.142 49.376C213.142 48.928 213.182 48.704 213.262 48.704H216.538ZM229.848 48.704C230.104 48.704 230.308 48.64 230.46 48.512C230.62 48.376 230.7 48.192 230.7 47.96V46.016H231.948V47.9C231.948 48.436 232.224 48.704 232.776 48.704H233.184C233.264 48.704 233.304 48.928 233.304 49.376C233.304 49.792 233.264 50 233.184 50H232.728C232.016 50 231.544 49.784 231.312 49.352C231.032 49.784 230.544 50 229.848 50H225.732C225.02 50 224.48 49.816 224.112 49.448C223.744 49.072 223.56 48.544 223.56 47.864V46.016H224.796V47.696C224.796 48.032 224.876 48.284 225.036 48.452C225.196 48.62 225.448 48.704 225.792 48.704H229.848ZM229.38 43.952V45.104H226.116V43.952H229.38ZM234.624 48.704C234.88 48.704 235.084 48.64 235.236 48.512C235.396 48.376 235.476 48.188 235.476 47.948V46.016H236.724V47.9C236.724 48.436 237 48.704 237.552 48.704H237.96C238.04 48.704 238.08 48.924 238.08 49.364C238.08 49.788 238.04 50 237.96 50H237.504C236.792 50 236.32 49.784 236.088 49.352C235.808 49.784 235.32 50 234.624 50H233.184C233.104 50 233.064 49.792 233.064 49.376C233.064 48.928 233.104 48.704 233.184 48.704H234.624ZM235.68 51.404V52.556H232.416V51.404H235.68ZM238.877 48.704C239.309 48.704 239.633 48.696 239.849 48.68C240.065 48.656 240.237 48.62 240.365 48.572L238.877 46.412L239.525 45.2H242.561C243.057 45.2 243.457 45.316 243.761 45.548C244.065 45.78 244.217 46.12 244.217 46.568C244.217 46.896 244.125 47.208 243.941 47.504C243.765 47.792 243.417 48.164 242.897 48.62C243.073 48.676 243.425 48.704 243.953 48.704H245.201C245.241 48.704 245.269 48.748 245.285 48.836C245.309 48.924 245.321 49.104 245.321 49.376C245.321 49.632 245.309 49.8 245.285 49.88C245.269 49.96 245.241 50 245.201 50H243.953C243.217 50 242.685 49.96 242.357 49.88C242.029 49.8 241.745 49.648 241.505 49.424C241.169 49.64 240.797 49.792 240.389 49.88C239.981 49.96 239.461 50 238.829 50H237.965C237.885 50 237.845 49.792 237.845 49.376C237.845 48.928 237.885 48.704 237.965 48.704H238.877ZM243.029 46.82C243.029 46.684 242.973 46.58 242.861 46.508C242.749 46.436 242.593 46.4 242.393 46.4H240.269L241.625 48.392C242.177 47.92 242.549 47.576 242.741 47.36C242.933 47.144 243.029 46.964 243.029 46.82ZM245.735 48.704C246.063 48.704 246.311 48.628 246.479 48.476C246.655 48.324 246.743 48.116 246.743 47.852V46.016H247.979V47.804C247.979 48.028 248.007 48.192 248.063 48.296C248.127 48.4 248.231 48.484 248.375 48.548C249.095 47.284 249.763 46.372 250.379 45.812C251.003 45.252 251.655 44.972 252.335 44.972C252.775 44.972 253.171 45.08 253.523 45.296C253.875 45.504 254.147 45.8 254.339 46.184C254.539 46.56 254.639 46.992 254.639 47.48C254.639 48.24 254.403 48.852 253.931 49.316C253.467 49.772 252.843 50 252.059 50H248.927C248.503 50 248.159 49.948 247.895 49.844C247.639 49.732 247.443 49.568 247.307 49.352C247.155 49.576 246.951 49.74 246.695 49.844C246.447 49.948 246.127 50 245.735 50H245.195C245.115 50 245.075 49.792 245.075 49.376C245.075 48.928 245.115 48.704 245.195 48.704H245.735ZM252.059 48.704C252.483 48.704 252.811 48.596 253.043 48.38C253.283 48.164 253.403 47.864 253.403 47.48C253.403 47.104 253.291 46.8 253.067 46.568C252.851 46.336 252.575 46.22 252.239 46.22C251.847 46.22 251.439 46.42 251.015 46.82C250.599 47.22 250.127 47.848 249.599 48.704H252.059ZM251.555 43.772V42.596H252.995V43.772H251.555ZM261.099 49.568C261.099 50.256 260.971 50.848 260.715 51.344C260.459 51.848 260.095 52.232 259.623 52.496C259.159 52.768 258.611 52.904 257.979 52.904H256.431L256.323 51.608H258.015C258.583 51.608 259.031 51.464 259.359 51.176C259.687 50.888 259.855 50.496 259.863 50H258.831C257.983 50 257.375 49.828 257.007 49.484C256.639 49.132 256.455 48.584 256.455 47.84C256.455 47.328 256.551 46.876 256.743 46.484C256.943 46.092 257.219 45.788 257.571 45.572C257.931 45.348 258.343 45.236 258.807 45.236C259.519 45.236 260.079 45.476 260.487 45.956C260.895 46.428 261.099 47.076 261.099 47.9V49.568ZM257.703 47.78C257.703 48.116 257.791 48.356 257.967 48.5C258.143 48.636 258.451 48.704 258.891 48.704H259.863V47.924C259.863 47.452 259.767 47.096 259.575 46.856C259.383 46.608 259.107 46.484 258.747 46.484C258.419 46.484 258.163 46.604 257.979 46.844C257.795 47.076 257.703 47.388 257.703 47.78Z" fill="#191919" fill-opacity="0.5"/>
<rect x="278" y="32" width="32" height="32" rx="4" fill="#3664FF"/>
<path d="M299.034 49.2916C298.684 49.6333 298.484 50.125 298.534 50.65C298.609 51.55 299.434 52.2083 300.334 52.2083H301.917V53.2C301.917 54.925 300.509 56.3333 298.784 56.3333H290.359C290.617 56.1166 290.842 55.85 291.017 55.55C291.326 55.05 291.501 54.4583 291.501 53.8333C291.501 51.9916 290.009 50.5 288.167 50.5C287.384 50.5 286.659 50.775 286.084 51.2333V47.5917C286.084 45.8667 287.492 44.4583 289.217 44.4583H298.784C300.509 44.4583 301.917 45.8667 301.917 47.5917V48.7917H300.234C299.767 48.7917 299.342 48.975 299.034 49.2916Z" stroke="white" stroke-width="1.5" stroke-linecap="round" stroke-linejoin="round"/>
<path d="M286.084 48.3416V44.5334C286.084 43.5417 286.692 42.6583 287.617 42.3083L294.234 39.8083C295.267 39.4167 296.376 40.1833 296.376 41.2917V44.4583" stroke="white" stroke-width="1.5" stroke-linecap="round" stroke-linejoin="round"/>
<path d="M302.8 49.6418V51.3585C302.8 51.8168 302.433 52.1918 301.966 52.2085H300.333C299.433 52.2085 298.608 51.5501 298.533 50.6501C298.483 50.1251 298.683 49.6335 299.033 49.2918C299.341 48.9751 299.766 48.7918 300.233 48.7918H301.966C302.433 48.8085 302.8 49.1834 302.8 49.6418Z" stroke="white" stroke-width="1.5" stroke-linecap="round" stroke-linejoin="round"/>
<path d="M289.834 48H295.667" stroke="white" stroke-width="1.5" stroke-linecap="round" stroke-linejoin="round"/>
<path d="M291.501 53.8333C291.501 54.4583 291.326 55.05 291.017 55.55C290.842 55.85 290.617 56.1167 290.359 56.3333C289.776 56.8583 289.009 57.1667 288.167 57.1667C286.951 57.1667 285.892 56.5167 285.317 55.55C285.009 55.05 284.834 54.4583 284.834 53.8333C284.834 52.7833 285.317 51.8417 286.084 51.2333C286.659 50.775 287.384 50.5 288.167 50.5C290.009 50.5 291.501 51.9917 291.501 53.8333Z" stroke="white" stroke-width="1.5" stroke-miterlimit="10" stroke-linecap="round" stroke-linejoin="round"/>
<path d="M286.869 53.8329L287.694 54.6579L289.469 53.0163" stroke="white" stroke-width="1.5" stroke-linecap="round" stroke-linejoin="round"/>
<rect x="216.5" y="175.5" width="93" height="30" rx="3.5" stroke="#191919"/>
<path d="M231.935 193.12C231.935 192.688 231.683 192.472 231.179 192.472H228.899V190.216C228.899 189.528 229.103 188.972 229.511 188.548C229.927 188.124 230.487 187.912 231.191 187.912H232.751L232.835 189.16H231.179C230.867 189.16 230.615 189.256 230.423 189.448C230.239 189.64 230.147 189.888 230.147 190.192V191.188H231.395C232.587 191.188 233.183 191.812 233.183 193.06C233.183 193.572 233.035 194.044 232.739 194.476C232.451 194.916 232.051 195.264 231.539 195.52C231.035 195.776 230.475 195.904 229.859 195.904H228.947C227.923 195.904 227.135 195.608 226.583 195.016C226.031 194.432 225.755 193.608 225.755 192.544V190.216H226.991V192.52C226.991 193.912 227.647 194.608 228.959 194.608H229.859C230.499 194.608 231.003 194.468 231.371 194.188C231.747 193.916 231.935 193.56 231.935 193.12ZM237.325 192.616C237.325 193.28 237.193 193.86 236.929 194.356C236.665 194.852 236.289 195.232 235.801 195.496C235.321 195.768 234.761 195.904 234.121 195.904H233.773L233.665 194.608H234.109C234.725 194.608 235.205 194.432 235.549 194.08C235.901 193.736 236.077 193.248 236.077 192.616V189.016H237.325V192.616ZM244.815 191.704C244.895 191.704 244.935 191.928 244.935 192.376C244.935 192.792 244.895 193 244.815 193H243.747C243.667 193.912 243.351 194.624 242.799 195.136C242.255 195.648 241.539 195.904 240.651 195.904H239.103L238.995 194.608H240.687C241.255 194.608 241.703 194.464 242.031 194.176C242.359 193.888 242.527 193.496 242.535 193H241.503C240.655 193 240.047 192.828 239.679 192.484C239.311 192.132 239.127 191.584 239.127 190.84C239.127 190.328 239.223 189.876 239.415 189.484C239.615 189.092 239.891 188.788 240.243 188.572C240.603 188.348 241.015 188.236 241.479 188.236C242.191 188.236 242.751 188.476 243.159 188.956C243.567 189.428 243.771 190.076 243.771 190.9V191.704H244.815ZM240.375 190.78C240.375 191.116 240.463 191.356 240.639 191.5C240.815 191.636 241.123 191.704 241.563 191.704H242.535V190.924C242.535 190.452 242.439 190.096 242.247 189.856C242.055 189.608 241.779 189.484 241.419 189.484C241.091 189.484 240.835 189.604 240.651 189.844C240.467 190.076 240.375 190.388 240.375 190.78ZM246.553 191.704C246.801 191.704 246.965 191.696 247.045 191.68C246.589 191.48 246.261 191.252 246.061 190.996C245.869 190.732 245.773 190.396 245.773 189.988C245.773 189.548 245.873 189.148 246.073 188.788C246.281 188.428 246.561 188.148 246.913 187.948C247.273 187.74 247.677 187.636 248.125 187.636C248.877 187.636 249.461 187.868 249.877 188.332C250.301 188.796 250.513 189.436 250.513 190.252V190.66C250.513 192.22 249.469 193 247.381 193H244.812C244.732 193 244.692 192.792 244.692 192.376C244.692 191.928 244.732 191.704 244.812 191.704H246.553ZM248.917 191.524C249.157 191.308 249.277 190.988 249.277 190.564V190.324C249.277 189.364 248.889 188.884 248.113 188.884C247.809 188.884 247.549 188.992 247.333 189.208C247.117 189.416 247.009 189.672 247.009 189.976C247.009 190.208 247.065 190.408 247.177 190.576C247.297 190.736 247.493 190.892 247.765 191.044C248.037 191.196 248.421 191.356 248.917 191.524ZM247.345 186.448V185.272H248.785V186.448H247.345ZM263.547 191.704C263.627 191.704 263.667 191.928 263.667 192.376C263.667 192.792 263.627 193 263.547 193H262.371C262.459 193.104 262.503 193.264 262.503 193.48C262.503 193.952 262.367 194.372 262.095 194.74C261.823 195.108 261.439 195.392 260.943 195.592C260.447 195.8 259.875 195.904 259.227 195.904H258.315C257.291 195.904 256.503 195.608 255.951 195.016C255.399 194.432 255.123 193.608 255.123 192.544V190.216H256.359V192.52C256.359 193.912 257.015 194.608 258.327 194.608H259.227C259.907 194.608 260.415 194.512 260.751 194.32C261.087 194.128 261.255 193.852 261.255 193.492C261.255 193.3 261.203 193.16 261.099 193.072C261.003 192.992 260.847 192.952 260.631 192.952H258.471L258.591 191.704H263.547ZM266.851 190.984C266.851 191.616 266.663 192.112 266.287 192.472C265.911 192.824 265.407 193 264.775 193H263.551C263.471 193 263.431 192.792 263.431 192.376C263.431 191.928 263.471 191.704 263.551 191.704H264.775C265.023 191.704 265.223 191.64 265.375 191.512C265.527 191.376 265.603 191.188 265.603 190.948V189.016H266.851V190.984ZM267.175 186.496V187.648H263.911V186.496H267.175ZM270.536 192.616C270.536 193.28 270.404 193.86 270.14 194.356C269.876 194.852 269.5 195.232 269.012 195.496C268.532 195.768 267.972 195.904 267.332 195.904H266.432L266.324 194.608H267.32C267.936 194.608 268.416 194.432 268.76 194.08C269.112 193.736 269.288 193.248 269.288 192.616V189.016H270.536V192.616ZM278.026 191.704C278.106 191.704 278.146 191.928 278.146 192.376C278.146 192.792 278.106 193 278.026 193H276.958C276.878 193.912 276.562 194.624 276.01 195.136C275.466 195.648 274.75 195.904 273.862 195.904H272.314L272.206 194.608H273.898C274.466 194.608 274.914 194.464 275.242 194.176C275.57 193.888 275.738 193.496 275.746 193H274.714C273.866 193 273.258 192.828 272.89 192.484C272.522 192.132 272.338 191.584 272.338 190.84C272.338 190.328 272.434 189.876 272.626 189.484C272.826 189.092 273.102 188.788 273.454 188.572C273.814 188.348 274.226 188.236 274.69 188.236C275.402 188.236 275.962 188.476 276.37 188.956C276.778 189.428 276.982 190.076 276.982 190.9V191.704H278.026ZM273.586 190.78C273.586 191.116 273.674 191.356 273.85 191.5C274.026 191.636 274.334 191.704 274.774 191.704H275.746V190.924C275.746 190.452 275.65 190.096 275.458 189.856C275.266 189.608 274.99 189.484 274.63 189.484C274.302 189.484 274.046 189.604 273.862 189.844C273.678 190.076 273.586 190.388 273.586 190.78ZM278.563 191.704C278.891 191.704 279.139 191.628 279.307 191.476C279.483 191.324 279.571 191.116 279.571 190.852V189.016H280.807V190.804C280.807 191.028 280.835 191.192 280.891 191.296C280.955 191.4 281.059 191.484 281.203 191.548C281.923 190.284 282.591 189.372 283.207 188.812C283.831 188.252 284.483 187.972 285.163 187.972C285.603 187.972 285.999 188.08 286.351 188.296C286.703 188.504 286.975 188.8 287.167 189.184C287.367 189.56 287.467 189.992 287.467 190.48C287.467 191.24 287.231 191.852 286.759 192.316C286.295 192.772 285.671 193 284.887 193H281.755C281.331 193 280.987 192.948 280.723 192.844C280.467 192.732 280.271 192.568 280.135 192.352C279.983 192.576 279.779 192.74 279.523 192.844C279.275 192.948 278.955 193 278.563 193H278.023C277.943 193 277.903 192.792 277.903 192.376C277.903 191.928 277.943 191.704 278.023 191.704H278.563ZM284.887 191.704C285.311 191.704 285.639 191.596 285.871 191.38C286.111 191.164 286.231 190.864 286.231 190.48C286.231 190.104 286.119 189.8 285.895 189.568C285.679 189.336 285.403 189.22 285.067 189.22C284.675 189.22 284.267 189.42 283.843 189.82C283.427 190.22 282.955 190.848 282.427 191.704H284.887ZM296.728 190.672C296.728 191.04 296.792 191.304 296.92 191.464C297.048 191.624 297.236 191.704 297.484 191.704H297.82C297.86 191.704 297.888 191.748 297.904 191.836C297.928 191.924 297.94 192.104 297.94 192.376C297.94 192.632 297.928 192.8 297.904 192.88C297.888 192.96 297.86 193 297.82 193H297.484C297.044 193 296.684 192.92 296.404 192.76C296.132 192.592 295.944 192.324 295.84 191.956C295.672 192.116 295.444 192.236 295.156 192.316C294.868 192.396 294.564 192.436 294.244 192.436C293.54 192.436 293.004 192.248 292.636 191.872C292.268 191.488 292.084 190.924 292.084 190.18C292.084 189.732 292.184 189.32 292.384 188.944C292.584 188.56 292.864 188.256 293.224 188.032C293.592 187.8 294.012 187.684 294.484 187.684H295.492V186.88H296.728V190.672ZM293.32 190.168C293.32 190.816 293.648 191.14 294.304 191.14C294.68 191.14 294.972 191.076 295.18 190.948C295.388 190.812 295.492 190.628 295.492 190.396V188.932H294.484C294.116 188.932 293.828 189.04 293.62 189.256C293.42 189.464 293.32 189.768 293.32 190.168ZM301.116 190.984C301.116 191.616 300.928 192.112 300.552 192.472C300.176 192.824 299.672 193 299.04 193H297.816C297.736 193 297.696 192.792 297.696 192.376C297.696 191.928 297.736 191.704 297.816 191.704H299.04C299.288 191.704 299.488 191.64 299.64 191.512C299.792 191.376 299.868 191.188 299.868 190.948V189.016H301.116V190.984ZM298.056 195.58V194.404H299.496V195.58H298.056Z" fill="#191919"/>
<rect x="164.5" y="136" width="105" height="30" rx="3.5" stroke="#191919" stroke-opacity="0.5"/>
<path d="M179.81 152.204C180.058 152.204 180.258 152.14 180.41 152.012C180.562 151.876 180.638 151.692 180.638 151.46V149.516H181.886V151.508C181.886 152.124 181.698 152.612 181.322 152.972C180.946 153.324 180.442 153.5 179.81 153.5H175.67C174.958 153.5 174.418 153.316 174.05 152.948C173.682 152.572 173.498 152.044 173.498 151.364V149.516H174.734V151.196C174.734 151.532 174.814 151.784 174.974 151.952C175.134 152.12 175.386 152.204 175.73 152.204H179.81ZM179.318 147.452V148.604H176.054V147.452H179.318ZM185.571 153.116C185.571 153.78 185.439 154.36 185.175 154.856C184.911 155.352 184.535 155.732 184.047 155.996C183.567 156.268 183.007 156.404 182.367 156.404H181.467L181.359 155.108H182.355C182.971 155.108 183.451 154.932 183.795 154.58C184.147 154.236 184.323 153.748 184.323 153.116V149.516H185.571V153.116ZM189.785 152.204C189.825 152.204 189.853 152.248 189.869 152.336C189.893 152.424 189.905 152.604 189.905 152.876C189.905 153.132 189.893 153.3 189.869 153.38C189.853 153.46 189.825 153.5 189.785 153.5H189.425C188.785 153.5 188.301 153.312 187.973 152.936C187.645 152.56 187.481 152.028 187.481 151.34V145.748H188.717V151.256C188.717 151.584 188.777 151.824 188.897 151.976C189.025 152.128 189.225 152.204 189.497 152.204H189.785ZM193.065 152.204C193.369 152.204 193.605 152.152 193.773 152.048C193.941 151.936 194.025 151.788 194.025 151.604C194.025 151.452 193.989 151.312 193.917 151.184C193.845 151.056 193.729 150.908 193.569 150.74L190.857 148.064V147.02L195.297 145.28L195.669 146.468L192.345 147.74L194.505 149.924C195.009 150.42 195.261 150.992 195.261 151.64C195.261 152.192 195.069 152.64 194.685 152.984C194.301 153.328 193.761 153.5 193.065 153.5H189.789C189.709 153.5 189.669 153.292 189.669 152.876C189.669 152.428 189.709 152.204 189.789 152.204H193.065ZM206.376 152.204C206.632 152.204 206.836 152.14 206.988 152.012C207.148 151.876 207.228 151.692 207.228 151.46V149.516H208.476V151.4C208.476 151.936 208.752 152.204 209.304 152.204H209.712C209.792 152.204 209.832 152.428 209.832 152.876C209.832 153.292 209.792 153.5 209.712 153.5H209.256C208.544 153.5 208.072 153.284 207.84 152.852C207.56 153.284 207.072 153.5 206.376 153.5H202.26C201.548 153.5 201.008 153.316 200.64 152.948C200.272 152.572 200.088 152.044 200.088 151.364V149.516H201.324V151.196C201.324 151.532 201.404 151.784 201.564 151.952C201.724 152.12 201.976 152.204 202.32 152.204H206.376ZM205.908 147.452V148.604H202.644V147.452H205.908ZM211.331 152.204C211.131 152.044 210.971 151.832 210.851 151.568C210.731 151.296 210.671 151.02 210.671 150.74C210.671 150.308 210.775 149.912 210.983 149.552C211.191 149.192 211.475 148.908 211.835 148.7C212.195 148.492 212.595 148.388 213.035 148.388C213.491 148.388 213.895 148.484 214.247 148.676C214.607 148.868 214.883 149.14 215.075 149.492C215.275 149.836 215.375 150.232 215.375 150.68C215.375 151.32 215.139 151.828 214.667 152.204H216.347C216.427 152.204 216.467 152.428 216.467 152.876C216.467 153.292 216.427 153.5 216.347 153.5H214.739C214.259 153.5 213.891 153.484 213.635 153.452C213.387 153.42 213.191 153.364 213.047 153.284C212.895 153.364 212.683 153.42 212.411 153.452C212.147 153.484 211.787 153.5 211.331 153.5H209.711C209.631 153.5 209.591 153.292 209.591 152.876C209.591 152.428 209.631 152.204 209.711 152.204H211.331ZM213.035 149.636C212.699 149.636 212.427 149.74 212.219 149.948C212.019 150.156 211.919 150.42 211.919 150.74C211.919 151.036 212.015 151.312 212.207 151.568C212.407 151.824 212.683 152.032 213.035 152.192C213.395 152.032 213.667 151.824 213.851 151.568C214.043 151.304 214.139 151.028 214.139 150.74C214.139 150.396 214.039 150.128 213.839 149.936C213.647 149.736 213.379 149.636 213.035 149.636ZM212.315 147.068V145.892H213.755V147.068H212.315ZM217.784 152.204C218.04 152.204 218.244 152.14 218.396 152.012C218.556 151.876 218.636 151.688 218.636 151.448V149.516H219.884V151.4C219.884 151.936 220.16 152.204 220.712 152.204H221.12C221.2 152.204 221.24 152.424 221.24 152.864C221.24 153.288 221.2 153.5 221.12 153.5H220.664C219.952 153.5 219.48 153.284 219.248 152.852C218.968 153.284 218.48 153.5 217.784 153.5H216.344C216.264 153.5 216.224 153.292 216.224 152.876C216.224 152.428 216.264 152.204 216.344 152.204H217.784ZM218.84 154.904V156.056H215.576V154.904H218.84ZM226.153 143.66L226.381 144.44L222.193 146.168V145.316L226.153 143.66ZM224.401 152.204C224.705 152.204 224.941 152.152 225.109 152.048C225.277 151.936 225.361 151.788 225.361 151.604C225.361 151.452 225.325 151.312 225.253 151.184C225.181 151.056 225.065 150.908 224.905 150.74L222.193 148.064V147.02L226.633 145.28L227.005 146.468L223.681 147.74L225.841 149.924C226.345 150.42 226.597 150.992 226.597 151.64C226.597 152.192 226.405 152.64 226.021 152.984C225.637 153.328 225.097 153.5 224.401 153.5H221.125C221.045 153.5 221.005 153.292 221.005 152.876C221.005 152.428 221.045 152.204 221.125 152.204H224.401ZM234.615 156.404C233.591 156.404 232.803 156.108 232.251 155.516C231.699 154.932 231.423 154.108 231.423 153.044V150.716H232.659V153.02C232.659 154.412 233.315 155.108 234.627 155.108H235.119C235.759 155.108 236.263 154.932 236.631 154.58C236.999 154.228 237.183 153.744 237.183 153.128V145.748H238.431V151.46C238.431 151.692 238.499 151.876 238.635 152.012C238.779 152.14 238.983 152.204 239.247 152.204H239.523C239.603 152.204 239.643 152.428 239.643 152.876C239.643 153.292 239.603 153.5 239.523 153.5H239.295C239.111 153.5 238.939 153.476 238.779 153.428C238.627 153.38 238.511 153.32 238.431 153.248V153.308C238.415 153.908 238.267 154.444 237.987 154.916C237.707 155.388 237.319 155.752 236.823 156.008C236.327 156.272 235.759 156.404 235.119 156.404H234.615ZM242.823 151.484C242.823 152.116 242.635 152.612 242.259 152.972C241.883 153.324 241.379 153.5 240.747 153.5H239.523C239.443 153.5 239.403 153.292 239.403 152.876C239.403 152.428 239.443 152.204 239.523 152.204H240.747C240.995 152.204 241.195 152.14 241.347 152.012C241.499 151.876 241.575 151.688 241.575 151.448V149.516H242.823V151.484ZM242.115 154.904V156.056H238.851V154.904H242.115ZM250.307 152.204C250.387 152.204 250.427 152.428 250.427 152.876C250.427 153.292 250.387 153.5 250.307 153.5H249.239C249.159 154.412 248.843 155.124 248.291 155.636C247.747 156.148 247.031 156.404 246.143 156.404H244.595L244.487 155.108H246.179C246.747 155.108 247.195 154.964 247.523 154.676C247.851 154.388 248.019 153.996 248.027 153.5H246.995C246.147 153.5 245.539 153.328 245.171 152.984C244.803 152.632 244.619 152.084 244.619 151.34C244.619 150.828 244.715 150.376 244.907 149.984C245.107 149.592 245.383 149.288 245.735 149.072C246.095 148.848 246.507 148.736 246.971 148.736C247.683 148.736 248.243 148.976 248.651 149.456C249.059 149.928 249.263 150.576 249.263 151.4V152.204H250.307ZM245.867 151.28C245.867 151.616 245.955 151.856 246.131 152C246.307 152.136 246.615 152.204 247.055 152.204H248.027V151.424C248.027 150.952 247.931 150.596 247.739 150.356C247.547 150.108 247.271 149.984 246.911 149.984C246.583 149.984 246.327 150.104 246.143 150.344C245.959 150.576 245.867 150.888 245.867 151.28ZM254.313 148.436C254.809 148.436 255.213 148.52 255.525 148.688C255.837 148.848 256.097 149.12 256.305 149.504C256.513 149.888 256.697 150.428 256.857 151.124L256.005 151.652C256.109 151.852 256.241 151.996 256.401 152.084C256.569 152.164 256.793 152.204 257.073 152.204H257.817C257.897 152.204 257.937 152.428 257.937 152.876C257.937 153.148 257.925 153.32 257.901 153.392C257.877 153.464 257.849 153.5 257.817 153.5H257.025C256.561 153.5 256.181 153.408 255.885 153.224C255.597 153.032 255.333 152.7 255.093 152.228L254.469 152.624C253.933 152.96 253.417 153.192 252.921 153.32C252.433 153.44 251.829 153.5 251.109 153.5H250.305C250.225 153.5 250.185 153.292 250.185 152.876C250.185 152.428 250.225 152.204 250.305 152.204H251.169C251.777 152.204 252.277 152.16 252.669 152.072C253.069 151.984 253.477 151.82 253.893 151.58L255.405 150.716C255.301 150.34 255.153 150.084 254.961 149.948C254.769 149.804 254.481 149.732 254.097 149.732H251.325L251.481 148.436H254.313ZM261.116 151.484C261.116 152.116 260.928 152.612 260.552 152.972C260.176 153.324 259.672 153.5 259.04 153.5H257.816C257.736 153.5 257.696 153.292 257.696 152.876C257.696 152.428 257.736 152.204 257.816 152.204H259.04C259.288 152.204 259.488 152.14 259.64 152.012C259.792 151.876 259.868 151.688 259.868 151.448V149.516H261.116V151.484ZM261.44 146.996V148.148H258.176V146.996H261.44Z" fill="#191919" fill-opacity="0.5"/>
<rect x="278" y="135" width="32" height="32" rx="4" fill="#3664FF"/>
<path d="M291.083 156.833H296.916C298.858 156.833 299.833 155.858 299.833 153.917V148.083C299.833 146.142 298.858 145.167 296.916 145.167H291.083C289.141 145.167 288.166 146.142 288.166 148.083V153.917C288.166 155.858 289.141 156.833 291.083 156.833Z" stroke="white" stroke-width="1.5" stroke-miterlimit="10" stroke-linecap="round" stroke-linejoin="round"/>
<path d="M297.333 142.667H290.666" stroke="white" stroke-width="1.5" stroke-miterlimit="10" stroke-linecap="round" stroke-linejoin="round"/>
<path d="M297.333 159.333H290.666" stroke="white" stroke-width="1.5" stroke-miterlimit="10" stroke-linecap="round" stroke-linejoin="round"/>
<path d="M293.584 148.917V151.417H296.084" stroke="white" stroke-width="1.5" stroke-miterlimit="10" stroke-linecap="round" stroke-linejoin="round"/>
<rect x="117.5" y="278.5" width="192" height="30" rx="3.5" stroke="#191919"/>
<path d="M129.901 298.904C128.877 298.904 128.089 298.608 127.537 298.016C126.985 297.432 126.709 296.608 126.709 295.544V293.216H127.945V295.52C127.945 296.912 128.601 297.608 129.913 297.608H130.405C131.045 297.608 131.549 297.432 131.917 297.08C132.285 296.728 132.469 296.244 132.469 295.628V292.016H133.717V295.52C133.717 296.224 133.577 296.828 133.297 297.332C133.017 297.844 132.625 298.232 132.121 298.496C131.625 298.768 131.053 298.904 130.405 298.904H129.901ZM129.253 291.728V290.552H130.693V291.728H129.253ZM137.945 294.704C137.985 294.704 138.013 294.748 138.029 294.836C138.053 294.924 138.065 295.104 138.065 295.376C138.065 295.632 138.053 295.8 138.029 295.88C138.013 295.96 137.985 296 137.945 296H137.585C136.945 296 136.461 295.812 136.133 295.436C135.805 295.06 135.641 294.528 135.641 293.84V288.248H136.877V293.756C136.877 294.084 136.937 294.324 137.057 294.476C137.185 294.628 137.385 294.704 137.657 294.704H137.945ZM138.237 294.704C138.501 294.704 138.689 294.652 138.801 294.548C138.921 294.436 138.981 294.264 138.981 294.032V293.612C138.981 292.844 139.193 292.236 139.617 291.788C140.049 291.34 140.633 291.116 141.369 291.116C142.105 291.116 142.669 291.332 143.061 291.764C143.453 292.188 143.649 292.8 143.649 293.6C143.649 294.36 143.441 294.952 143.025 295.376C142.617 295.792 142.049 296 141.321 296C140.913 296 140.569 295.944 140.289 295.832C140.009 295.712 139.805 295.548 139.677 295.34C139.533 295.572 139.345 295.74 139.113 295.844C138.889 295.948 138.597 296 138.237 296H137.949C137.869 296 137.829 295.792 137.829 295.376C137.829 294.928 137.869 294.704 137.949 294.704H138.237ZM142.413 293.6C142.413 293.184 142.321 292.876 142.137 292.676C141.961 292.468 141.689 292.364 141.321 292.364C140.953 292.364 140.677 292.468 140.493 292.676C140.317 292.876 140.229 293.188 140.229 293.612C140.229 293.964 140.321 294.236 140.505 294.428C140.689 294.612 140.961 294.704 141.321 294.704C141.689 294.704 141.961 294.616 142.137 294.44C142.321 294.256 142.413 293.976 142.413 293.6ZM151.147 294.704C151.227 294.704 151.267 294.928 151.267 295.376C151.267 295.792 151.227 296 151.147 296H150.079C149.999 296.912 149.683 297.624 149.131 298.136C148.587 298.648 147.871 298.904 146.983 298.904H145.435L145.327 297.608H147.019C147.587 297.608 148.035 297.464 148.363 297.176C148.691 296.888 148.859 296.496 148.867 296H147.835C146.987 296 146.379 295.828 146.011 295.484C145.643 295.132 145.459 294.584 145.459 293.84C145.459 293.328 145.555 292.876 145.747 292.484C145.947 292.092 146.223 291.788 146.575 291.572C146.935 291.348 147.347 291.236 147.811 291.236C148.523 291.236 149.083 291.476 149.491 291.956C149.899 292.428 150.103 293.076 150.103 293.9V294.704H151.147ZM146.707 293.78C146.707 294.116 146.795 294.356 146.971 294.5C147.147 294.636 147.455 294.704 147.895 294.704H148.867V293.924C148.867 293.452 148.771 293.096 148.579 292.856C148.387 292.608 148.111 292.484 147.751 292.484C147.423 292.484 147.167 292.604 146.983 292.844C146.799 293.076 146.707 293.388 146.707 293.78ZM154.445 293.984C154.445 294.616 154.257 295.112 153.881 295.472C153.505 295.824 153.001 296 152.369 296H151.145C151.065 296 151.025 295.792 151.025 295.376C151.025 294.928 151.065 294.704 151.145 294.704H152.369C152.617 294.704 152.817 294.64 152.969 294.512C153.121 294.376 153.197 294.188 153.197 293.948V292.016H154.445V293.984ZM154.769 289.496V290.648H151.505V289.496H154.769ZM161.549 291.536C161.469 291.4 161.405 291.24 161.357 291.056C161.309 290.872 161.285 290.688 161.285 290.504C161.285 290.112 161.385 289.756 161.585 289.436C161.785 289.108 162.061 288.848 162.413 288.656C162.765 288.464 163.153 288.368 163.577 288.368C164.049 288.368 164.561 288.488 165.113 288.728L164.789 289.868C164.357 289.7 163.969 289.616 163.625 289.616C163.297 289.616 163.029 289.716 162.821 289.916C162.621 290.116 162.521 290.36 162.521 290.648C162.521 290.96 162.605 291.212 162.773 291.404C162.949 291.596 163.161 291.692 163.409 291.692C163.873 291.692 164.453 291.548 165.149 291.26L165.461 292.4C164.621 292.792 163.781 292.988 162.941 292.988C162.493 292.988 162.089 292.944 161.729 292.856C161.377 292.76 161.093 292.632 160.877 292.472V293.024V296H159.641V292.88C159.641 292.096 159.601 291.42 159.521 290.852C159.441 290.276 159.281 289.588 159.041 288.788L160.229 288.368C160.317 288.672 160.413 289.056 160.517 289.52C160.621 289.976 160.705 290.396 160.769 290.78C160.801 290.972 160.873 291.128 160.985 291.248C161.097 291.368 161.285 291.464 161.549 291.536ZM167.894 296C167.63 296 167.438 295.932 167.318 295.796C167.198 295.66 167.138 295.42 167.138 295.076C167.138 294.436 167.17 293.976 167.234 293.696C167.306 293.408 167.438 293.204 167.63 293.084C167.83 292.964 168.158 292.864 168.614 292.784V293.576C168.358 293.624 168.178 293.672 168.074 293.72C167.978 293.768 167.914 293.84 167.882 293.936C167.858 294.032 167.846 294.196 167.846 294.428C168.134 294.428 168.342 294.484 168.47 294.596C168.598 294.708 168.662 294.904 168.662 295.184C168.662 295.472 168.598 295.68 168.47 295.808C168.342 295.936 168.15 296 167.894 296ZM173.203 290.06C173.603 290.06 173.987 290.172 174.355 290.396C174.731 290.62 175.031 290.916 175.255 291.284C175.479 291.652 175.591 292.036 175.591 292.436C175.591 292.836 175.479 293.224 175.255 293.6C175.031 293.968 174.731 294.264 174.355 294.488C173.987 294.712 173.603 294.824 173.203 294.824C172.803 294.824 172.415 294.712 172.039 294.488C171.671 294.264 171.375 293.968 171.151 293.6C170.927 293.224 170.815 292.836 170.815 292.436C170.815 292.036 170.927 291.652 171.151 291.284C171.375 290.916 171.671 290.62 172.039 290.396C172.415 290.172 172.803 290.06 173.203 290.06ZM173.203 293.636C173.395 293.636 173.583 293.58 173.767 293.468C173.959 293.348 174.111 293.196 174.223 293.012C174.343 292.82 174.403 292.628 174.403 292.436C174.403 292.244 174.343 292.056 174.223 291.872C174.111 291.688 173.959 291.54 173.767 291.428C173.583 291.316 173.395 291.26 173.203 291.26C173.011 291.26 172.819 291.32 172.627 291.44C172.443 291.552 172.291 291.7 172.171 291.884C172.059 292.06 172.003 292.244 172.003 292.436C172.003 292.628 172.059 292.82 172.171 293.012C172.291 293.196 172.443 293.348 172.627 293.468C172.819 293.58 173.011 293.636 173.203 293.636ZM180.503 290.06C180.903 290.06 181.287 290.172 181.655 290.396C182.031 290.62 182.331 290.916 182.555 291.284C182.779 291.652 182.891 292.036 182.891 292.436C182.891 292.836 182.779 293.224 182.555 293.6C182.331 293.968 182.031 294.264 181.655 294.488C181.287 294.712 180.903 294.824 180.503 294.824C180.103 294.824 179.715 294.712 179.339 294.488C178.971 294.264 178.675 293.968 178.451 293.6C178.227 293.224 178.115 292.836 178.115 292.436C178.115 292.036 178.227 291.652 178.451 291.284C178.675 290.916 178.971 290.62 179.339 290.396C179.715 290.172 180.103 290.06 180.503 290.06ZM180.503 293.636C180.695 293.636 180.883 293.58 181.067 293.468C181.259 293.348 181.411 293.196 181.523 293.012C181.643 292.82 181.703 292.628 181.703 292.436C181.703 292.244 181.643 292.056 181.523 291.872C181.411 291.688 181.259 291.54 181.067 291.428C180.883 291.316 180.695 291.26 180.503 291.26C180.311 291.26 180.119 291.32 179.927 291.44C179.743 291.552 179.591 291.7 179.471 291.884C179.359 292.06 179.303 292.244 179.303 292.436C179.303 292.628 179.359 292.82 179.471 293.012C179.591 293.196 179.743 293.348 179.927 293.468C180.119 293.58 180.311 293.636 180.503 293.636ZM187.804 290.06C188.204 290.06 188.588 290.172 188.956 290.396C189.332 290.62 189.632 290.916 189.856 291.284C190.08 291.652 190.192 292.036 190.192 292.436C190.192 292.836 190.08 293.224 189.856 293.6C189.632 293.968 189.332 294.264 188.956 294.488C188.588 294.712 188.204 294.824 187.804 294.824C187.404 294.824 187.016 294.712 186.64 294.488C186.272 294.264 185.976 293.968 185.752 293.6C185.528 293.224 185.416 292.836 185.416 292.436C185.416 292.036 185.528 291.652 185.752 291.284C185.976 290.916 186.272 290.62 186.64 290.396C187.016 290.172 187.404 290.06 187.804 290.06ZM187.804 293.636C187.996 293.636 188.184 293.58 188.368 293.468C188.56 293.348 188.712 293.196 188.824 293.012C188.944 292.82 189.004 292.628 189.004 292.436C189.004 292.244 188.944 292.056 188.824 291.872C188.712 291.688 188.56 291.54 188.368 291.428C188.184 291.316 187.996 291.26 187.804 291.26C187.612 291.26 187.42 291.32 187.228 291.44C187.044 291.552 186.892 291.7 186.772 291.884C186.66 292.06 186.604 292.244 186.604 292.436C186.604 292.628 186.66 292.82 186.772 293.012C186.892 293.196 187.044 293.348 187.228 293.468C187.42 293.58 187.612 293.636 187.804 293.636ZM193.113 296C192.849 296 192.657 295.932 192.537 295.796C192.417 295.66 192.357 295.42 192.357 295.076C192.357 294.436 192.389 293.976 192.453 293.696C192.525 293.408 192.657 293.204 192.849 293.084C193.049 292.964 193.377 292.864 193.833 292.784V293.576C193.577 293.624 193.397 293.672 193.293 293.72C193.197 293.768 193.133 293.84 193.101 293.936C193.077 294.032 193.065 294.196 193.065 294.428C193.353 294.428 193.561 294.484 193.689 294.596C193.817 294.708 193.881 294.904 193.881 295.184C193.881 295.472 193.817 295.68 193.689 295.808C193.561 295.936 193.369 296 193.113 296ZM198.421 290.06C198.821 290.06 199.205 290.172 199.573 290.396C199.949 290.62 200.249 290.916 200.473 291.284C200.697 291.652 200.809 292.036 200.809 292.436C200.809 292.836 200.697 293.224 200.473 293.6C200.249 293.968 199.949 294.264 199.573 294.488C199.205 294.712 198.821 294.824 198.421 294.824C198.021 294.824 197.633 294.712 197.257 294.488C196.889 294.264 196.593 293.968 196.369 293.6C196.145 293.224 196.033 292.836 196.033 292.436C196.033 292.036 196.145 291.652 196.369 291.284C196.593 290.916 196.889 290.62 197.257 290.396C197.633 290.172 198.021 290.06 198.421 290.06ZM198.421 293.636C198.613 293.636 198.801 293.58 198.985 293.468C199.177 293.348 199.329 293.196 199.441 293.012C199.561 292.82 199.621 292.628 199.621 292.436C199.621 292.244 199.561 292.056 199.441 291.872C199.329 291.688 199.177 291.54 198.985 291.428C198.801 291.316 198.613 291.26 198.421 291.26C198.229 291.26 198.037 291.32 197.845 291.44C197.661 291.552 197.509 291.7 197.389 291.884C197.277 292.06 197.221 292.244 197.221 292.436C197.221 292.628 197.277 292.82 197.389 293.012C197.509 293.196 197.661 293.348 197.845 293.468C198.037 293.58 198.229 293.636 198.421 293.636ZM205.722 290.06C206.122 290.06 206.506 290.172 206.874 290.396C207.25 290.62 207.55 290.916 207.774 291.284C207.998 291.652 208.11 292.036 208.11 292.436C208.11 292.836 207.998 293.224 207.774 293.6C207.55 293.968 207.25 294.264 206.874 294.488C206.506 294.712 206.122 294.824 205.722 294.824C205.322 294.824 204.934 294.712 204.558 294.488C204.19 294.264 203.894 293.968 203.67 293.6C203.446 293.224 203.334 292.836 203.334 292.436C203.334 292.036 203.446 291.652 203.67 291.284C203.894 290.916 204.19 290.62 204.558 290.396C204.934 290.172 205.322 290.06 205.722 290.06ZM205.722 293.636C205.914 293.636 206.102 293.58 206.286 293.468C206.478 293.348 206.63 293.196 206.742 293.012C206.862 292.82 206.922 292.628 206.922 292.436C206.922 292.244 206.862 292.056 206.742 291.872C206.63 291.688 206.478 291.54 206.286 291.428C206.102 291.316 205.914 291.26 205.722 291.26C205.53 291.26 205.338 291.32 205.146 291.44C204.962 291.552 204.81 291.7 204.69 291.884C204.578 292.06 204.522 292.244 204.522 292.436C204.522 292.628 204.578 292.82 204.69 293.012C204.81 293.196 204.962 293.348 205.146 293.468C205.338 293.58 205.53 293.636 205.722 293.636ZM213.023 290.06C213.423 290.06 213.807 290.172 214.175 290.396C214.551 290.62 214.851 290.916 215.075 291.284C215.299 291.652 215.411 292.036 215.411 292.436C215.411 292.836 215.299 293.224 215.075 293.6C214.851 293.968 214.551 294.264 214.175 294.488C213.807 294.712 213.423 294.824 213.023 294.824C212.623 294.824 212.235 294.712 211.859 294.488C211.491 294.264 211.195 293.968 210.971 293.6C210.747 293.224 210.635 292.836 210.635 292.436C210.635 292.036 210.747 291.652 210.971 291.284C211.195 290.916 211.491 290.62 211.859 290.396C212.235 290.172 212.623 290.06 213.023 290.06ZM213.023 293.636C213.215 293.636 213.403 293.58 213.587 293.468C213.779 293.348 213.931 293.196 214.043 293.012C214.163 292.82 214.223 292.628 214.223 292.436C214.223 292.244 214.163 292.056 214.043 291.872C213.931 291.688 213.779 291.54 213.587 291.428C213.403 291.316 213.215 291.26 213.023 291.26C212.831 291.26 212.639 291.32 212.447 291.44C212.263 291.552 212.111 291.7 211.991 291.884C211.879 292.06 211.823 292.244 211.823 292.436C211.823 292.628 211.879 292.82 211.991 293.012C212.111 293.196 212.263 293.348 212.447 293.468C212.639 293.58 212.831 293.636 213.023 293.636ZM222.812 294.704C222.852 294.704 222.88 294.748 222.896 294.836C222.92 294.924 222.932 295.104 222.932 295.376C222.932 295.632 222.92 295.8 222.896 295.88C222.88 295.96 222.852 296 222.812 296H222.452C221.812 296 221.328 295.812 221 295.436C220.672 295.06 220.508 294.528 220.508 293.84V288.248H221.744V293.756C221.744 294.084 221.804 294.324 221.924 294.476C222.052 294.628 222.252 294.704 222.524 294.704H222.812ZM226.116 293.984C226.116 294.616 225.928 295.112 225.552 295.472C225.176 295.824 224.672 296 224.04 296H222.816C222.736 296 222.696 295.792 222.696 295.376C222.696 294.928 222.736 294.704 222.816 294.704H224.04C224.288 294.704 224.488 294.64 224.64 294.512C224.792 294.376 224.868 294.188 224.868 293.948V292.016H226.116V293.984ZM226.44 289.496V290.648H223.176V289.496H226.44ZM233.905 298.904C232.881 298.904 232.093 298.608 231.541 298.016C230.989 297.432 230.713 296.608 230.713 295.544V293.216H231.949V295.52C231.949 296.912 232.605 297.608 233.917 297.608H234.409C235.049 297.608 235.553 297.432 235.921 297.08C236.289 296.728 236.473 296.244 236.473 295.628V292.016H237.721V295.52C237.721 296.224 237.581 296.828 237.301 297.332C237.021 297.844 236.629 298.232 236.125 298.496C235.629 298.768 235.057 298.904 234.409 298.904H233.905ZM233.257 291.728V290.552H234.697V291.728H233.257ZM241.949 294.704C241.989 294.704 242.017 294.748 242.033 294.836C242.057 294.924 242.069 295.104 242.069 295.376C242.069 295.632 242.057 295.8 242.033 295.88C242.017 295.96 241.989 296 241.949 296H241.589C240.949 296 240.465 295.812 240.137 295.436C239.809 295.06 239.645 294.528 239.645 293.84V288.248H240.881V293.756C240.881 294.084 240.941 294.324 241.061 294.476C241.189 294.628 241.389 294.704 241.661 294.704H241.949ZM242.241 294.704C242.505 294.704 242.693 294.652 242.805 294.548C242.925 294.436 242.985 294.264 242.985 294.032V293.612C242.985 292.844 243.197 292.236 243.621 291.788C244.053 291.34 244.637 291.116 245.373 291.116C246.109 291.116 246.673 291.332 247.065 291.764C247.457 292.188 247.653 292.8 247.653 293.6C247.653 294.36 247.445 294.952 247.029 295.376C246.621 295.792 246.053 296 245.325 296C244.917 296 244.573 295.944 244.293 295.832C244.013 295.712 243.809 295.548 243.681 295.34C243.537 295.572 243.349 295.74 243.117 295.844C242.893 295.948 242.601 296 242.241 296H241.953C241.873 296 241.833 295.792 241.833 295.376C241.833 294.928 241.873 294.704 241.953 294.704H242.241ZM246.417 293.6C246.417 293.184 246.325 292.876 246.141 292.676C245.965 292.468 245.693 292.364 245.325 292.364C244.957 292.364 244.681 292.468 244.497 292.676C244.321 292.876 244.233 293.188 244.233 293.612C244.233 293.964 244.325 294.236 244.509 294.428C244.693 294.612 244.965 294.704 245.325 294.704C245.693 294.704 245.965 294.616 246.141 294.44C246.325 294.256 246.417 293.976 246.417 293.6ZM255.151 294.704C255.231 294.704 255.271 294.928 255.271 295.376C255.271 295.792 255.231 296 255.151 296H254.083C254.003 296.912 253.687 297.624 253.135 298.136C252.591 298.648 251.875 298.904 250.987 298.904H249.439L249.331 297.608H251.023C251.591 297.608 252.039 297.464 252.367 297.176C252.695 296.888 252.863 296.496 252.871 296H251.839C250.991 296 250.383 295.828 250.015 295.484C249.647 295.132 249.463 294.584 249.463 293.84C249.463 293.328 249.559 292.876 249.751 292.484C249.951 292.092 250.227 291.788 250.579 291.572C250.939 291.348 251.351 291.236 251.815 291.236C252.527 291.236 253.087 291.476 253.495 291.956C253.903 292.428 254.107 293.076 254.107 293.9V294.704H255.151ZM250.711 293.78C250.711 294.116 250.799 294.356 250.975 294.5C251.151 294.636 251.459 294.704 251.899 294.704H252.871V293.924C252.871 293.452 252.775 293.096 252.583 292.856C252.391 292.608 252.115 292.484 251.755 292.484C251.427 292.484 251.171 292.604 250.987 292.844C250.803 293.076 250.711 293.388 250.711 293.78ZM258.448 293.984C258.448 294.616 258.26 295.112 257.884 295.472C257.508 295.824 257.004 296 256.372 296H255.148C255.068 296 255.028 295.792 255.028 295.376C255.028 294.928 255.068 294.704 255.148 294.704H256.372C256.62 294.704 256.82 294.64 256.972 294.512C257.124 294.376 257.2 294.188 257.2 293.948V292.016H258.448V293.984ZM258.772 289.496V290.648H255.508V289.496H258.772ZM266.405 288.416C266.637 289.8 266.949 291.032 267.341 292.112C267.741 293.192 268.273 294.28 268.937 295.376L267.905 296.108C266.801 294.324 266.093 292.504 265.781 290.648C265.437 292.696 264.765 294.516 263.765 296.108L262.685 295.376C263.317 294.376 263.829 293.336 264.221 292.256C264.613 291.168 264.945 289.888 265.217 288.416H266.405ZM273.128 290.06C273.528 290.06 273.912 290.172 274.28 290.396C274.656 290.62 274.956 290.916 275.18 291.284C275.404 291.652 275.516 292.036 275.516 292.436C275.516 292.836 275.404 293.224 275.18 293.6C274.956 293.968 274.656 294.264 274.28 294.488C273.912 294.712 273.528 294.824 273.128 294.824C272.728 294.824 272.34 294.712 271.964 294.488C271.596 294.264 271.3 293.968 271.076 293.6C270.852 293.224 270.74 292.836 270.74 292.436C270.74 292.036 270.852 291.652 271.076 291.284C271.3 290.916 271.596 290.62 271.964 290.396C272.34 290.172 272.728 290.06 273.128 290.06ZM273.128 293.636C273.32 293.636 273.508 293.58 273.692 293.468C273.884 293.348 274.036 293.196 274.148 293.012C274.268 292.82 274.328 292.628 274.328 292.436C274.328 292.244 274.268 292.056 274.148 291.872C274.036 291.688 273.884 291.54 273.692 291.428C273.508 291.316 273.32 291.26 273.128 291.26C272.936 291.26 272.744 291.32 272.552 291.44C272.368 291.552 272.216 291.7 272.096 291.884C271.984 292.06 271.928 292.244 271.928 292.436C271.928 292.628 271.984 292.82 272.096 293.012C272.216 293.196 272.368 293.348 272.552 293.468C272.744 293.58 272.936 293.636 273.128 293.636ZM278.437 296C278.173 296 277.981 295.932 277.861 295.796C277.741 295.66 277.681 295.42 277.681 295.076C277.681 294.436 277.713 293.976 277.777 293.696C277.849 293.408 277.981 293.204 278.173 293.084C278.373 292.964 278.701 292.864 279.157 292.784V293.576C278.901 293.624 278.721 293.672 278.617 293.72C278.521 293.768 278.457 293.84 278.425 293.936C278.401 294.032 278.389 294.196 278.389 294.428C278.677 294.428 278.885 294.484 279.013 294.596C279.141 294.708 279.205 294.904 279.205 295.184C279.205 295.472 279.141 295.68 279.013 295.808C278.885 295.936 278.693 296 278.437 296ZM283.746 290.06C284.146 290.06 284.53 290.172 284.898 290.396C285.274 290.62 285.574 290.916 285.798 291.284C286.022 291.652 286.134 292.036 286.134 292.436C286.134 292.836 286.022 293.224 285.798 293.6C285.574 293.968 285.274 294.264 284.898 294.488C284.53 294.712 284.146 294.824 283.746 294.824C283.346 294.824 282.958 294.712 282.582 294.488C282.214 294.264 281.918 293.968 281.694 293.6C281.47 293.224 281.358 292.836 281.358 292.436C281.358 292.036 281.47 291.652 281.694 291.284C281.918 290.916 282.214 290.62 282.582 290.396C282.958 290.172 283.346 290.06 283.746 290.06ZM283.746 293.636C283.938 293.636 284.126 293.58 284.31 293.468C284.502 293.348 284.654 293.196 284.766 293.012C284.886 292.82 284.946 292.628 284.946 292.436C284.946 292.244 284.886 292.056 284.766 291.872C284.654 291.688 284.502 291.54 284.31 291.428C284.126 291.316 283.938 291.26 283.746 291.26C283.554 291.26 283.362 291.32 283.17 291.44C282.986 291.552 282.834 291.7 282.714 291.884C282.602 292.06 282.546 292.244 282.546 292.436C282.546 292.628 282.602 292.82 282.714 293.012C282.834 293.196 282.986 293.348 283.17 293.468C283.362 293.58 283.554 293.636 283.746 293.636ZM291.046 290.06C291.446 290.06 291.83 290.172 292.198 290.396C292.574 290.62 292.874 290.916 293.098 291.284C293.322 291.652 293.434 292.036 293.434 292.436C293.434 292.836 293.322 293.224 293.098 293.6C292.874 293.968 292.574 294.264 292.198 294.488C291.83 294.712 291.446 294.824 291.046 294.824C290.646 294.824 290.258 294.712 289.882 294.488C289.514 294.264 289.218 293.968 288.994 293.6C288.77 293.224 288.658 292.836 288.658 292.436C288.658 292.036 288.77 291.652 288.994 291.284C289.218 290.916 289.514 290.62 289.882 290.396C290.258 290.172 290.646 290.06 291.046 290.06ZM291.046 293.636C291.238 293.636 291.426 293.58 291.61 293.468C291.802 293.348 291.954 293.196 292.066 293.012C292.186 292.82 292.246 292.628 292.246 292.436C292.246 292.244 292.186 292.056 292.066 291.872C291.954 291.688 291.802 291.54 291.61 291.428C291.426 291.316 291.238 291.26 291.046 291.26C290.854 291.26 290.662 291.32 290.47 291.44C290.286 291.552 290.134 291.7 290.014 291.884C289.902 292.06 289.846 292.244 289.846 292.436C289.846 292.628 289.902 292.82 290.014 293.012C290.134 293.196 290.286 293.348 290.47 293.468C290.662 293.58 290.854 293.636 291.046 293.636ZM298.347 290.06C298.747 290.06 299.131 290.172 299.499 290.396C299.875 290.62 300.175 290.916 300.399 291.284C300.623 291.652 300.735 292.036 300.735 292.436C300.735 292.836 300.623 293.224 300.399 293.6C300.175 293.968 299.875 294.264 299.499 294.488C299.131 294.712 298.747 294.824 298.347 294.824C297.947 294.824 297.559 294.712 297.183 294.488C296.815 294.264 296.519 293.968 296.295 293.6C296.071 293.224 295.959 292.836 295.959 292.436C295.959 292.036 296.071 291.652 296.295 291.284C296.519 290.916 296.815 290.62 297.183 290.396C297.559 290.172 297.947 290.06 298.347 290.06ZM298.347 293.636C298.539 293.636 298.727 293.58 298.911 293.468C299.103 293.348 299.255 293.196 299.367 293.012C299.487 292.82 299.547 292.628 299.547 292.436C299.547 292.244 299.487 292.056 299.367 291.872C299.255 291.688 299.103 291.54 298.911 291.428C298.727 291.316 298.539 291.26 298.347 291.26C298.155 291.26 297.963 291.32 297.771 291.44C297.587 291.552 297.435 291.7 297.315 291.884C297.203 292.06 297.147 292.244 297.147 292.436C297.147 292.628 297.203 292.82 297.315 293.012C297.435 293.196 297.587 293.348 297.771 293.468C297.963 293.58 298.155 293.636 298.347 293.636Z" fill="#191919"/>
<rect x="194.5" y="239" width="75" height="30" rx="3.5" stroke="#191919" stroke-opacity="0.5"/>
<path d="M207.347 251.7C207.851 251.7 208.255 251.816 208.559 252.048C208.863 252.28 209.015 252.62 209.015 253.068C209.015 253.396 208.923 253.708 208.739 254.004C208.555 254.292 208.207 254.664 207.695 255.12C207.863 255.176 208.211 255.204 208.739 255.204H209.987C210.027 255.204 210.055 255.248 210.071 255.336C210.095 255.424 210.107 255.604 210.107 255.876C210.107 256.132 210.095 256.3 210.071 256.38C210.055 256.46 210.027 256.5 209.987 256.5H208.739C208.003 256.5 207.471 256.46 207.143 256.38C206.815 256.3 206.531 256.148 206.291 255.924C205.339 256.524 204.863 257.208 204.863 257.976C204.863 258.448 205.015 258.796 205.319 259.02C205.631 259.244 206.123 259.356 206.795 259.356H209.135L209.027 260.652H206.735C205.671 260.652 204.887 260.436 204.383 260.004C203.879 259.572 203.627 258.912 203.627 258.024C203.627 256.92 204.155 255.968 205.211 255.168L203.675 252.912L204.311 251.7H207.347ZM207.815 253.32C207.815 253.184 207.759 253.08 207.647 253.008C207.543 252.936 207.387 252.9 207.179 252.9H205.067L206.411 254.892C206.963 254.42 207.335 254.076 207.527 253.86C207.719 253.644 207.815 253.464 207.815 253.32ZM205.751 250.164V248.988H207.191V250.164H205.751ZM210.388 255.204C210.636 255.204 210.836 255.14 210.988 255.012C211.14 254.876 211.216 254.688 211.216 254.448V248.748H212.464V254.388C212.464 254.66 212.536 254.864 212.68 255C212.824 255.136 213.024 255.204 213.28 255.204H213.604C213.684 255.204 213.724 255.424 213.724 255.864C213.724 256.288 213.684 256.5 213.604 256.5H213.22C212.876 256.5 212.584 256.444 212.344 256.332C212.112 256.22 211.944 256.056 211.84 255.84C211.552 256.28 211.068 256.5 210.388 256.5H209.992C209.912 256.5 209.872 256.292 209.872 255.876C209.872 255.428 209.912 255.204 209.992 255.204H210.388ZM215.042 255.204C215.298 255.204 215.502 255.14 215.654 255.012C215.814 254.876 215.894 254.688 215.894 254.448V252.516H217.142V254.4C217.142 254.936 217.418 255.204 217.97 255.204H218.378C218.458 255.204 218.498 255.424 218.498 255.864C218.498 256.288 218.458 256.5 218.378 256.5H217.922C217.21 256.5 216.738 256.284 216.506 255.852C216.226 256.284 215.738 256.5 215.042 256.5H213.602C213.522 256.5 213.482 256.292 213.482 255.876C213.482 255.428 213.522 255.204 213.602 255.204H215.042ZM214.106 259.08V257.904H215.546V259.08H214.106ZM218.671 255.204C218.935 255.204 219.123 255.152 219.235 255.048C219.355 254.936 219.415 254.764 219.415 254.532V254.112C219.415 253.344 219.627 252.736 220.051 252.288C220.483 251.84 221.067 251.616 221.803 251.616C222.539 251.616 223.103 251.832 223.495 252.264C223.887 252.688 224.083 253.3 224.083 254.1C224.083 254.86 223.875 255.452 223.459 255.876C223.051 256.292 222.483 256.5 221.755 256.5C221.347 256.5 221.003 256.444 220.723 256.332C220.443 256.212 220.239 256.048 220.111 255.84C219.967 256.072 219.779 256.24 219.547 256.344C219.323 256.448 219.031 256.5 218.671 256.5H218.383C218.303 256.5 218.263 256.292 218.263 255.876C218.263 255.428 218.303 255.204 218.383 255.204H218.671ZM222.847 254.1C222.847 253.684 222.755 253.376 222.571 253.176C222.395 252.968 222.123 252.864 221.755 252.864C221.387 252.864 221.111 252.968 220.927 253.176C220.751 253.376 220.663 253.688 220.663 254.112C220.663 254.464 220.755 254.736 220.939 254.928C221.123 255.112 221.395 255.204 221.755 255.204C222.123 255.204 222.395 255.116 222.571 254.94C222.755 254.756 222.847 254.476 222.847 254.1ZM231.117 255.204C231.157 255.204 231.185 255.248 231.201 255.336C231.225 255.424 231.237 255.604 231.237 255.876C231.237 256.132 231.225 256.3 231.201 256.38C231.185 256.46 231.157 256.5 231.117 256.5H230.757C230.117 256.5 229.633 256.312 229.305 255.936C228.977 255.56 228.813 255.028 228.813 254.34V248.748H230.049V254.256C230.049 254.584 230.109 254.824 230.229 254.976C230.357 255.128 230.557 255.204 230.829 255.204H231.117ZM234.421 254.484C234.421 255.116 234.233 255.612 233.857 255.972C233.481 256.324 232.977 256.5 232.345 256.5H231.121C231.041 256.5 231.001 256.292 231.001 255.876C231.001 255.428 231.041 255.204 231.121 255.204H232.345C232.593 255.204 232.793 255.14 232.945 255.012C233.097 254.876 233.173 254.688 233.173 254.448V252.516H234.421V254.484ZM234.745 249.996V251.148H231.481V249.996H234.745ZM246.474 254.172C246.474 254.54 246.538 254.804 246.666 254.964C246.794 255.124 246.982 255.204 247.23 255.204H247.566C247.606 255.204 247.634 255.248 247.65 255.336C247.674 255.424 247.686 255.604 247.686 255.876C247.686 256.132 247.674 256.3 247.65 256.38C247.634 256.46 247.606 256.5 247.566 256.5H247.23C246.79 256.5 246.43 256.42 246.15 256.26C245.878 256.092 245.69 255.824 245.586 255.456C245.418 255.616 245.19 255.736 244.902 255.816C244.614 255.896 244.31 255.936 243.99 255.936C243.286 255.936 242.75 255.748 242.382 255.372C242.014 254.988 241.83 254.424 241.83 253.68C241.83 253.232 241.93 252.82 242.13 252.444C242.33 252.06 242.61 251.756 242.97 251.532C243.338 251.3 243.758 251.184 244.23 251.184H245.238V250.38H246.474V254.172ZM243.066 253.668C243.066 254.316 243.394 254.64 244.05 254.64C244.426 254.64 244.718 254.576 244.926 254.448C245.134 254.312 245.238 254.128 245.238 253.896V252.432H244.23C243.862 252.432 243.574 252.54 243.366 252.756C243.166 252.964 243.066 253.268 243.066 253.668ZM250.863 254.484C250.863 255.116 250.675 255.612 250.299 255.972C249.923 256.324 249.419 256.5 248.787 256.5H247.562C247.482 256.5 247.442 256.292 247.442 255.876C247.442 255.428 247.482 255.204 247.562 255.204H248.787C249.035 255.204 249.235 255.14 249.387 255.012C249.539 254.876 249.615 254.688 249.615 254.448V252.516H250.863V254.484ZM248.763 250.572C248.555 250.468 248.391 250.316 248.271 250.116C248.159 249.916 248.103 249.708 248.103 249.492C248.103 249.068 248.235 248.728 248.499 248.472C248.771 248.208 249.127 248.076 249.567 248.076H250.179V248.868H249.567C249.367 248.868 249.199 248.928 249.062 249.048C248.935 249.16 248.871 249.3 248.871 249.468C248.871 249.66 248.935 249.816 249.062 249.936C249.191 250.048 249.343 250.104 249.519 250.104C249.623 250.104 249.743 250.076 249.879 250.02C250.015 249.964 250.167 249.892 250.335 249.804C250.503 249.716 250.615 249.656 250.671 249.624L250.971 250.32L248.427 251.64L248.055 250.932L248.763 250.572ZM252.766 248.748H254.002V256.5H252.766V248.748ZM257.829 256.116C257.829 256.78 257.697 257.36 257.433 257.856C257.169 258.352 256.793 258.732 256.305 258.996C255.825 259.268 255.265 259.404 254.625 259.404H253.725L253.617 258.108H254.613C255.229 258.108 255.709 257.932 256.053 257.58C256.405 257.236 256.581 256.748 256.581 256.116V252.516H257.829V256.116ZM259.739 248.748H260.975V256.5H259.739V248.748Z" fill="#191919" fill-opacity="0.5"/>
<rect x="278" y="238" width="32" height="32" rx="4" fill="#3664FF"/>
<path d="M291.227 255.942C291.227 257.017 292.052 257.883 293.077 257.883H295.168C296.06 257.883 296.785 257.125 296.785 256.192C296.785 255.175 296.343 254.817 295.685 254.583L292.327 253.417C291.668 253.183 291.227 252.825 291.227 251.808C291.227 250.875 291.952 250.117 292.843 250.117H294.935C295.96 250.117 296.785 250.983 296.785 252.058" stroke="white" stroke-width="1.5" stroke-linecap="round" stroke-linejoin="round"/>
<path d="M294 249V259" stroke="white" stroke-width="1.5" stroke-linecap="round" stroke-linejoin="round"/>
<path d="M293.999 262.333C298.602 262.333 302.333 258.602 302.333 254C302.333 249.398 298.602 245.667 293.999 245.667C289.397 245.667 285.666 249.398 285.666 254C285.666 258.602 289.397 262.333 293.999 262.333Z" stroke="white" stroke-width="1.5" stroke-linecap="round" stroke-linejoin="round"/>
</svg>
