<svg width="645" height="103" viewBox="0 0 645 103" fill="none" xmlns="http://www.w3.org/2000/svg">
    <rect width="645" height="103" rx="8" fill="#F6F9FF" />
    <rect x="32.5" y="56.5" width="192" height="30" rx="3.5" stroke="#191919" />
    <path d="M44.9006 76.904C43.8766 76.904 43.0886 76.608 42.5366 76.016C41.9846 75.432 41.7086 74.608 41.7086 73.544V71.216H42.9446V73.52C42.9446 74.912 43.6006 75.608 44.9126 75.608H45.4046C46.0446 75.608 46.5486 75.432 46.9166 75.08C47.2846 74.728 47.4686 74.244 47.4686 73.628V70.016H48.7166V73.52C48.7166 74.224 48.5766 74.828 48.2966 75.332C48.0166 75.844 47.6246 76.232 47.1206 76.496C46.6246 76.768 46.0526 76.904 45.4046 76.904H44.9006ZM44.2526 69.728V68.552H45.6926V69.728H44.2526ZM52.9451 72.704C52.9851 72.704 53.0131 72.748 53.0291 72.836C53.0531 72.924 53.0651 73.104 53.0651 73.376C53.0651 73.632 53.0531 73.8 53.0291 73.88C53.0131 73.96 52.9851 74 52.9451 74H52.5851C51.9451 74 51.4611 73.812 51.1331 73.436C50.8051 73.06 50.6411 72.528 50.6411 71.84V66.248H51.8771V71.756C51.8771 72.084 51.9371 72.324 52.0571 72.476C52.1851 72.628 52.3851 72.704 52.6571 72.704H52.9451ZM53.2372 72.704C53.5012 72.704 53.6892 72.652 53.8012 72.548C53.9212 72.436 53.9812 72.264 53.9812 72.032V71.612C53.9812 70.844 54.1932 70.236 54.6172 69.788C55.0492 69.34 55.6332 69.116 56.3692 69.116C57.1052 69.116 57.6692 69.332 58.0612 69.764C58.4532 70.188 58.6492 70.8 58.6492 71.6C58.6492 72.36 58.4412 72.952 58.0252 73.376C57.6172 73.792 57.0492 74 56.3212 74C55.9132 74 55.5692 73.944 55.2892 73.832C55.0092 73.712 54.8052 73.548 54.6772 73.34C54.5332 73.572 54.3452 73.74 54.1132 73.844C53.8892 73.948 53.5972 74 53.2372 74H52.9492C52.8692 74 52.8292 73.792 52.8292 73.376C52.8292 72.928 52.8692 72.704 52.9492 72.704H53.2372ZM57.4132 71.6C57.4132 71.184 57.3212 70.876 57.1372 70.676C56.9612 70.468 56.6892 70.364 56.3212 70.364C55.9532 70.364 55.6772 70.468 55.4932 70.676C55.3172 70.876 55.2292 71.188 55.2292 71.612C55.2292 71.964 55.3212 72.236 55.5052 72.428C55.6892 72.612 55.9612 72.704 56.3212 72.704C56.6892 72.704 56.9612 72.616 57.1372 72.44C57.3212 72.256 57.4132 71.976 57.4132 71.6ZM66.1469 72.704C66.2269 72.704 66.2669 72.928 66.2669 73.376C66.2669 73.792 66.2269 74 66.1469 74H65.0789C64.9989 74.912 64.6829 75.624 64.1309 76.136C63.5869 76.648 62.8709 76.904 61.9829 76.904H60.4349L60.3269 75.608H62.0189C62.5869 75.608 63.0349 75.464 63.3629 75.176C63.6909 74.888 63.8589 74.496 63.8669 74H62.8349C61.9869 74 61.3789 73.828 61.0109 73.484C60.6429 73.132 60.4589 72.584 60.4589 71.84C60.4589 71.328 60.5549 70.876 60.7469 70.484C60.9469 70.092 61.2229 69.788 61.5749 69.572C61.9349 69.348 62.3469 69.236 62.8109 69.236C63.5229 69.236 64.0829 69.476 64.4909 69.956C64.8989 70.428 65.1029 71.076 65.1029 71.9V72.704H66.1469ZM61.7069 71.78C61.7069 72.116 61.7949 72.356 61.9709 72.5C62.1469 72.636 62.4549 72.704 62.8949 72.704H63.8669V71.924C63.8669 71.452 63.7709 71.096 63.5789 70.856C63.3869 70.608 63.1109 70.484 62.7509 70.484C62.4229 70.484 62.1669 70.604 61.9829 70.844C61.7989 71.076 61.7069 71.388 61.7069 71.78ZM69.4445 71.984C69.4445 72.616 69.2565 73.112 68.8805 73.472C68.5045 73.824 68.0005 74 67.3685 74H66.1445C66.0645 74 66.0245 73.792 66.0245 73.376C66.0245 72.928 66.0645 72.704 66.1445 72.704H67.3685C67.6165 72.704 67.8165 72.64 67.9685 72.512C68.1205 72.376 68.1965 72.188 68.1965 71.948V70.016H69.4445V71.984ZM69.7685 67.496V68.648H66.5045V67.496H69.7685ZM76.5486 69.536C76.4686 69.4 76.4046 69.24 76.3566 69.056C76.3086 68.872 76.2846 68.688 76.2846 68.504C76.2846 68.112 76.3846 67.756 76.5846 67.436C76.7846 67.108 77.0606 66.848 77.4126 66.656C77.7646 66.464 78.1526 66.368 78.5766 66.368C79.0486 66.368 79.5606 66.488 80.1126 66.728L79.7886 67.868C79.3566 67.7 78.9686 67.616 78.6246 67.616C78.2966 67.616 78.0286 67.716 77.8206 67.916C77.6206 68.116 77.5206 68.36 77.5206 68.648C77.5206 68.96 77.6046 69.212 77.7726 69.404C77.9486 69.596 78.1606 69.692 78.4086 69.692C78.8726 69.692 79.4526 69.548 80.1486 69.26L80.4606 70.4C79.6206 70.792 78.7806 70.988 77.9406 70.988C77.4926 70.988 77.0886 70.944 76.7286 70.856C76.3766 70.76 76.0926 70.632 75.8766 70.472V71.024V74H74.6406V70.88C74.6406 70.096 74.6006 69.42 74.5206 68.852C74.4406 68.276 74.2806 67.588 74.0406 66.788L75.2286 66.368C75.3166 66.672 75.4126 67.056 75.5166 67.52C75.6206 67.976 75.7046 68.396 75.7686 68.78C75.8006 68.972 75.8726 69.128 75.9846 69.248C76.0966 69.368 76.2846 69.464 76.5486 69.536ZM82.8943 74C82.6303 74 82.4383 73.932 82.3183 73.796C82.1983 73.66 82.1383 73.42 82.1383 73.076C82.1383 72.436 82.1703 71.976 82.2343 71.696C82.3063 71.408 82.4383 71.204 82.6303 71.084C82.8303 70.964 83.1583 70.864 83.6143 70.784V71.576C83.3583 71.624 83.1783 71.672 83.0743 71.72C82.9783 71.768 82.9143 71.84 82.8823 71.936C82.8583 72.032 82.8463 72.196 82.8463 72.428C83.1343 72.428 83.3423 72.484 83.4703 72.596C83.5983 72.708 83.6623 72.904 83.6623 73.184C83.6623 73.472 83.5983 73.68 83.4703 73.808C83.3423 73.936 83.1503 74 82.8943 74ZM88.2027 68.06C88.6027 68.06 88.9867 68.172 89.3547 68.396C89.7307 68.62 90.0307 68.916 90.2547 69.284C90.4787 69.652 90.5907 70.036 90.5907 70.436C90.5907 70.836 90.4787 71.224 90.2547 71.6C90.0307 71.968 89.7307 72.264 89.3547 72.488C88.9867 72.712 88.6027 72.824 88.2027 72.824C87.8027 72.824 87.4147 72.712 87.0387 72.488C86.6707 72.264 86.3747 71.968 86.1507 71.6C85.9267 71.224 85.8147 70.836 85.8147 70.436C85.8147 70.036 85.9267 69.652 86.1507 69.284C86.3747 68.916 86.6707 68.62 87.0387 68.396C87.4147 68.172 87.8027 68.06 88.2027 68.06ZM88.2027 71.636C88.3947 71.636 88.5827 71.58 88.7667 71.468C88.9587 71.348 89.1107 71.196 89.2227 71.012C89.3427 70.82 89.4027 70.628 89.4027 70.436C89.4027 70.244 89.3427 70.056 89.2227 69.872C89.1107 69.688 88.9587 69.54 88.7667 69.428C88.5827 69.316 88.3947 69.26 88.2027 69.26C88.0107 69.26 87.8187 69.32 87.6267 69.44C87.4427 69.552 87.2907 69.7 87.1707 69.884C87.0587 70.06 87.0027 70.244 87.0027 70.436C87.0027 70.628 87.0587 70.82 87.1707 71.012C87.2907 71.196 87.4427 71.348 87.6267 71.468C87.8187 71.58 88.0107 71.636 88.2027 71.636ZM95.5035 68.06C95.9035 68.06 96.2875 68.172 96.6555 68.396C97.0315 68.62 97.3315 68.916 97.5555 69.284C97.7795 69.652 97.8915 70.036 97.8915 70.436C97.8915 70.836 97.7795 71.224 97.5555 71.6C97.3315 71.968 97.0315 72.264 96.6555 72.488C96.2875 72.712 95.9035 72.824 95.5035 72.824C95.1035 72.824 94.7155 72.712 94.3395 72.488C93.9715 72.264 93.6755 71.968 93.4515 71.6C93.2275 71.224 93.1155 70.836 93.1155 70.436C93.1155 70.036 93.2275 69.652 93.4515 69.284C93.6755 68.916 93.9715 68.62 94.3395 68.396C94.7155 68.172 95.1035 68.06 95.5035 68.06ZM95.5035 71.636C95.6955 71.636 95.8835 71.58 96.0675 71.468C96.2595 71.348 96.4115 71.196 96.5235 71.012C96.6435 70.82 96.7035 70.628 96.7035 70.436C96.7035 70.244 96.6435 70.056 96.5235 69.872C96.4115 69.688 96.2595 69.54 96.0675 69.428C95.8835 69.316 95.6955 69.26 95.5035 69.26C95.3115 69.26 95.1195 69.32 94.9275 69.44C94.7435 69.552 94.5915 69.7 94.4715 69.884C94.3595 70.06 94.3035 70.244 94.3035 70.436C94.3035 70.628 94.3595 70.82 94.4715 71.012C94.5915 71.196 94.7435 71.348 94.9275 71.468C95.1195 71.58 95.3115 71.636 95.5035 71.636ZM102.804 68.06C103.204 68.06 103.588 68.172 103.956 68.396C104.332 68.62 104.632 68.916 104.856 69.284C105.08 69.652 105.192 70.036 105.192 70.436C105.192 70.836 105.08 71.224 104.856 71.6C104.632 71.968 104.332 72.264 103.956 72.488C103.588 72.712 103.204 72.824 102.804 72.824C102.404 72.824 102.016 72.712 101.64 72.488C101.272 72.264 100.976 71.968 100.752 71.6C100.528 71.224 100.416 70.836 100.416 70.436C100.416 70.036 100.528 69.652 100.752 69.284C100.976 68.916 101.272 68.62 101.64 68.396C102.016 68.172 102.404 68.06 102.804 68.06ZM102.804 71.636C102.996 71.636 103.184 71.58 103.368 71.468C103.56 71.348 103.712 71.196 103.824 71.012C103.944 70.82 104.004 70.628 104.004 70.436C104.004 70.244 103.944 70.056 103.824 69.872C103.712 69.688 103.56 69.54 103.368 69.428C103.184 69.316 102.996 69.26 102.804 69.26C102.612 69.26 102.42 69.32 102.228 69.44C102.044 69.552 101.892 69.7 101.772 69.884C101.66 70.06 101.604 70.244 101.604 70.436C101.604 70.628 101.66 70.82 101.772 71.012C101.892 71.196 102.044 71.348 102.228 71.468C102.42 71.58 102.612 71.636 102.804 71.636ZM108.113 74C107.849 74 107.657 73.932 107.537 73.796C107.417 73.66 107.357 73.42 107.357 73.076C107.357 72.436 107.389 71.976 107.453 71.696C107.525 71.408 107.657 71.204 107.849 71.084C108.049 70.964 108.377 70.864 108.833 70.784V71.576C108.577 71.624 108.397 71.672 108.293 71.72C108.197 71.768 108.133 71.84 108.101 71.936C108.077 72.032 108.065 72.196 108.065 72.428C108.353 72.428 108.561 72.484 108.689 72.596C108.817 72.708 108.881 72.904 108.881 73.184C108.881 73.472 108.817 73.68 108.689 73.808C108.561 73.936 108.369 74 108.113 74ZM113.421 68.06C113.821 68.06 114.205 68.172 114.573 68.396C114.949 68.62 115.249 68.916 115.473 69.284C115.697 69.652 115.809 70.036 115.809 70.436C115.809 70.836 115.697 71.224 115.473 71.6C115.249 71.968 114.949 72.264 114.573 72.488C114.205 72.712 113.821 72.824 113.421 72.824C113.021 72.824 112.633 72.712 112.257 72.488C111.889 72.264 111.593 71.968 111.369 71.6C111.145 71.224 111.033 70.836 111.033 70.436C111.033 70.036 111.145 69.652 111.369 69.284C111.593 68.916 111.889 68.62 112.257 68.396C112.633 68.172 113.021 68.06 113.421 68.06ZM113.421 71.636C113.613 71.636 113.801 71.58 113.985 71.468C114.177 71.348 114.329 71.196 114.441 71.012C114.561 70.82 114.621 70.628 114.621 70.436C114.621 70.244 114.561 70.056 114.441 69.872C114.329 69.688 114.177 69.54 113.985 69.428C113.801 69.316 113.613 69.26 113.421 69.26C113.229 69.26 113.037 69.32 112.845 69.44C112.661 69.552 112.509 69.7 112.389 69.884C112.277 70.06 112.221 70.244 112.221 70.436C112.221 70.628 112.277 70.82 112.389 71.012C112.509 71.196 112.661 71.348 112.845 71.468C113.037 71.58 113.229 71.636 113.421 71.636ZM120.722 68.06C121.122 68.06 121.506 68.172 121.874 68.396C122.25 68.62 122.55 68.916 122.774 69.284C122.998 69.652 123.11 70.036 123.11 70.436C123.11 70.836 122.998 71.224 122.774 71.6C122.55 71.968 122.25 72.264 121.874 72.488C121.506 72.712 121.122 72.824 120.722 72.824C120.322 72.824 119.934 72.712 119.558 72.488C119.19 72.264 118.894 71.968 118.67 71.6C118.446 71.224 118.334 70.836 118.334 70.436C118.334 70.036 118.446 69.652 118.67 69.284C118.894 68.916 119.19 68.62 119.558 68.396C119.934 68.172 120.322 68.06 120.722 68.06ZM120.722 71.636C120.914 71.636 121.102 71.58 121.286 71.468C121.478 71.348 121.63 71.196 121.742 71.012C121.862 70.82 121.922 70.628 121.922 70.436C121.922 70.244 121.862 70.056 121.742 69.872C121.63 69.688 121.478 69.54 121.286 69.428C121.102 69.316 120.914 69.26 120.722 69.26C120.53 69.26 120.338 69.32 120.146 69.44C119.962 69.552 119.81 69.7 119.69 69.884C119.578 70.06 119.522 70.244 119.522 70.436C119.522 70.628 119.578 70.82 119.69 71.012C119.81 71.196 119.962 71.348 120.146 71.468C120.338 71.58 120.53 71.636 120.722 71.636ZM128.023 68.06C128.423 68.06 128.807 68.172 129.175 68.396C129.551 68.62 129.851 68.916 130.075 69.284C130.299 69.652 130.411 70.036 130.411 70.436C130.411 70.836 130.299 71.224 130.075 71.6C129.851 71.968 129.551 72.264 129.175 72.488C128.807 72.712 128.423 72.824 128.023 72.824C127.623 72.824 127.235 72.712 126.859 72.488C126.491 72.264 126.195 71.968 125.971 71.6C125.747 71.224 125.635 70.836 125.635 70.436C125.635 70.036 125.747 69.652 125.971 69.284C126.195 68.916 126.491 68.62 126.859 68.396C127.235 68.172 127.623 68.06 128.023 68.06ZM128.023 71.636C128.215 71.636 128.403 71.58 128.587 71.468C128.779 71.348 128.931 71.196 129.043 71.012C129.163 70.82 129.223 70.628 129.223 70.436C129.223 70.244 129.163 70.056 129.043 69.872C128.931 69.688 128.779 69.54 128.587 69.428C128.403 69.316 128.215 69.26 128.023 69.26C127.831 69.26 127.639 69.32 127.447 69.44C127.263 69.552 127.111 69.7 126.991 69.884C126.879 70.06 126.823 70.244 126.823 70.436C126.823 70.628 126.879 70.82 126.991 71.012C127.111 71.196 127.263 71.348 127.447 71.468C127.639 71.58 127.831 71.636 128.023 71.636ZM137.812 72.704C137.852 72.704 137.88 72.748 137.896 72.836C137.92 72.924 137.932 73.104 137.932 73.376C137.932 73.632 137.92 73.8 137.896 73.88C137.88 73.96 137.852 74 137.812 74H137.452C136.812 74 136.328 73.812 136 73.436C135.672 73.06 135.508 72.528 135.508 71.84V66.248H136.744V71.756C136.744 72.084 136.804 72.324 136.924 72.476C137.052 72.628 137.252 72.704 137.524 72.704H137.812ZM141.116 71.984C141.116 72.616 140.928 73.112 140.552 73.472C140.176 73.824 139.672 74 139.04 74H137.816C137.736 74 137.696 73.792 137.696 73.376C137.696 72.928 137.736 72.704 137.816 72.704H139.04C139.288 72.704 139.488 72.64 139.64 72.512C139.792 72.376 139.868 72.188 139.868 71.948V70.016H141.116V71.984ZM141.44 67.496V68.648H138.176V67.496H141.44ZM148.905 76.904C147.881 76.904 147.093 76.608 146.541 76.016C145.989 75.432 145.713 74.608 145.713 73.544V71.216H146.949V73.52C146.949 74.912 147.605 75.608 148.917 75.608H149.409C150.049 75.608 150.553 75.432 150.921 75.08C151.289 74.728 151.473 74.244 151.473 73.628V70.016H152.721V73.52C152.721 74.224 152.581 74.828 152.301 75.332C152.021 75.844 151.629 76.232 151.125 76.496C150.629 76.768 150.057 76.904 149.409 76.904H148.905ZM148.257 69.728V68.552H149.697V69.728H148.257ZM156.949 72.704C156.989 72.704 157.017 72.748 157.033 72.836C157.057 72.924 157.069 73.104 157.069 73.376C157.069 73.632 157.057 73.8 157.033 73.88C157.017 73.96 156.989 74 156.949 74H156.589C155.949 74 155.465 73.812 155.137 73.436C154.809 73.06 154.645 72.528 154.645 71.84V66.248H155.881V71.756C155.881 72.084 155.941 72.324 156.061 72.476C156.189 72.628 156.389 72.704 156.661 72.704H156.949ZM157.241 72.704C157.505 72.704 157.693 72.652 157.805 72.548C157.925 72.436 157.985 72.264 157.985 72.032V71.612C157.985 70.844 158.197 70.236 158.621 69.788C159.053 69.34 159.637 69.116 160.373 69.116C161.109 69.116 161.673 69.332 162.065 69.764C162.457 70.188 162.653 70.8 162.653 71.6C162.653 72.36 162.445 72.952 162.029 73.376C161.621 73.792 161.053 74 160.325 74C159.917 74 159.573 73.944 159.293 73.832C159.013 73.712 158.809 73.548 158.681 73.34C158.537 73.572 158.349 73.74 158.117 73.844C157.893 73.948 157.601 74 157.241 74H156.953C156.873 74 156.833 73.792 156.833 73.376C156.833 72.928 156.873 72.704 156.953 72.704H157.241ZM161.417 71.6C161.417 71.184 161.325 70.876 161.141 70.676C160.965 70.468 160.693 70.364 160.325 70.364C159.957 70.364 159.681 70.468 159.497 70.676C159.321 70.876 159.233 71.188 159.233 71.612C159.233 71.964 159.325 72.236 159.509 72.428C159.693 72.612 159.965 72.704 160.325 72.704C160.693 72.704 160.965 72.616 161.141 72.44C161.325 72.256 161.417 71.976 161.417 71.6ZM170.151 72.704C170.231 72.704 170.271 72.928 170.271 73.376C170.271 73.792 170.231 74 170.151 74H169.083C169.003 74.912 168.687 75.624 168.135 76.136C167.591 76.648 166.875 76.904 165.987 76.904H164.439L164.331 75.608H166.023C166.591 75.608 167.039 75.464 167.367 75.176C167.695 74.888 167.863 74.496 167.871 74H166.839C165.991 74 165.383 73.828 165.015 73.484C164.647 73.132 164.463 72.584 164.463 71.84C164.463 71.328 164.559 70.876 164.751 70.484C164.951 70.092 165.227 69.788 165.579 69.572C165.939 69.348 166.351 69.236 166.815 69.236C167.527 69.236 168.087 69.476 168.495 69.956C168.903 70.428 169.107 71.076 169.107 71.9V72.704H170.151ZM165.711 71.78C165.711 72.116 165.799 72.356 165.975 72.5C166.151 72.636 166.459 72.704 166.899 72.704H167.871V71.924C167.871 71.452 167.775 71.096 167.583 70.856C167.391 70.608 167.115 70.484 166.755 70.484C166.427 70.484 166.171 70.604 165.987 70.844C165.803 71.076 165.711 71.388 165.711 71.78ZM173.448 71.984C173.448 72.616 173.26 73.112 172.884 73.472C172.508 73.824 172.004 74 171.372 74H170.148C170.068 74 170.028 73.792 170.028 73.376C170.028 72.928 170.068 72.704 170.148 72.704H171.372C171.62 72.704 171.82 72.64 171.972 72.512C172.124 72.376 172.2 72.188 172.2 71.948V70.016H173.448V71.984ZM173.772 67.496V68.648H170.508V67.496H173.772ZM181.405 66.416C181.637 67.8 181.949 69.032 182.341 70.112C182.741 71.192 183.273 72.28 183.937 73.376L182.905 74.108C181.801 72.324 181.093 70.504 180.781 68.648C180.437 70.696 179.765 72.516 178.765 74.108L177.685 73.376C178.317 72.376 178.829 71.336 179.221 70.256C179.613 69.168 179.945 67.888 180.217 66.416H181.405ZM188.128 68.06C188.528 68.06 188.912 68.172 189.28 68.396C189.656 68.62 189.956 68.916 190.18 69.284C190.404 69.652 190.516 70.036 190.516 70.436C190.516 70.836 190.404 71.224 190.18 71.6C189.956 71.968 189.656 72.264 189.28 72.488C188.912 72.712 188.528 72.824 188.128 72.824C187.728 72.824 187.34 72.712 186.964 72.488C186.596 72.264 186.3 71.968 186.076 71.6C185.852 71.224 185.74 70.836 185.74 70.436C185.74 70.036 185.852 69.652 186.076 69.284C186.3 68.916 186.596 68.62 186.964 68.396C187.34 68.172 187.728 68.06 188.128 68.06ZM188.128 71.636C188.32 71.636 188.508 71.58 188.692 71.468C188.884 71.348 189.036 71.196 189.148 71.012C189.268 70.82 189.328 70.628 189.328 70.436C189.328 70.244 189.268 70.056 189.148 69.872C189.036 69.688 188.884 69.54 188.692 69.428C188.508 69.316 188.32 69.26 188.128 69.26C187.936 69.26 187.744 69.32 187.552 69.44C187.368 69.552 187.216 69.7 187.096 69.884C186.984 70.06 186.928 70.244 186.928 70.436C186.928 70.628 186.984 70.82 187.096 71.012C187.216 71.196 187.368 71.348 187.552 71.468C187.744 71.58 187.936 71.636 188.128 71.636ZM193.437 74C193.173 74 192.981 73.932 192.861 73.796C192.741 73.66 192.681 73.42 192.681 73.076C192.681 72.436 192.713 71.976 192.777 71.696C192.849 71.408 192.981 71.204 193.173 71.084C193.373 70.964 193.701 70.864 194.157 70.784V71.576C193.901 71.624 193.721 71.672 193.617 71.72C193.521 71.768 193.457 71.84 193.425 71.936C193.401 72.032 193.389 72.196 193.389 72.428C193.677 72.428 193.885 72.484 194.013 72.596C194.141 72.708 194.205 72.904 194.205 73.184C194.205 73.472 194.141 73.68 194.013 73.808C193.885 73.936 193.693 74 193.437 74ZM198.746 68.06C199.146 68.06 199.53 68.172 199.898 68.396C200.274 68.62 200.574 68.916 200.798 69.284C201.022 69.652 201.134 70.036 201.134 70.436C201.134 70.836 201.022 71.224 200.798 71.6C200.574 71.968 200.274 72.264 199.898 72.488C199.53 72.712 199.146 72.824 198.746 72.824C198.346 72.824 197.958 72.712 197.582 72.488C197.214 72.264 196.918 71.968 196.694 71.6C196.47 71.224 196.358 70.836 196.358 70.436C196.358 70.036 196.47 69.652 196.694 69.284C196.918 68.916 197.214 68.62 197.582 68.396C197.958 68.172 198.346 68.06 198.746 68.06ZM198.746 71.636C198.938 71.636 199.126 71.58 199.31 71.468C199.502 71.348 199.654 71.196 199.766 71.012C199.886 70.82 199.946 70.628 199.946 70.436C199.946 70.244 199.886 70.056 199.766 69.872C199.654 69.688 199.502 69.54 199.31 69.428C199.126 69.316 198.938 69.26 198.746 69.26C198.554 69.26 198.362 69.32 198.17 69.44C197.986 69.552 197.834 69.7 197.714 69.884C197.602 70.06 197.546 70.244 197.546 70.436C197.546 70.628 197.602 70.82 197.714 71.012C197.834 71.196 197.986 71.348 198.17 71.468C198.362 71.58 198.554 71.636 198.746 71.636ZM206.046 68.06C206.446 68.06 206.83 68.172 207.198 68.396C207.574 68.62 207.874 68.916 208.098 69.284C208.322 69.652 208.434 70.036 208.434 70.436C208.434 70.836 208.322 71.224 208.098 71.6C207.874 71.968 207.574 72.264 207.198 72.488C206.83 72.712 206.446 72.824 206.046 72.824C205.646 72.824 205.258 72.712 204.882 72.488C204.514 72.264 204.218 71.968 203.994 71.6C203.77 71.224 203.658 70.836 203.658 70.436C203.658 70.036 203.77 69.652 203.994 69.284C204.218 68.916 204.514 68.62 204.882 68.396C205.258 68.172 205.646 68.06 206.046 68.06ZM206.046 71.636C206.238 71.636 206.426 71.58 206.61 71.468C206.802 71.348 206.954 71.196 207.066 71.012C207.186 70.82 207.246 70.628 207.246 70.436C207.246 70.244 207.186 70.056 207.066 69.872C206.954 69.688 206.802 69.54 206.61 69.428C206.426 69.316 206.238 69.26 206.046 69.26C205.854 69.26 205.662 69.32 205.47 69.44C205.286 69.552 205.134 69.7 205.014 69.884C204.902 70.06 204.846 70.244 204.846 70.436C204.846 70.628 204.902 70.82 205.014 71.012C205.134 71.196 205.286 71.348 205.47 71.468C205.662 71.58 205.854 71.636 206.046 71.636ZM213.347 68.06C213.747 68.06 214.131 68.172 214.499 68.396C214.875 68.62 215.175 68.916 215.399 69.284C215.623 69.652 215.735 70.036 215.735 70.436C215.735 70.836 215.623 71.224 215.399 71.6C215.175 71.968 214.875 72.264 214.499 72.488C214.131 72.712 213.747 72.824 213.347 72.824C212.947 72.824 212.559 72.712 212.183 72.488C211.815 72.264 211.519 71.968 211.295 71.6C211.071 71.224 210.959 70.836 210.959 70.436C210.959 70.036 211.071 69.652 211.295 69.284C211.519 68.916 211.815 68.62 212.183 68.396C212.559 68.172 212.947 68.06 213.347 68.06ZM213.347 71.636C213.539 71.636 213.727 71.58 213.911 71.468C214.103 71.348 214.255 71.196 214.367 71.012C214.487 70.82 214.547 70.628 214.547 70.436C214.547 70.244 214.487 70.056 214.367 69.872C214.255 69.688 214.103 69.54 213.911 69.428C213.727 69.316 213.539 69.26 213.347 69.26C213.155 69.26 212.963 69.32 212.771 69.44C212.587 69.552 212.435 69.7 212.315 69.884C212.203 70.06 212.147 70.244 212.147 70.436C212.147 70.628 212.203 70.82 212.315 71.012C212.435 71.196 212.587 71.348 212.771 71.468C212.963 71.58 213.155 71.636 213.347 71.636Z" fill="#191919" />
    <rect x="109.5" y="17" width="75" height="30" rx="3.5" stroke="#191919" stroke-opacity="0.5" />
    <path d="M122.347 29.7C122.851 29.7 123.255 29.816 123.559 30.048C123.863 30.28 124.015 30.62 124.015 31.068C124.015 31.396 123.923 31.708 123.739 32.004C123.555 32.292 123.207 32.664 122.695 33.12C122.863 33.176 123.211 33.204 123.739 33.204H124.987C125.027 33.204 125.055 33.248 125.071 33.336C125.095 33.424 125.107 33.604 125.107 33.876C125.107 34.132 125.095 34.3 125.071 34.38C125.055 34.46 125.027 34.5 124.987 34.5H123.739C123.003 34.5 122.471 34.46 122.143 34.38C121.815 34.3 121.531 34.148 121.291 33.924C120.339 34.524 119.863 35.208 119.863 35.976C119.863 36.448 120.015 36.796 120.319 37.02C120.631 37.244 121.123 37.356 121.795 37.356H124.135L124.027 38.652H121.735C120.671 38.652 119.887 38.436 119.383 38.004C118.879 37.572 118.627 36.912 118.627 36.024C118.627 34.92 119.155 33.968 120.211 33.168L118.675 30.912L119.311 29.7H122.347ZM122.815 31.32C122.815 31.184 122.759 31.08 122.647 31.008C122.543 30.936 122.387 30.9 122.179 30.9H120.067L121.411 32.892C121.963 32.42 122.335 32.076 122.527 31.86C122.719 31.644 122.815 31.464 122.815 31.32ZM120.751 28.164V26.988H122.191V28.164H120.751ZM125.388 33.204C125.636 33.204 125.836 33.14 125.988 33.012C126.14 32.876 126.216 32.688 126.216 32.448V26.748H127.464V32.388C127.464 32.66 127.536 32.864 127.68 33C127.824 33.136 128.024 33.204 128.28 33.204H128.604C128.684 33.204 128.724 33.424 128.724 33.864C128.724 34.288 128.684 34.5 128.604 34.5H128.22C127.876 34.5 127.584 34.444 127.344 34.332C127.112 34.22 126.944 34.056 126.84 33.84C126.552 34.28 126.068 34.5 125.388 34.5H124.992C124.912 34.5 124.872 34.292 124.872 33.876C124.872 33.428 124.912 33.204 124.992 33.204H125.388ZM130.042 33.204C130.298 33.204 130.502 33.14 130.654 33.012C130.814 32.876 130.894 32.688 130.894 32.448V30.516H132.142V32.4C132.142 32.936 132.418 33.204 132.97 33.204H133.378C133.458 33.204 133.498 33.424 133.498 33.864C133.498 34.288 133.458 34.5 133.378 34.5H132.922C132.21 34.5 131.738 34.284 131.506 33.852C131.226 34.284 130.738 34.5 130.042 34.5H128.602C128.522 34.5 128.482 34.292 128.482 33.876C128.482 33.428 128.522 33.204 128.602 33.204H130.042ZM129.106 37.08V35.904H130.546V37.08H129.106ZM133.671 33.204C133.935 33.204 134.123 33.152 134.235 33.048C134.355 32.936 134.415 32.764 134.415 32.532V32.112C134.415 31.344 134.627 30.736 135.051 30.288C135.483 29.84 136.067 29.616 136.803 29.616C137.539 29.616 138.103 29.832 138.495 30.264C138.887 30.688 139.083 31.3 139.083 32.1C139.083 32.86 138.875 33.452 138.459 33.876C138.051 34.292 137.483 34.5 136.755 34.5C136.347 34.5 136.003 34.444 135.723 34.332C135.443 34.212 135.239 34.048 135.111 33.84C134.967 34.072 134.779 34.24 134.547 34.344C134.323 34.448 134.031 34.5 133.671 34.5H133.383C133.303 34.5 133.263 34.292 133.263 33.876C133.263 33.428 133.303 33.204 133.383 33.204H133.671ZM137.847 32.1C137.847 31.684 137.755 31.376 137.571 31.176C137.395 30.968 137.123 30.864 136.755 30.864C136.387 30.864 136.111 30.968 135.927 31.176C135.751 31.376 135.663 31.688 135.663 32.112C135.663 32.464 135.755 32.736 135.939 32.928C136.123 33.112 136.395 33.204 136.755 33.204C137.123 33.204 137.395 33.116 137.571 32.94C137.755 32.756 137.847 32.476 137.847 32.1ZM146.117 33.204C146.157 33.204 146.185 33.248 146.201 33.336C146.225 33.424 146.237 33.604 146.237 33.876C146.237 34.132 146.225 34.3 146.201 34.38C146.185 34.46 146.157 34.5 146.117 34.5H145.757C145.117 34.5 144.633 34.312 144.305 33.936C143.977 33.56 143.813 33.028 143.813 32.34V26.748H145.049V32.256C145.049 32.584 145.109 32.824 145.229 32.976C145.357 33.128 145.557 33.204 145.829 33.204H146.117ZM149.421 32.484C149.421 33.116 149.233 33.612 148.857 33.972C148.481 34.324 147.977 34.5 147.345 34.5H146.121C146.041 34.5 146.001 34.292 146.001 33.876C146.001 33.428 146.041 33.204 146.121 33.204H147.345C147.593 33.204 147.793 33.14 147.945 33.012C148.097 32.876 148.173 32.688 148.173 32.448V30.516H149.421V32.484ZM149.745 27.996V29.148H146.481V27.996H149.745ZM161.474 32.172C161.474 32.54 161.538 32.804 161.666 32.964C161.794 33.124 161.982 33.204 162.23 33.204H162.566C162.606 33.204 162.634 33.248 162.65 33.336C162.674 33.424 162.686 33.604 162.686 33.876C162.686 34.132 162.674 34.3 162.65 34.38C162.634 34.46 162.606 34.5 162.566 34.5H162.23C161.79 34.5 161.43 34.42 161.15 34.26C160.878 34.092 160.69 33.824 160.586 33.456C160.418 33.616 160.19 33.736 159.902 33.816C159.614 33.896 159.31 33.936 158.99 33.936C158.286 33.936 157.75 33.748 157.382 33.372C157.014 32.988 156.83 32.424 156.83 31.68C156.83 31.232 156.93 30.82 157.13 30.444C157.33 30.06 157.61 29.756 157.97 29.532C158.338 29.3 158.758 29.184 159.23 29.184H160.238V28.38H161.474V32.172ZM158.066 31.668C158.066 32.316 158.394 32.64 159.05 32.64C159.426 32.64 159.718 32.576 159.926 32.448C160.134 32.312 160.238 32.128 160.238 31.896V30.432H159.23C158.862 30.432 158.574 30.54 158.366 30.756C158.166 30.964 158.066 31.268 158.066 31.668ZM165.863 32.484C165.863 33.116 165.675 33.612 165.299 33.972C164.923 34.324 164.419 34.5 163.787 34.5H162.562C162.482 34.5 162.442 34.292 162.442 33.876C162.442 33.428 162.482 33.204 162.562 33.204H163.787C164.035 33.204 164.235 33.14 164.387 33.012C164.539 32.876 164.615 32.688 164.615 32.448V30.516H165.863V32.484ZM163.763 28.572C163.555 28.468 163.391 28.316 163.271 28.116C163.159 27.916 163.103 27.708 163.103 27.492C163.103 27.068 163.235 26.728 163.499 26.472C163.771 26.208 164.127 26.076 164.567 26.076H165.179V26.868H164.567C164.367 26.868 164.199 26.928 164.062 27.048C163.935 27.16 163.871 27.3 163.871 27.468C163.871 27.66 163.935 27.816 164.062 27.936C164.191 28.048 164.343 28.104 164.519 28.104C164.623 28.104 164.743 28.076 164.879 28.02C165.015 27.964 165.167 27.892 165.335 27.804C165.503 27.716 165.615 27.656 165.671 27.624L165.971 28.32L163.427 29.64L163.055 28.932L163.763 28.572ZM167.766 26.748H169.002V34.5H167.766V26.748ZM172.829 34.116C172.829 34.78 172.697 35.36 172.433 35.856C172.169 36.352 171.793 36.732 171.305 36.996C170.825 37.268 170.265 37.404 169.625 37.404H168.725L168.617 36.108H169.613C170.229 36.108 170.709 35.932 171.053 35.58C171.405 35.236 171.581 34.748 171.581 34.116V30.516H172.829V34.116ZM174.739 26.748H175.975V34.5H174.739V26.748Z" fill="#191919" fill-opacity="0.5" />
    <rect x="193" y="16" width="32" height="32" rx="4" fill="#3664FF" />
    <path d="M206.227 33.9415C206.227 35.0165 207.052 35.8832 208.077 35.8832H210.168C211.06 35.8832 211.785 35.1248 211.785 34.1915C211.785 33.1748 211.343 32.8165 210.685 32.5832L207.327 31.4165C206.668 31.1832 206.227 30.8248 206.227 29.8082C206.227 28.8748 206.952 28.1165 207.843 28.1165H209.935C210.96 28.1165 211.785 28.9832 211.785 30.0582" stroke="white" stroke-width="1.5" stroke-linecap="round" stroke-linejoin="round" />
    <path d="M209 27V37" stroke="white" stroke-width="1.5" stroke-linecap="round" stroke-linejoin="round" />
    <path d="M208.999 40.3334C213.602 40.3334 217.333 36.6024 217.333 32C217.333 27.3976 213.602 23.6667 208.999 23.6667C204.397 23.6667 200.666 27.3976 200.666 32C200.666 36.6024 204.397 40.3334 208.999 40.3334Z" stroke="white" stroke-width="1.5" stroke-linecap="round" stroke-linejoin="round" />
    <rect x="337.5" y="56.5" width="93" height="30" rx="3.5" stroke="#191919" />
    <path d="M352.935 74.12C352.935 73.688 352.683 73.472 352.179 73.472H349.899V71.216C349.899 70.528 350.103 69.972 350.511 69.548C350.927 69.124 351.487 68.912 352.191 68.912H353.751L353.835 70.16H352.179C351.867 70.16 351.615 70.256 351.423 70.448C351.239 70.64 351.147 70.888 351.147 71.192V72.188H352.395C353.587 72.188 354.183 72.812 354.183 74.06C354.183 74.572 354.035 75.044 353.739 75.476C353.451 75.916 353.051 76.264 352.539 76.52C352.035 76.776 351.475 76.904 350.859 76.904H349.947C348.923 76.904 348.135 76.608 347.583 76.016C347.031 75.432 346.755 74.608 346.755 73.544V71.216H347.991V73.52C347.991 74.912 348.647 75.608 349.959 75.608H350.859C351.499 75.608 352.003 75.468 352.371 75.188C352.747 74.916 352.935 74.56 352.935 74.12ZM358.325 73.616C358.325 74.28 358.193 74.86 357.929 75.356C357.665 75.852 357.289 76.232 356.801 76.496C356.321 76.768 355.761 76.904 355.121 76.904H354.773L354.665 75.608H355.109C355.725 75.608 356.205 75.432 356.549 75.08C356.901 74.736 357.077 74.248 357.077 73.616V70.016H358.325V73.616ZM365.815 72.704C365.895 72.704 365.935 72.928 365.935 73.376C365.935 73.792 365.895 74 365.815 74H364.747C364.667 74.912 364.351 75.624 363.799 76.136C363.255 76.648 362.539 76.904 361.651 76.904H360.103L359.995 75.608H361.687C362.255 75.608 362.703 75.464 363.031 75.176C363.359 74.888 363.527 74.496 363.535 74H362.503C361.655 74 361.047 73.828 360.679 73.484C360.311 73.132 360.127 72.584 360.127 71.84C360.127 71.328 360.223 70.876 360.415 70.484C360.615 70.092 360.891 69.788 361.243 69.572C361.603 69.348 362.015 69.236 362.479 69.236C363.191 69.236 363.751 69.476 364.159 69.956C364.567 70.428 364.771 71.076 364.771 71.9V72.704H365.815ZM361.375 71.78C361.375 72.116 361.463 72.356 361.639 72.5C361.815 72.636 362.123 72.704 362.563 72.704H363.535V71.924C363.535 71.452 363.439 71.096 363.247 70.856C363.055 70.608 362.779 70.484 362.419 70.484C362.091 70.484 361.835 70.604 361.651 70.844C361.467 71.076 361.375 71.388 361.375 71.78ZM367.553 72.704C367.801 72.704 367.965 72.696 368.045 72.68C367.589 72.48 367.261 72.252 367.061 71.996C366.869 71.732 366.773 71.396 366.773 70.988C366.773 70.548 366.873 70.148 367.073 69.788C367.281 69.428 367.561 69.148 367.913 68.948C368.273 68.74 368.677 68.636 369.125 68.636C369.877 68.636 370.461 68.868 370.877 69.332C371.301 69.796 371.513 70.436 371.513 71.252V71.66C371.513 73.22 370.469 74 368.381 74H365.812C365.732 74 365.692 73.792 365.692 73.376C365.692 72.928 365.732 72.704 365.812 72.704H367.553ZM369.917 72.524C370.157 72.308 370.277 71.988 370.277 71.564V71.324C370.277 70.364 369.889 69.884 369.113 69.884C368.809 69.884 368.549 69.992 368.333 70.208C368.117 70.416 368.009 70.672 368.009 70.976C368.009 71.208 368.065 71.408 368.177 71.576C368.297 71.736 368.493 71.892 368.765 72.044C369.037 72.196 369.421 72.356 369.917 72.524ZM368.345 67.448V66.272H369.785V67.448H368.345ZM384.547 72.704C384.627 72.704 384.667 72.928 384.667 73.376C384.667 73.792 384.627 74 384.547 74H383.371C383.459 74.104 383.503 74.264 383.503 74.48C383.503 74.952 383.367 75.372 383.095 75.74C382.823 76.108 382.439 76.392 381.943 76.592C381.447 76.8 380.875 76.904 380.227 76.904H379.315C378.291 76.904 377.503 76.608 376.951 76.016C376.399 75.432 376.123 74.608 376.123 73.544V71.216H377.359V73.52C377.359 74.912 378.015 75.608 379.327 75.608H380.227C380.907 75.608 381.415 75.512 381.751 75.32C382.087 75.128 382.255 74.852 382.255 74.492C382.255 74.3 382.203 74.16 382.099 74.072C382.003 73.992 381.847 73.952 381.631 73.952H379.471L379.591 72.704H384.547ZM387.851 71.984C387.851 72.616 387.663 73.112 387.287 73.472C386.911 73.824 386.407 74 385.775 74H384.551C384.471 74 384.431 73.792 384.431 73.376C384.431 72.928 384.471 72.704 384.551 72.704H385.775C386.023 72.704 386.223 72.64 386.375 72.512C386.527 72.376 386.603 72.188 386.603 71.948V70.016H387.851V71.984ZM388.175 67.496V68.648H384.911V67.496H388.175ZM391.536 73.616C391.536 74.28 391.404 74.86 391.14 75.356C390.876 75.852 390.5 76.232 390.012 76.496C389.532 76.768 388.972 76.904 388.332 76.904H387.432L387.324 75.608H388.32C388.936 75.608 389.416 75.432 389.76 75.08C390.112 74.736 390.288 74.248 390.288 73.616V70.016H391.536V73.616ZM399.026 72.704C399.106 72.704 399.146 72.928 399.146 73.376C399.146 73.792 399.106 74 399.026 74H397.958C397.878 74.912 397.562 75.624 397.01 76.136C396.466 76.648 395.75 76.904 394.862 76.904H393.314L393.206 75.608H394.898C395.466 75.608 395.914 75.464 396.242 75.176C396.57 74.888 396.738 74.496 396.746 74H395.714C394.866 74 394.258 73.828 393.89 73.484C393.522 73.132 393.338 72.584 393.338 71.84C393.338 71.328 393.434 70.876 393.626 70.484C393.826 70.092 394.102 69.788 394.454 69.572C394.814 69.348 395.226 69.236 395.69 69.236C396.402 69.236 396.962 69.476 397.37 69.956C397.778 70.428 397.982 71.076 397.982 71.9V72.704H399.026ZM394.586 71.78C394.586 72.116 394.674 72.356 394.85 72.5C395.026 72.636 395.334 72.704 395.774 72.704H396.746V71.924C396.746 71.452 396.65 71.096 396.458 70.856C396.266 70.608 395.99 70.484 395.63 70.484C395.302 70.484 395.046 70.604 394.862 70.844C394.678 71.076 394.586 71.388 394.586 71.78ZM399.563 72.704C399.891 72.704 400.139 72.628 400.307 72.476C400.483 72.324 400.571 72.116 400.571 71.852V70.016H401.807V71.804C401.807 72.028 401.835 72.192 401.891 72.296C401.955 72.4 402.059 72.484 402.203 72.548C402.923 71.284 403.591 70.372 404.207 69.812C404.831 69.252 405.483 68.972 406.163 68.972C406.603 68.972 406.999 69.08 407.351 69.296C407.703 69.504 407.975 69.8 408.167 70.184C408.367 70.56 408.467 70.992 408.467 71.48C408.467 72.24 408.231 72.852 407.759 73.316C407.295 73.772 406.671 74 405.887 74H402.755C402.331 74 401.987 73.948 401.723 73.844C401.467 73.732 401.271 73.568 401.135 73.352C400.983 73.576 400.779 73.74 400.523 73.844C400.275 73.948 399.955 74 399.563 74H399.023C398.943 74 398.903 73.792 398.903 73.376C398.903 72.928 398.943 72.704 399.023 72.704H399.563ZM405.887 72.704C406.311 72.704 406.639 72.596 406.871 72.38C407.111 72.164 407.231 71.864 407.231 71.48C407.231 71.104 407.119 70.8 406.895 70.568C406.679 70.336 406.403 70.22 406.067 70.22C405.675 70.22 405.267 70.42 404.843 70.82C404.427 71.22 403.955 71.848 403.427 72.704H405.887ZM417.728 71.672C417.728 72.04 417.792 72.304 417.92 72.464C418.048 72.624 418.236 72.704 418.484 72.704H418.82C418.86 72.704 418.888 72.748 418.904 72.836C418.928 72.924 418.94 73.104 418.94 73.376C418.94 73.632 418.928 73.8 418.904 73.88C418.888 73.96 418.86 74 418.82 74H418.484C418.044 74 417.684 73.92 417.404 73.76C417.132 73.592 416.944 73.324 416.84 72.956C416.672 73.116 416.444 73.236 416.156 73.316C415.868 73.396 415.564 73.436 415.244 73.436C414.54 73.436 414.004 73.248 413.636 72.872C413.268 72.488 413.084 71.924 413.084 71.18C413.084 70.732 413.184 70.32 413.384 69.944C413.584 69.56 413.864 69.256 414.224 69.032C414.592 68.8 415.012 68.684 415.484 68.684H416.492V67.88H417.728V71.672ZM414.32 71.168C414.32 71.816 414.648 72.14 415.304 72.14C415.68 72.14 415.972 72.076 416.18 71.948C416.388 71.812 416.492 71.628 416.492 71.396V69.932H415.484C415.116 69.932 414.828 70.04 414.62 70.256C414.42 70.464 414.32 70.768 414.32 71.168ZM422.116 71.984C422.116 72.616 421.928 73.112 421.552 73.472C421.176 73.824 420.672 74 420.04 74H418.816C418.736 74 418.696 73.792 418.696 73.376C418.696 72.928 418.736 72.704 418.816 72.704H420.04C420.288 72.704 420.488 72.64 420.64 72.512C420.792 72.376 420.868 72.188 420.868 71.948V70.016H422.116V71.984ZM419.056 76.58V75.404H420.496V76.58H419.056Z" fill="#191919" />
    <rect x="285.5" y="17" width="105" height="30" rx="3.5" stroke="#191919" stroke-opacity="0.5" />
    <path d="M300.81 33.204C301.058 33.204 301.258 33.14 301.41 33.012C301.562 32.876 301.638 32.692 301.638 32.46V30.516H302.886V32.508C302.886 33.124 302.698 33.612 302.322 33.972C301.946 34.324 301.442 34.5 300.81 34.5H296.67C295.958 34.5 295.418 34.316 295.05 33.948C294.682 33.572 294.498 33.044 294.498 32.364V30.516H295.734V32.196C295.734 32.532 295.814 32.784 295.974 32.952C296.134 33.12 296.386 33.204 296.73 33.204H300.81ZM300.318 28.452V29.604H297.054V28.452H300.318ZM306.571 34.116C306.571 34.78 306.439 35.36 306.175 35.856C305.911 36.352 305.535 36.732 305.047 36.996C304.567 37.268 304.007 37.404 303.367 37.404H302.467L302.359 36.108H303.355C303.971 36.108 304.451 35.932 304.795 35.58C305.147 35.236 305.323 34.748 305.323 34.116V30.516H306.571V34.116ZM310.785 33.204C310.825 33.204 310.853 33.248 310.869 33.336C310.893 33.424 310.905 33.604 310.905 33.876C310.905 34.132 310.893 34.3 310.869 34.38C310.853 34.46 310.825 34.5 310.785 34.5H310.425C309.785 34.5 309.301 34.312 308.973 33.936C308.645 33.56 308.481 33.028 308.481 32.34V26.748H309.717V32.256C309.717 32.584 309.777 32.824 309.897 32.976C310.025 33.128 310.225 33.204 310.497 33.204H310.785ZM314.065 33.204C314.369 33.204 314.605 33.152 314.773 33.048C314.941 32.936 315.025 32.788 315.025 32.604C315.025 32.452 314.989 32.312 314.917 32.184C314.845 32.056 314.729 31.908 314.569 31.74L311.857 29.064V28.02L316.297 26.28L316.669 27.468L313.345 28.74L315.505 30.924C316.009 31.42 316.261 31.992 316.261 32.64C316.261 33.192 316.069 33.64 315.685 33.984C315.301 34.328 314.761 34.5 314.065 34.5H310.789C310.709 34.5 310.669 34.292 310.669 33.876C310.669 33.428 310.709 33.204 310.789 33.204H314.065ZM327.376 33.204C327.632 33.204 327.836 33.14 327.988 33.012C328.148 32.876 328.228 32.692 328.228 32.46V30.516H329.476V32.4C329.476 32.936 329.752 33.204 330.304 33.204H330.712C330.792 33.204 330.832 33.428 330.832 33.876C330.832 34.292 330.792 34.5 330.712 34.5H330.256C329.544 34.5 329.072 34.284 328.84 33.852C328.56 34.284 328.072 34.5 327.376 34.5H323.26C322.548 34.5 322.008 34.316 321.64 33.948C321.272 33.572 321.088 33.044 321.088 32.364V30.516H322.324V32.196C322.324 32.532 322.404 32.784 322.564 32.952C322.724 33.12 322.976 33.204 323.32 33.204H327.376ZM326.908 28.452V29.604H323.644V28.452H326.908ZM332.331 33.204C332.131 33.044 331.971 32.832 331.851 32.568C331.731 32.296 331.671 32.02 331.671 31.74C331.671 31.308 331.775 30.912 331.983 30.552C332.191 30.192 332.475 29.908 332.835 29.7C333.195 29.492 333.595 29.388 334.035 29.388C334.491 29.388 334.895 29.484 335.247 29.676C335.607 29.868 335.883 30.14 336.075 30.492C336.275 30.836 336.375 31.232 336.375 31.68C336.375 32.32 336.139 32.828 335.667 33.204H337.347C337.427 33.204 337.467 33.428 337.467 33.876C337.467 34.292 337.427 34.5 337.347 34.5H335.739C335.259 34.5 334.891 34.484 334.635 34.452C334.387 34.42 334.191 34.364 334.047 34.284C333.895 34.364 333.683 34.42 333.411 34.452C333.147 34.484 332.787 34.5 332.331 34.5H330.711C330.631 34.5 330.591 34.292 330.591 33.876C330.591 33.428 330.631 33.204 330.711 33.204H332.331ZM334.035 30.636C333.699 30.636 333.427 30.74 333.219 30.948C333.019 31.156 332.919 31.42 332.919 31.74C332.919 32.036 333.015 32.312 333.207 32.568C333.407 32.824 333.683 33.032 334.035 33.192C334.395 33.032 334.667 32.824 334.851 32.568C335.043 32.304 335.139 32.028 335.139 31.74C335.139 31.396 335.039 31.128 334.839 30.936C334.647 30.736 334.379 30.636 334.035 30.636ZM333.315 28.068V26.892H334.755V28.068H333.315ZM338.784 33.204C339.04 33.204 339.244 33.14 339.396 33.012C339.556 32.876 339.636 32.688 339.636 32.448V30.516H340.884V32.4C340.884 32.936 341.16 33.204 341.712 33.204H342.12C342.2 33.204 342.24 33.424 342.24 33.864C342.24 34.288 342.2 34.5 342.12 34.5H341.664C340.952 34.5 340.48 34.284 340.248 33.852C339.968 34.284 339.48 34.5 338.784 34.5H337.344C337.264 34.5 337.224 34.292 337.224 33.876C337.224 33.428 337.264 33.204 337.344 33.204H338.784ZM339.84 35.904V37.056H336.576V35.904H339.84ZM347.153 24.66L347.381 25.44L343.193 27.168V26.316L347.153 24.66ZM345.401 33.204C345.705 33.204 345.941 33.152 346.109 33.048C346.277 32.936 346.361 32.788 346.361 32.604C346.361 32.452 346.325 32.312 346.253 32.184C346.181 32.056 346.065 31.908 345.905 31.74L343.193 29.064V28.02L347.633 26.28L348.005 27.468L344.681 28.74L346.841 30.924C347.345 31.42 347.597 31.992 347.597 32.64C347.597 33.192 347.405 33.64 347.021 33.984C346.637 34.328 346.097 34.5 345.401 34.5H342.125C342.045 34.5 342.005 34.292 342.005 33.876C342.005 33.428 342.045 33.204 342.125 33.204H345.401ZM355.615 37.404C354.591 37.404 353.803 37.108 353.251 36.516C352.699 35.932 352.423 35.108 352.423 34.044V31.716H353.659V34.02C353.659 35.412 354.315 36.108 355.627 36.108H356.119C356.759 36.108 357.263 35.932 357.631 35.58C357.999 35.228 358.183 34.744 358.183 34.128V26.748H359.431V32.46C359.431 32.692 359.499 32.876 359.635 33.012C359.779 33.14 359.983 33.204 360.247 33.204H360.523C360.603 33.204 360.643 33.428 360.643 33.876C360.643 34.292 360.603 34.5 360.523 34.5H360.295C360.111 34.5 359.939 34.476 359.779 34.428C359.627 34.38 359.511 34.32 359.431 34.248V34.308C359.415 34.908 359.267 35.444 358.987 35.916C358.707 36.388 358.319 36.752 357.823 37.008C357.327 37.272 356.759 37.404 356.119 37.404H355.615ZM363.823 32.484C363.823 33.116 363.635 33.612 363.259 33.972C362.883 34.324 362.379 34.5 361.747 34.5H360.523C360.443 34.5 360.403 34.292 360.403 33.876C360.403 33.428 360.443 33.204 360.523 33.204H361.747C361.995 33.204 362.195 33.14 362.347 33.012C362.499 32.876 362.575 32.688 362.575 32.448V30.516H363.823V32.484ZM363.115 35.904V37.056H359.851V35.904H363.115ZM371.307 33.204C371.387 33.204 371.427 33.428 371.427 33.876C371.427 34.292 371.387 34.5 371.307 34.5H370.239C370.159 35.412 369.843 36.124 369.291 36.636C368.747 37.148 368.031 37.404 367.143 37.404H365.595L365.487 36.108H367.179C367.747 36.108 368.195 35.964 368.523 35.676C368.851 35.388 369.019 34.996 369.027 34.5H367.995C367.147 34.5 366.539 34.328 366.171 33.984C365.803 33.632 365.619 33.084 365.619 32.34C365.619 31.828 365.715 31.376 365.907 30.984C366.107 30.592 366.383 30.288 366.735 30.072C367.095 29.848 367.507 29.736 367.971 29.736C368.683 29.736 369.243 29.976 369.651 30.456C370.059 30.928 370.263 31.576 370.263 32.4V33.204H371.307ZM366.867 32.28C366.867 32.616 366.955 32.856 367.131 33C367.307 33.136 367.615 33.204 368.055 33.204H369.027V32.424C369.027 31.952 368.931 31.596 368.739 31.356C368.547 31.108 368.271 30.984 367.911 30.984C367.583 30.984 367.327 31.104 367.143 31.344C366.959 31.576 366.867 31.888 366.867 32.28ZM375.313 29.436C375.809 29.436 376.213 29.52 376.525 29.688C376.837 29.848 377.097 30.12 377.305 30.504C377.513 30.888 377.697 31.428 377.857 32.124L377.005 32.652C377.109 32.852 377.241 32.996 377.401 33.084C377.569 33.164 377.793 33.204 378.073 33.204H378.817C378.897 33.204 378.937 33.428 378.937 33.876C378.937 34.148 378.925 34.32 378.901 34.392C378.877 34.464 378.849 34.5 378.817 34.5H378.025C377.561 34.5 377.181 34.408 376.885 34.224C376.597 34.032 376.333 33.7 376.093 33.228L375.469 33.624C374.933 33.96 374.417 34.192 373.921 34.32C373.433 34.44 372.829 34.5 372.109 34.5H371.305C371.225 34.5 371.185 34.292 371.185 33.876C371.185 33.428 371.225 33.204 371.305 33.204H372.169C372.777 33.204 373.277 33.16 373.669 33.072C374.069 32.984 374.477 32.82 374.893 32.58L376.405 31.716C376.301 31.34 376.153 31.084 375.961 30.948C375.769 30.804 375.481 30.732 375.097 30.732H372.325L372.481 29.436H375.313ZM382.116 32.484C382.116 33.116 381.928 33.612 381.552 33.972C381.176 34.324 380.672 34.5 380.04 34.5H378.816C378.736 34.5 378.696 34.292 378.696 33.876C378.696 33.428 378.736 33.204 378.816 33.204H380.04C380.288 33.204 380.488 33.14 380.64 33.012C380.792 32.876 380.868 32.688 380.868 32.448V30.516H382.116V32.484ZM382.44 27.996V29.148H379.176V27.996H382.44Z" fill="#191919" fill-opacity="0.5" />
    <rect x="399" y="16" width="32" height="32" rx="4" fill="#3664FF" />
    <path d="M412.083 37.8334H417.916C419.858 37.8334 420.833 36.8584 420.833 34.9167V29.0834C420.833 27.1417 419.858 26.1667 417.916 26.1667H412.083C410.141 26.1667 409.166 27.1417 409.166 29.0834V34.9167C409.166 36.8584 410.141 37.8334 412.083 37.8334Z" stroke="white" stroke-width="1.5" stroke-miterlimit="10" stroke-linecap="round" stroke-linejoin="round" />
    <path d="M418.333 23.6667H411.666" stroke="white" stroke-width="1.5" stroke-miterlimit="10" stroke-linecap="round" stroke-linejoin="round" />
    <path d="M418.333 40.3333H411.666" stroke="white" stroke-width="1.5" stroke-miterlimit="10" stroke-linecap="round" stroke-linejoin="round" />
    <path d="M414.584 29.9167V32.4167H417.084" stroke="white" stroke-width="1.5" stroke-miterlimit="10" stroke-linecap="round" stroke-linejoin="round" />
    <rect x="563.5" y="56.5" width="49" height="30" rx="3.5" stroke="#191919" />
    <path d="M576.487 70.424C576.759 70.744 576.951 71.04 577.062 71.312C577.183 71.576 577.243 71.852 577.243 72.14C577.243 72.692 577.047 73.14 576.655 73.484C576.271 73.828 575.731 74 575.035 74H571.723L571.603 72.704H575.035C575.339 72.704 575.575 72.652 575.743 72.548C575.911 72.436 575.995 72.288 575.995 72.104C575.995 71.976 575.959 71.852 575.887 71.732C575.823 71.604 575.707 71.44 575.539 71.24L573.379 68.732L574.255 67.844L576.487 70.424ZM584.729 72.704C584.809 72.704 584.849 72.928 584.849 73.376C584.849 73.792 584.809 74 584.729 74H583.661C583.581 74.912 583.265 75.624 582.713 76.136C582.169 76.648 581.453 76.904 580.565 76.904H579.017L578.909 75.608H580.601C581.169 75.608 581.617 75.464 581.945 75.176C582.273 74.888 582.441 74.496 582.449 74H581.417C580.569 74 579.961 73.828 579.593 73.484C579.225 73.132 579.041 72.584 579.041 71.84C579.041 71.328 579.137 70.876 579.329 70.484C579.529 70.092 579.805 69.788 580.157 69.572C580.517 69.348 580.929 69.236 581.393 69.236C582.105 69.236 582.665 69.476 583.073 69.956C583.481 70.428 583.685 71.076 583.685 71.9V72.704H584.729ZM580.289 71.78C580.289 72.116 580.377 72.356 580.553 72.5C580.729 72.636 581.037 72.704 581.477 72.704H582.449V71.924C582.449 71.452 582.353 71.096 582.161 70.856C581.969 70.608 581.693 70.484 581.333 70.484C581.005 70.484 580.749 70.604 580.565 70.844C580.381 71.076 580.289 71.388 580.289 71.78ZM585.591 72.704C586.199 72.704 586.699 72.66 587.091 72.572C587.491 72.484 587.899 72.32 588.315 72.08L589.827 71.216C589.723 70.84 589.575 70.584 589.383 70.448C589.191 70.304 588.903 70.232 588.519 70.232H585.747L585.903 68.936H588.735C589.231 68.936 589.635 69.02 589.947 69.188C590.259 69.348 590.519 69.62 590.727 70.004C590.935 70.388 591.119 70.928 591.279 71.624L588.891 73.124C588.355 73.46 587.839 73.692 587.343 73.82C586.855 73.94 586.251 74 585.531 74H584.727C584.647 74 584.607 73.792 584.607 73.376C584.607 72.928 584.647 72.704 584.727 72.704H585.591ZM586.815 76.58V75.404H588.255V76.58H586.815ZM598.405 72.704C598.485 72.704 598.525 72.928 598.525 73.376C598.525 73.792 598.485 74 598.405 74H597.337C597.257 74.912 596.941 75.624 596.389 76.136C595.845 76.648 595.129 76.904 594.241 76.904H592.693L592.585 75.608H594.277C594.845 75.608 595.293 75.464 595.621 75.176C595.949 74.888 596.117 74.496 596.125 74H595.093C594.245 74 593.637 73.828 593.269 73.484C592.901 73.132 592.717 72.584 592.717 71.84C592.717 71.328 592.813 70.876 593.005 70.484C593.205 70.092 593.481 69.788 593.833 69.572C594.193 69.348 594.605 69.236 595.069 69.236C595.781 69.236 596.341 69.476 596.749 69.956C597.157 70.428 597.361 71.076 597.361 71.9V72.704H598.405ZM593.965 71.78C593.965 72.116 594.053 72.356 594.229 72.5C594.405 72.636 594.713 72.704 595.153 72.704H596.125V71.924C596.125 71.452 596.029 71.096 595.837 70.856C595.645 70.608 595.369 70.484 595.009 70.484C594.681 70.484 594.425 70.604 594.241 70.844C594.057 71.076 593.965 71.388 593.965 71.78ZM598.69 72.704C598.954 72.704 599.142 72.652 599.254 72.548C599.374 72.436 599.434 72.264 599.434 72.032V71.612C599.434 70.844 599.646 70.236 600.07 69.788C600.502 69.34 601.086 69.116 601.822 69.116C602.558 69.116 603.122 69.332 603.514 69.764C603.906 70.188 604.102 70.8 604.102 71.6C604.102 72.36 603.894 72.952 603.478 73.376C603.07 73.792 602.502 74 601.774 74C601.366 74 601.022 73.944 600.742 73.832C600.462 73.712 600.258 73.548 600.13 73.34C599.986 73.572 599.798 73.74 599.566 73.844C599.342 73.948 599.05 74 598.69 74H598.402C598.322 74 598.282 73.792 598.282 73.376C598.282 72.928 598.322 72.704 598.402 72.704H598.69ZM602.866 71.6C602.866 71.184 602.774 70.876 602.59 70.676C602.414 70.468 602.142 70.364 601.774 70.364C601.406 70.364 601.13 70.468 600.946 70.676C600.77 70.876 600.682 71.188 600.682 71.612C600.682 71.964 600.774 72.236 600.958 72.428C601.142 72.612 601.414 72.704 601.774 72.704C602.142 72.704 602.414 72.616 602.59 72.44C602.774 72.256 602.866 71.976 602.866 71.6Z" fill="#191919" />
    <rect x="491.5" y="16.5" width="81" height="30" rx="3.5" stroke="#191919" stroke-opacity="0.5" />
    <path d="M506.282 32.704C506.53 32.704 506.73 32.64 506.882 32.512C507.034 32.376 507.11 32.192 507.11 31.96V30.016H508.358V32.008C508.358 32.624 508.17 33.112 507.794 33.472C507.418 33.824 506.914 34 506.282 34H502.142C501.43 34 500.89 33.816 500.522 33.448C500.154 33.072 499.97 32.544 499.97 31.864V30.016H501.206V31.696C501.206 32.032 501.286 32.284 501.446 32.452C501.606 32.62 501.858 32.704 502.202 32.704H506.282ZM505.79 27.952V29.104H502.526V27.952H505.79ZM512.044 33.616C512.044 34.28 511.912 34.86 511.648 35.356C511.384 35.852 511.008 36.232 510.52 36.496C510.04 36.768 509.48 36.904 508.84 36.904H507.94L507.832 35.608H508.828C509.444 35.608 509.924 35.432 510.268 35.08C510.62 34.736 510.796 34.248 510.796 33.616V30.016H512.044V33.616ZM516.258 32.704C516.298 32.704 516.326 32.748 516.342 32.836C516.366 32.924 516.378 33.104 516.378 33.376C516.378 33.632 516.366 33.8 516.342 33.88C516.326 33.96 516.298 34 516.258 34H515.898C515.258 34 514.774 33.812 514.446 33.436C514.118 33.06 513.954 32.528 513.954 31.84V26.248H515.19V31.756C515.19 32.084 515.25 32.324 515.37 32.476C515.498 32.628 515.698 32.704 515.97 32.704H516.258ZM519.538 32.704C519.842 32.704 520.078 32.652 520.246 32.548C520.414 32.436 520.498 32.288 520.498 32.104C520.498 31.952 520.462 31.812 520.39 31.684C520.318 31.556 520.202 31.408 520.042 31.24L517.33 28.564V27.52L521.77 25.78L522.142 26.968L518.818 28.24L520.978 30.424C521.482 30.92 521.734 31.492 521.734 32.14C521.734 32.692 521.542 33.14 521.158 33.484C520.774 33.828 520.234 34 519.538 34H516.262C516.182 34 516.142 33.792 516.142 33.376C516.142 32.928 516.182 32.704 516.262 32.704H519.538ZM532.848 32.704C533.104 32.704 533.308 32.64 533.46 32.512C533.62 32.376 533.7 32.192 533.7 31.96V30.016H534.948V31.9C534.948 32.436 535.224 32.704 535.776 32.704H536.184C536.264 32.704 536.304 32.928 536.304 33.376C536.304 33.792 536.264 34 536.184 34H535.728C535.016 34 534.544 33.784 534.312 33.352C534.032 33.784 533.544 34 532.848 34H528.732C528.02 34 527.48 33.816 527.112 33.448C526.744 33.072 526.56 32.544 526.56 31.864V30.016H527.796V31.696C527.796 32.032 527.876 32.284 528.036 32.452C528.196 32.62 528.448 32.704 528.792 32.704H532.848ZM532.38 27.952V29.104H529.116V27.952H532.38ZM537.624 32.704C537.88 32.704 538.084 32.64 538.236 32.512C538.396 32.376 538.476 32.188 538.476 31.948V30.016H539.724V31.9C539.724 32.436 540 32.704 540.552 32.704H540.96C541.04 32.704 541.08 32.924 541.08 33.364C541.08 33.788 541.04 34 540.96 34H540.504C539.792 34 539.32 33.784 539.088 33.352C538.808 33.784 538.32 34 537.624 34H536.184C536.104 34 536.064 33.792 536.064 33.376C536.064 32.928 536.104 32.704 536.184 32.704H537.624ZM538.68 35.404V36.556H535.416V35.404H538.68ZM541.877 32.704C542.309 32.704 542.633 32.696 542.849 32.68C543.065 32.656 543.237 32.62 543.365 32.572L541.877 30.412L542.525 29.2H545.561C546.057 29.2 546.457 29.316 546.761 29.548C547.065 29.78 547.217 30.12 547.217 30.568C547.217 30.896 547.125 31.208 546.941 31.504C546.765 31.792 546.417 32.164 545.897 32.62C546.073 32.676 546.425 32.704 546.953 32.704H548.201C548.241 32.704 548.269 32.748 548.285 32.836C548.309 32.924 548.321 33.104 548.321 33.376C548.321 33.632 548.309 33.8 548.285 33.88C548.269 33.96 548.241 34 548.201 34H546.953C546.217 34 545.685 33.96 545.357 33.88C545.029 33.8 544.745 33.648 544.505 33.424C544.169 33.64 543.797 33.792 543.389 33.88C542.981 33.96 542.461 34 541.829 34H540.965C540.885 34 540.845 33.792 540.845 33.376C540.845 32.928 540.885 32.704 540.965 32.704H541.877ZM546.029 30.82C546.029 30.684 545.973 30.58 545.861 30.508C545.749 30.436 545.593 30.4 545.393 30.4H543.269L544.625 32.392C545.177 31.92 545.549 31.576 545.741 31.36C545.933 31.144 546.029 30.964 546.029 30.82ZM548.735 32.704C549.063 32.704 549.311 32.628 549.479 32.476C549.655 32.324 549.743 32.116 549.743 31.852V30.016H550.979V31.804C550.979 32.028 551.007 32.192 551.063 32.296C551.127 32.4 551.231 32.484 551.375 32.548C552.095 31.284 552.763 30.372 553.379 29.812C554.003 29.252 554.655 28.972 555.335 28.972C555.775 28.972 556.171 29.08 556.523 29.296C556.875 29.504 557.147 29.8 557.339 30.184C557.539 30.56 557.639 30.992 557.639 31.48C557.639 32.24 557.403 32.852 556.931 33.316C556.467 33.772 555.843 34 555.059 34H551.927C551.503 34 551.159 33.948 550.895 33.844C550.639 33.732 550.443 33.568 550.307 33.352C550.155 33.576 549.951 33.74 549.695 33.844C549.447 33.948 549.127 34 548.735 34H548.195C548.115 34 548.075 33.792 548.075 33.376C548.075 32.928 548.115 32.704 548.195 32.704H548.735ZM555.059 32.704C555.483 32.704 555.811 32.596 556.043 32.38C556.283 32.164 556.403 31.864 556.403 31.48C556.403 31.104 556.291 30.8 556.067 30.568C555.851 30.336 555.575 30.22 555.239 30.22C554.847 30.22 554.439 30.42 554.015 30.82C553.599 31.22 553.127 31.848 552.599 32.704H555.059ZM554.555 27.772V26.596H555.995V27.772H554.555ZM564.099 33.568C564.099 34.256 563.971 34.848 563.715 35.344C563.459 35.848 563.095 36.232 562.623 36.496C562.159 36.768 561.611 36.904 560.979 36.904H559.431L559.323 35.608H561.015C561.583 35.608 562.031 35.464 562.359 35.176C562.687 34.888 562.855 34.496 562.863 34H561.831C560.983 34 560.375 33.828 560.007 33.484C559.639 33.132 559.455 32.584 559.455 31.84C559.455 31.328 559.551 30.876 559.743 30.484C559.943 30.092 560.219 29.788 560.571 29.572C560.931 29.348 561.343 29.236 561.807 29.236C562.519 29.236 563.079 29.476 563.487 29.956C563.895 30.428 564.099 31.076 564.099 31.9V33.568ZM560.703 31.78C560.703 32.116 560.791 32.356 560.967 32.5C561.143 32.636 561.451 32.704 561.891 32.704H562.863V31.924C562.863 31.452 562.767 31.096 562.575 30.856C562.383 30.608 562.107 30.484 561.747 30.484C561.419 30.484 561.163 30.604 560.979 30.844C560.795 31.076 560.703 31.388 560.703 31.78Z" fill="#191919" fill-opacity="0.5" />
    <rect x="581" y="16" width="32" height="32" rx="4" fill="#3664FF" />
    <path d="M602.034 33.2916C601.684 33.6333 601.484 34.125 601.534 34.65C601.609 35.55 602.434 36.2083 603.334 36.2083H604.917V37.2C604.917 38.925 603.509 40.3333 601.784 40.3333H593.359C593.617 40.1166 593.842 39.85 594.017 39.55C594.326 39.05 594.501 38.4583 594.501 37.8333C594.501 35.9916 593.009 34.5 591.167 34.5C590.384 34.5 589.659 34.775 589.084 35.2333V31.5917C589.084 29.8667 590.492 28.4583 592.217 28.4583H601.784C603.509 28.4583 604.917 29.8667 604.917 31.5917V32.7917H603.234C602.767 32.7917 602.342 32.975 602.034 33.2916Z" stroke="white" stroke-width="1.5" stroke-linecap="round" stroke-linejoin="round" />
    <path d="M589.084 32.3416V28.5334C589.084 27.5417 589.692 26.6583 590.617 26.3083L597.234 23.8083C598.267 23.4167 599.376 24.1833 599.376 25.2917V28.4583" stroke="white" stroke-width="1.5" stroke-linecap="round" stroke-linejoin="round" />
    <path d="M605.8 33.6418V35.3585C605.8 35.8168 605.433 36.1918 604.966 36.2085H603.333C602.433 36.2085 601.608 35.5501 601.533 34.6501C601.483 34.1251 601.683 33.6335 602.033 33.2918C602.341 32.9751 602.766 32.7918 603.233 32.7918H604.966C605.433 32.8085 605.8 33.1834 605.8 33.6418Z" stroke="white" stroke-width="1.5" stroke-linecap="round" stroke-linejoin="round" />
    <path d="M592.834 32H598.667" stroke="white" stroke-width="1.5" stroke-linecap="round" stroke-linejoin="round" />
    <path d="M594.501 37.8333C594.501 38.4583 594.326 39.05 594.017 39.55C593.842 39.85 593.617 40.1167 593.359 40.3333C592.776 40.8583 592.009 41.1667 591.167 41.1667C589.951 41.1667 588.892 40.5167 588.317 39.55C588.009 39.05 587.834 38.4583 587.834 37.8333C587.834 36.7833 588.317 35.8417 589.084 35.2333C589.659 34.775 590.384 34.5 591.167 34.5C593.009 34.5 594.501 35.9917 594.501 37.8333Z" stroke="white" stroke-width="1.5" stroke-miterlimit="10" stroke-linecap="round" stroke-linejoin="round" />
    <path d="M589.869 37.8329L590.694 38.6579L592.469 37.0163" stroke="white" stroke-width="1.5" stroke-linecap="round" stroke-linejoin="round" />
</svg>