<svg width="1512" height="57" viewBox="0 0 1512 57" fill="none" xmlns="http://www.w3.org/2000/svg">
<mask id="mask0_368_2168" style="mask-type:alpha" maskUnits="userSpaceOnUse" x="0" y="0" width="1512" height="57">
<rect width="1512" height="57" fill="#1A2531"/>
</mask>
<g mask="url(#mask0_368_2168)">
<g opacity="0.2">
<path d="M1510.97 48.5561C1510.48 72.6912 1510.78 104.416 1511.62 118.351C1512.47 132.285 1513.58 123.785 1514.07 99.6495C1514.56 75.5145 1514.26 43.7896 1513.42 29.8551C1512.57 15.9207 1511.46 24.4211 1510.97 48.5561Z" fill="white"/>
<path d="M1499.54 26.9512C1499.05 51.0862 1499.29 76.4661 1500.14 90.4006C1500.98 104.335 1501.88 97.5346 1502.36 73.3996C1502.85 49.2646 1502.62 23.8847 1501.77 9.95025C1500.92 -3.98421 1499.81 4.51627 1499.54 26.9512Z" fill="white"/>
<path d="M1487.89 7.03424C1487.4 31.1693 1487.64 56.5491 1488.49 70.4836C1489.33 84.4181 1490.23 77.6177 1490.72 53.4827C1491.2 29.3477 1490.97 3.96777 1490.12 -9.96669C1489.27 -23.9011 1488.38 -17.1008 1487.89 7.03424Z" fill="white"/>
<path d="M1476.52 -8.23038C1476.2 7.85963 1476.5 39.5843 1477.06 48.8739C1477.63 58.1636 1478.74 49.6631 1479.07 33.5731C1479.39 17.4831 1479.09 -14.2416 1478.53 -23.5312C1477.68 -37.4657 1476.79 -30.6653 1476.52 -8.23038Z" fill="white"/>
<path d="M1464.87 -28.1508C1464.55 -12.0608 1464.79 13.3188 1465.35 22.6084C1465.92 31.8981 1466.81 25.0977 1467.13 9.0077C1467.46 -7.08231 1467.22 -32.4619 1466.66 -41.7515C1466.09 -51.0412 1465.2 -44.2408 1464.87 -28.1508Z" fill="white"/>
<path d="M1453.51 -43.4223C1453.18 -27.3323 1453.36 -8.29748 1453.93 0.992159C1454.49 10.2818 1455.16 5.18152 1455.49 -10.9085C1455.81 -26.9985 1455.63 -46.0334 1455.07 -55.323C1454.5 -64.6126 1453.83 -59.5124 1453.51 -43.4223Z" fill="white"/>
<path d="M1344.74 45.3259L1344.8 51.6779L1345.02 49.9772L1344.96 43.6252L1344.74 45.3259Z" fill="white"/>
</g>
<g opacity="0.27">
<path d="M523.031 -7.59307C523.313 -12.2378 523.536 -10.5377 523.699 -2.49277C523.862 5.55218 523.802 11.8972 523.52 16.5419C523.237 21.1866 523.015 19.4865 522.852 11.4416C522.688 3.39663 522.748 -2.94835 523.031 -7.59307Z" fill="white"/>
<path d="M457.878 39.2715C458.161 34.6268 458.383 36.327 458.324 42.6718C458.546 44.3719 458.427 57.0615 458.427 57.0615C458.145 61.7062 457.922 60.0062 457.981 53.6613C457.759 51.9612 457.878 39.2715 457.878 39.2715Z" fill="white"/>
<path d="M439.322 6.47378C439.605 1.82905 439.828 3.52925 439.768 9.87408C439.931 17.919 439.871 24.2639 439.649 22.5638C439.366 27.2085 439.143 25.5083 439.203 19.1634C439.04 11.1185 439.1 4.77366 439.322 6.47378Z" fill="white"/>
<path d="M374.23 46.9909C374.512 42.3462 374.735 44.0463 374.675 50.3911C374.838 58.4361 374.779 64.7809 374.556 63.0808C374.273 67.7255 374.051 66.0254 374.11 59.6806C373.888 57.9805 373.947 51.6356 374.23 46.9909Z" fill="white"/>
<path d="M355.392 18.8381C355.674 14.1934 355.674 14.1934 355.837 22.2383C356.06 23.9385 356 30.2833 355.718 34.928C355.435 39.5727 355.435 39.5727 355.272 31.5278C355.332 25.1829 355.392 18.8381 355.392 18.8381Z" fill="white"/>
</g>
</g>
</svg>
